<svg xmlns="http://www.w3.org/2000/svg" width="56.06" height="19" viewBox="0 0 56.06 19" fill="#5A5FDE" fill-rule="evenodd">
  <metadata><?xpacket begin="﻿" id="W5M0MpCehiHzreSzNTczkc9d"?>
<x:xmpmeta xmlns:x="adobe:ns:meta/" x:xmptk="Adobe XMP Core 5.6-c138 79.159824, 2016/09/14-01:09:01        ">
   <rdf:RDF xmlns:rdf="http://www.w3.org/1999/02/22-rdf-syntax-ns#">
      <rdf:Description rdf:about=""/>
   </rdf:RDF>
</x:xmpmeta>                    
<?xpacket end="w"?></metadata>
  <path id="black-electronics-ram" class="cls-1" d="M1340.02,3171.01h-56.04v18.98h56.04v-18.98Zm-48.33,16.74a1.1,1.1,0,1,0-2.2,0h-1.1a1.1,1.1,0,1,0-2.2,0v-1.11h7.7a1.105,1.105,0,0,0-1.1,1.11h-1.1Zm3.3,0a1.1,1.1,0,0,0-1.09-1.11h3.3a1.105,1.105,0,0,0-1.1,1.11h-1.11Zm3.31,0a1.105,1.105,0,0,0-1.1-1.11h3.3a1.105,1.105,0,0,0-1.1,1.11h-1.1Zm3.3,0a1.1,1.1,0,0,0-1.09-1.11h3.29a1.112,1.112,0,0,0-1.1,1.11h-1.1Zm6.61-5.58a1.1,1.1,0,1,0-2.2,0v2.24h-19.82l-0.01-3.35a2.507,2.507,0,0,1,1.11-3.35,1.114,1.114,0,0,0-1.1-1.12l-0.01-3.34h51.64v3.35a1.119,1.119,0,0,0,0,2.22v0.02a1.113,1.113,0,0,0,0,2.21v3.36h-29.61v-2.24h0Zm-3.3,5.58a1.112,1.112,0,0,0-1.1-1.11h2.2v1.11h-1.1Zm3.3,0v-1.11h2.41a1.105,1.105,0,0,0-1.1,1.11h-1.31Zm3.52,0a1.118,1.118,0,0,0-1.1-1.11h3.29a1.1,1.1,0,0,0-1.09,1.11h-1.1Zm4.4,0h-1.1a1.1,1.1,0,0,0-1.09-1.11h3.29A1.105,1.105,0,0,0,1316.13,3187.75Zm5.51,0a1.105,1.105,0,1,0-2.21,0h-1.1a1.105,1.105,0,0,0-1.1-1.11h6.61a1.105,1.105,0,0,0-1.1,1.11h-1.1Zm3.3,0a1.105,1.105,0,0,0-1.1-1.11h3.3a1.105,1.105,0,0,0-1.1,1.11h-1.1Zm10.67,0h-0.76a1.1,1.1,0,1,0-2.2,0h-1.1a1.1,1.1,0,1,0-2.2,0h-1.11a1.105,1.105,0,0,0-1.1-1.11h9.57A1.105,1.105,0,0,0,1335.61,3187.75Zm1.1-1.11h1.1l0.01,1.11h-0.01A1.105,1.105,0,0,0,1336.71,3186.64Zm-41.72-11.16h-6.6v6.69h6.6v-6.69Zm-4.4,2.23h2.2v2.23h-2.2v-2.23Zm13.22-2.23h-6.61v6.69h6.61v-6.69Zm-4.41,2.23h2.2v2.23h-2.2v-2.23Zm17.62-2.23h-6.61v6.69h6.61v-6.69Zm-4.4,2.23h2.2v2.23h-2.2v-2.23Zm13.21-2.23h-6.61v6.69h6.61v-6.69Zm-4.4,2.23h2.2v2.23h-2.2v-2.23Zm13.21-2.23h-6.61v6.69h6.61v-6.69Zm-4.4,2.23h2.2v2.23h-2.2v-2.23Z" transform="translate(-1283.97 -3171)"/>
</svg>
