<?xml version="1.0" encoding="iso-8859-1"?>
<!-- Generator: Adobe Illustrator 18.0.0, SVG Export Plug-In . SVG Version: 6.00 Build 0)  -->
<!DOCTYPE svg PUBLIC "-//W3C//DTD SVG 1.1//EN" "http://www.w3.org/Graphics/SVG/1.1/DTD/svg11.dtd">
<svg xmlns="http://www.w3.org/2000/svg" xmlns:xlink="http://www.w3.org/1999/xlink" version="1.1" id="Capa_1" x="0px" y="0px" viewBox="0 0 376.661 376.661" style="enable-background:new 0 0 376.661 376.661;" xml:space="preserve" width="512px" height="512px">
<g>
	<path d="M370.322,230.168H253.678l-39.161-18.342V198.17h108.75V0H53.394v198.17h108.75v13.656l-39.162,18.342H6.339v113.495   h17.249v32.998h21.999v-32.998h285.485v32.998h22v-32.998h17.249V230.168z M363.322,237.168v28.498H191.831v-28.498H363.322z    M191.831,272.666h171.491v28.498H191.831V272.666z M184.831,301.164H13.339v-28.498h171.491V301.164z M60.394,191.17V7h255.873   v184.17H60.394z M207.517,198.17v12.382h-38.373V198.17H207.517z M165.923,217.786h44.815l26.436,12.382h-97.688L165.923,217.786z    M184.831,237.168v28.498H13.339v-28.498H184.831z M38.587,369.661h-7.999v-25.998h7.999V369.661z M13.339,336.663v-28.499h171.491   v28.499H13.339z M346.073,369.661h-8v-25.998h8V369.661z M191.831,336.663v-28.499h171.491v28.499H191.831z" fill="#9E9E9E"/>
	<path d="M308.825,13.839H67.836v170.492h240.988V13.839z M301.825,177.331H74.836V20.839h226.988V177.331z" fill="#9E9E9E"/>
	<rect x="87.585" y="243.079" width="23" height="7" fill="#9E9E9E"/>
	<rect x="87.585" y="313.579" width="23" height="7" fill="#9E9E9E"/>
	<rect x="87.585" y="278.329" width="23" height="7" fill="#9E9E9E"/>
	<rect x="266.076" y="243.079" width="23" height="7" fill="#9E9E9E"/>
	<rect x="266.076" y="313.579" width="23" height="7" fill="#9E9E9E"/>
	<rect x="266.076" y="278.329" width="23" height="7" fill="#9E9E9E"/>
</g>
<g>
</g>
<g>
</g>
<g>
</g>
<g>
</g>
<g>
</g>
<g>
</g>
<g>
</g>
<g>
</g>
<g>
</g>
<g>
</g>
<g>
</g>
<g>
</g>
<g>
</g>
<g>
</g>
<g>
</g>
</svg>
