<svg xmlns="http://www.w3.org/2000/svg" width="50" height="50" viewBox="0 0 50 50">
  <metadata><?xpacket begin="﻿" id="W5M0MpCehiHzreSzNTczkc9d"?>
<x:xmpmeta xmlns:x="adobe:ns:meta/" x:xmptk="Adobe XMP Core 5.6-c138 79.159824, 2016/09/14-01:09:01        ">
   <rdf:RDF xmlns:rdf="http://www.w3.org/1999/02/22-rdf-syntax-ns#">
      <rdf:Description rdf:about=""/>
   </rdf:RDF>
</x:xmpmeta>
                                                                                                    
                                                                                                    
                                                                                                    
                                                                                                    
                                                                                                    
                                                                                                    
                                                                                                    
                                                                                                    
                                                                                                    
                                                                                                    
                                                                                                    
                                                                                                    
                                                                                                    
                                                                                                    
                                                                                                    
                                                                                                    
                                                                                                    
                                                                                                    
                                                                                                    
                                                                                                    
                           
<?xpacket end="w"?></metadata>
<defs>
    <style>
      .cls-1 {
        fill: #b8ccc6;
        fill-rule: evenodd;
      }
    </style>
  </defs>
  <path id="decor-infobox-vase" class="cls-1" d="M1163.67,3460.99a2.6,2.6,0,0,0-3.49-.96l-2.89,1.63a10.92,10.92,0,0,0-2.28-5.13,7.459,7.459,0,0,0-5.43-2.59,7.1,7.1,0,0,1-.39-4.33h2.38a0.736,0.736,0,0,0,.74-0.73,3.894,3.894,0,0,0-3.9-3.88H1129.6a3.894,3.894,0,0,0-3.9,3.88,0.734,0.734,0,0,0,.73.73h2.38a7.1,7.1,0,0,1-.39,4.33,7.459,7.459,0,0,0-5.43,2.59,10.92,10.92,0,0,0-2.28,5.13l-2.88-1.63a2.6,2.6,0,0,0-3.5.96,2.546,2.546,0,0,0,.97,3.47l5.25,2.96c0.04,0.43.1,0.86,0.17,1.3a32.646,32.646,0,0,0,6.95,15.27,31.955,31.955,0,0,0,5.17,5.1,10.408,10.408,0,0,1-2.23,1.84,5.227,5.227,0,0,0-2.32,3.16,0.734,0.734,0,0,0,.71.91h20a0.749,0.749,0,0,0,.72-0.91,5.311,5.311,0,0,0-2.32-3.16,9.9,9.9,0,0,1-2.23-1.84,32.783,32.783,0,0,0,5.17-5.1,33.351,33.351,0,0,0,6.22-11.99l0.03-.08a28.809,28.809,0,0,0,.86-4.5l5.25-2.96A2.546,2.546,0,0,0,1163.67,3460.99Zm-43.23,3.06c-0.02.54-.03,1.08-0.01,1.62l-4.4-2.48a1.077,1.077,0,0,1-.41-1.48,1.1,1.1,0,0,1,1.48-.41l3.4,1.92C1120.47,3463.49,1120.45,3463.77,1120.44,3464.05Zm6.84-15.9a2.438,2.438,0,0,1,2.32-1.69h18.81a2.426,2.426,0,0,1,2.31,1.69h-23.44Zm3.03,1.46h17.38a8.66,8.66,0,0,0,.3,4.32h-17.97A8.766,8.766,0,0,0,1130.31,3449.61Zm16.28,42.54a4.078,4.078,0,0,1,1.33,1.38h-17.84a4.178,4.178,0,0,1,1.33-1.38,10.251,10.251,0,0,0,2.84-2.48h9.5A10.251,10.251,0,0,0,1146.59,3492.15Zm-2.68-3.94h-9.82a29.391,29.391,0,0,1-4.26-3.95h18.35A29.989,29.989,0,0,1,1143.91,3488.21Zm5.5-5.41h-20.82c-0.42-.54-0.83-1.09-1.22-1.65h23.26C1150.24,3481.71,1149.83,3482.26,1149.41,3482.8Zm2.18-3.12h-25.18a32.007,32.007,0,0,1-3.3-7.23h31.79A32.489,32.489,0,0,1,1151.59,3479.68Zm4.44-12.77h0c-0.03.32-.07,0.64-0.11,0.96h-23.77a0.735,0.735,0,1,0,0,1.47h23.53c-0.1.54-.23,1.1-0.37,1.65h-32.62c-0.14-.55-0.26-1.11-0.37-1.65h6.92a0.735,0.735,0,1,0,0-1.47h-7.16c-0.04-.32-0.07-0.64-0.1-0.96h0a19.085,19.085,0,0,1,.03-4.01v-0.04a9.967,9.967,0,0,1,2.1-5.37,5.98,5.98,0,0,1,4.77-2.09h20.24a5.98,5.98,0,0,1,4.77,2.09,9.967,9.967,0,0,1,2.1,5.37v0.04A19.753,19.753,0,0,1,1156.03,3466.91Zm5.95-3.72-4.4,2.48v-0.09a20.6,20.6,0,0,0-.07-2.36l3.39-1.92a1.115,1.115,0,0,1,1.49.41A1.094,1.094,0,0,1,1161.98,3463.19Z" transform="translate(-1114 -3445)"/>
</svg>
