<svg xmlns="http://www.w3.org/2000/svg" width="23" height="39.937" viewBox="0 0 23 39.937">
  <metadata><?xpacket begin="﻿" id="W5M0MpCehiHzreSzNTczkc9d"?>
<x:xmpmeta xmlns:x="adobe:ns:meta/" x:xmptk="Adobe XMP Core 5.6-c138 79.159824, 2016/09/14-01:09:01        ">
   <rdf:RDF xmlns:rdf="http://www.w3.org/1999/02/22-rdf-syntax-ns#">
      <rdf:Description rdf:about=""/>
   </rdf:RDF>
</x:xmpmeta>
                                                                                                    
                                                                                                    
                                                                                                    
                                                                                                    
                                                                                                    
                                                                                                    
                                                                                                    
                                                                                                    
                                                                                                    
                                                                                                    
                                                                                                    
                                                                                                    
                                                                                                    
                                                                                                    
                                                                                                    
                                                                                                    
                                                                                                    
                                                                                                    
                                                                                                    
                                                                                                    
                           
<?xpacket end="w"?></metadata>
<defs>
    <style>
      .cls-1 {
        fill: #b8ccc6;
        fill-rule: evenodd;
      }
    </style>
  </defs>
  <path id="decor-category-plant" class="cls-1" d="M596.353,168.13a0.655,0.655,0,0,0,.647-0.662v-4.512a0.655,0.655,0,0,0-.647-0.662h-6.227a9.183,9.183,0,0,0,4.3-7.812,0.654,0.654,0,0,0-.647-0.662,8.894,8.894,0,0,0-7.636,4.4v-3.371a9.066,9.066,0,0,0,8.283-9.113,0.655,0.655,0,0,0-.647-0.662A8.948,8.948,0,0,0,585.5,150.8a8.949,8.949,0,0,0-8.284-5.723,0.655,0.655,0,0,0-.647.662,9.066,9.066,0,0,0,8.284,9.113v3.371a8.9,8.9,0,0,0-7.637-4.4,0.655,0.655,0,0,0-.647.663,9.186,9.186,0,0,0,4.3,7.812h-6.226a0.654,0.654,0,0,0-.647.662v4.511a0.655,0.655,0,0,0,.647.663h0.672l1.17,11.034h-1.842a0.643,0.643,0,0,0-.536.29,0.677,0.677,0,0,0-.066.616l1.753,4.512a0.647,0.647,0,0,0,.6.417h18.2a0.647,0.647,0,0,0,.6-0.417l1.753-4.512a0.677,0.677,0,0,0-.066-0.616,0.643,0.643,0,0,0-.536-0.29h-1.842l1.17-11.034h0.672Zm-3.247-12.956a7.738,7.738,0,0,1-6.929,7.09A7.737,7.737,0,0,1,593.106,155.174Zm0-8.742a7.736,7.736,0,0,1-6.929,7.089A7.738,7.738,0,0,1,593.106,146.432ZM580.1,151.263a7.834,7.834,0,0,1-2.207-4.831,7.739,7.739,0,0,1,6.93,7.089A7.509,7.509,0,0,1,580.1,151.263Zm-2.207,3.911a7.739,7.739,0,0,1,6.93,7.09,7.514,7.514,0,0,1-4.723-2.258A7.839,7.839,0,0,1,577.893,155.174Zm-2.6,8.444h20.412v3.187H575.294v-3.187Zm18.867,20.057H576.839l-1.239-3.187h19.8Zm-0.952-4.511H577.791l-1.17-11.034h17.758Z" transform="translate(-574 -145.063)"/>
</svg>
