<?xml version="1.0" encoding="UTF-8"?> <svg xmlns="http://www.w3.org/2000/svg" width="50" height="32" viewBox="0 0 50 32" fill="none"><path d="M46.4999 13.5659L45.2051 8.32583C45.5591 8.24975 45.8247 7.932 45.8247 7.55131V6.70643C45.8247 4.87203 44.3496 3.3797 42.5366 3.3797H36.6389V1.63699C36.6389 0.734313 35.9132 0 35.021 0H4.95821C4.06602 0 3.34024 0.734313 3.34024 1.63699V16.0001C3.34024 16.4376 3.69073 16.7923 4.12315 16.7923C4.55548 16.7923 4.90606 16.4377 4.90606 16.0001V1.63699C4.90606 1.60784 4.9294 1.58423 4.95821 1.58423H35.0209C35.0497 1.58423 35.073 1.60784 35.073 1.63699V16.0003C35.073 16.4378 35.4235 16.7925 35.8559 16.7925C36.2883 16.7925 36.6388 16.4379 36.6388 16.0003V15.1024H45.8741C45.8749 15.1024 45.8755 15.1026 45.8762 15.1026C45.8769 15.1026 45.8776 15.1025 45.8783 15.1025C47.0147 15.1033 47.9797 15.858 48.3111 16.8979H45.8768C45.4444 16.8979 45.0938 17.2525 45.0938 17.69V19.3797C45.0938 20.7483 46.1942 21.8616 47.5469 21.8616H48.4342V25.3467H46.3871C45.7146 23.3822 43.8688 21.9671 41.7014 21.9671C39.5339 21.9671 37.688 23.3822 37.0156 25.3467H36.6386V19.3796C36.6386 18.9422 36.2882 18.5875 35.8557 18.5875C35.4234 18.5875 35.0728 18.9421 35.0728 19.3796V25.3465H18.8298C18.1574 23.382 16.3116 21.9669 14.1441 21.9669C11.9766 21.9669 10.1307 23.382 9.45832 25.3465H4.95821C4.9294 25.3465 4.90606 25.3229 4.90606 25.2938V23.5512H8.29855C8.73088 23.5512 9.08146 23.1966 9.08146 22.759C9.08146 22.3215 8.73097 21.9669 8.29855 21.9669H0.782912C0.350587 21.9669 0 22.3215 0 22.759C0 23.1966 0.350489 23.5512 0.782912 23.5512H3.34034V25.2938C3.34034 26.1964 4.06612 26.9308 4.95831 26.9308H9.18723C9.18703 26.9483 9.18586 26.9658 9.18586 26.9835C9.18586 29.7496 11.4102 32 14.1441 32C16.878 32 19.1023 29.7496 19.1023 26.9835C19.1023 26.9657 19.1011 26.9483 19.1009 26.9308H36.7445C36.7443 26.9483 36.7431 26.9658 36.7431 26.9835C36.7431 29.7496 38.9675 32 41.7014 32C44.4352 32 46.6596 29.7496 46.6596 26.9835C46.6596 26.9657 46.6584 26.9483 46.6582 26.9308H49.2171C49.6494 26.9308 50 26.5761 50 26.1386V17.6898C50.0001 15.6038 48.4789 13.8707 46.4999 13.5659ZM36.6389 4.96382H42.5366C43.4863 4.96382 44.259 5.74556 44.259 6.70643V6.75919H36.6389V4.96382ZM36.6389 13.5183V8.34332H43.5955L44.8742 13.5183H36.6389ZM14.1441 30.4161C12.2735 30.4161 10.7516 28.8764 10.7516 26.9837C10.7516 25.091 12.2735 23.5514 14.1441 23.5514C16.0147 23.5514 17.5366 25.091 17.5366 26.9837C17.5366 28.8764 16.0147 30.4161 14.1441 30.4161ZM41.7015 30.4161C39.8309 30.4161 38.3091 28.8764 38.3091 26.9837C38.3091 25.091 39.8309 23.5514 41.7015 23.5514C43.5722 23.5514 45.094 25.091 45.094 26.9837C45.094 28.8764 43.5722 30.4161 41.7015 30.4161ZM48.4344 20.2774H47.5471C47.0578 20.2774 46.6598 19.8747 46.6598 19.3796V18.4819H48.4343V20.2774H48.4344Z" fill="white"></path><path d="M14.1441 25.3467C13.2519 25.3467 12.5261 26.081 12.5261 26.9837C12.5261 27.8864 13.2519 28.6207 14.1441 28.6207C15.0363 28.6207 15.762 27.8864 15.762 26.9837C15.762 26.081 15.0363 25.3467 14.1441 25.3467Z" fill="white"></path><path d="M41.7015 25.3467C40.8094 25.3467 40.0836 26.081 40.0836 26.9837C40.0836 27.8864 40.8094 28.6207 41.7015 28.6207C42.5937 28.6207 43.3195 27.8864 43.3195 26.9837C43.3195 26.081 42.5937 25.3467 41.7015 25.3467Z" fill="white"></path><path d="M32.5157 21.9672H20.8247C20.3923 21.9672 20.0417 22.3218 20.0417 22.7593C20.0417 23.1968 20.3922 23.5515 20.8247 23.5515H32.5157C32.948 23.5515 33.2986 23.1968 33.2986 22.7593C33.2986 22.3218 32.9481 21.9672 32.5157 21.9672Z" fill="white"></path><path d="M12.474 18.5876H2.45303C2.02071 18.5876 1.67012 18.9422 1.67012 19.3797C1.67012 19.8172 2.02061 20.1719 2.45303 20.1719H12.474C12.9063 20.1719 13.2569 19.8172 13.2569 19.3797C13.2569 18.9422 12.9063 18.5876 12.474 18.5876Z" fill="white"></path><path d="M27.2238 7.83596C26.9181 7.5267 26.4223 7.52671 26.1167 7.83606L19.1545 14.8799L15.5327 11.2156C15.227 10.9062 14.7313 10.9062 14.4256 11.2156C14.1199 11.5249 14.1199 12.0263 14.4256 12.3357L18.601 16.5602C18.7538 16.7149 18.9542 16.7922 19.1545 16.7922C19.3548 16.7922 19.5553 16.7149 19.708 16.5602L27.2237 8.9562C27.5294 8.64675 27.5294 8.14532 27.2238 7.83596Z" fill="white"></path></svg> 