<svg width="80" height="80" viewBox="0 0 80 80" fill="none" xmlns="http://www.w3.org/2000/svg">
<circle cx="40" cy="40" r="40" fill="white"/>
<path d="M52.1377 19.6263C52.6638 19.9429 53.1838 20.283 53.6833 20.6374C53.8724 20.7716 54.09 20.8362 54.3057 20.8362C54.6421 20.8362 54.9735 20.6792 55.1832 20.3848C55.5275 19.9016 55.4141 19.2316 54.93 18.8881C54.3866 18.5024 53.8208 18.1325 53.2487 17.7881C52.7396 17.4818 52.0789 17.6456 51.772 18.153C51.4653 18.6605 51.6289 19.3203 52.1377 19.6263Z" fill="#8ECBDE"/>
<path d="M64.8151 39.2016C57.7212 39.2016 51.0519 41.9581 46.0357 46.9632C41.2293 51.7591 38.4937 58.0698 38.2733 64.8164C25.4278 64.1453 15.1514 53.4546 15.1514 40.4999C15.1514 27.0714 26.1003 16.1466 39.5583 16.1466C42.7864 16.1466 45.9222 16.7652 48.8788 17.9854C49.4278 18.2118 50.0569 17.9516 50.284 17.4038C50.5109 16.8559 50.2501 16.2283 49.701 16.0017C46.4823 14.6734 43.0698 14 39.5582 14C32.4643 14 25.7949 16.7565 20.7787 21.7616C15.7625 26.7667 13 33.4215 13 40.4999C13 47.5378 15.7356 54.1651 20.7028 59.1611C25.667 64.1539 32.2809 66.9367 39.3263 66.9971H39.3264L39.5583 67C46.6522 67 53.3215 64.2434 58.3377 59.2384C63.3539 54.2331 66.1164 47.5784 66.1164 40.5C66.1083 39.664 65.653 39.2097 64.8151 39.2016ZM41.9334 64.7371L50.1286 56.5598C50.5487 56.1407 50.5487 55.4611 50.1286 55.0418C49.7085 54.6228 49.0275 54.6228 48.6073 55.0418L40.5489 63.0825C41.8325 51.1629 51.7711 41.7893 63.9499 41.3632C63.52 53.5998 53.9975 63.5684 41.9334 64.7371Z" fill="#8ECBDE"/>
<path d="M52.5251 53.724C52.8004 53.724 53.0756 53.6191 53.2857 53.4096L55.0334 51.6657C55.4534 51.2466 55.4534 50.567 55.0334 50.1477C54.6132 49.7287 53.9323 49.7287 53.512 50.1477L51.7643 51.8916C51.3443 52.3107 51.3443 52.9903 51.7643 53.4096C51.9744 53.6192 52.2497 53.724 52.5251 53.724Z" fill="#8ECBDE"/>
<path d="M66.6849 26.2884L64.664 24.2721L65.1273 23.8098C65.329 23.6084 65.4423 23.3355 65.4423 23.0508C65.4423 22.7662 65.329 22.4931 65.1273 22.2919L63.3935 20.562C62.5091 19.6797 61.3336 19.1938 60.0831 19.1938C58.8326 19.1938 57.657 19.6797 56.7728 20.562L55.8085 21.5241C54.9243 22.4065 54.4373 23.5794 54.4373 24.8272C54.4373 26.075 54.9243 27.248 55.8085 28.1303L57.5423 29.8602C57.7524 30.0697 58.0277 30.1746 58.303 30.1746C58.5782 30.1746 58.8535 30.0697 59.0636 29.8602L59.5268 29.398L61.5477 31.4145C61.7578 31.624 62.033 31.7289 62.3083 31.7289C62.5836 31.7289 62.8588 31.624 63.0689 31.4145C63.489 30.9954 63.489 30.3157 63.0689 29.8965L61.048 27.88L63.1426 25.79L65.1635 27.8064C65.3736 28.0159 65.6489 28.1207 65.9242 28.1207C66.1994 28.1207 66.4747 28.0159 66.6848 27.8064C67.1051 27.3872 67.1051 26.7076 66.6849 26.2884ZM58.303 27.5833L57.3298 26.6123C56.8519 26.1355 56.5886 25.5015 56.5886 24.8271C56.5886 24.1527 56.8518 23.5188 57.3298 23.0419L58.294 22.0798C58.7718 21.603 59.4073 21.3402 60.0831 21.3402C60.759 21.3402 61.3943 21.6029 61.8722 22.0798L62.8454 23.0507L58.303 27.5833Z" fill="#8ECBDE"/>
</svg>
