<?xml version="1.0" standalone="no"?>
<!DOCTYPE svg PUBLIC "-//W3C//DTD SVG 1.1//EN" "http://www.w3.org/Graphics/SVG/1.1/DTD/svg11.dtd" >
<svg xmlns="http://www.w3.org/2000/svg" xmlns:xlink="http://www.w3.org/1999/xlink" version="1.1">
<metadata>
Created by FontForge 20160405 at Wed Jun 13 05:02:24 2018
 By www-data
Copyright (c)2015, HK Grotesk Pro Latin by Alfredo Marco Pradil (ammpradil@gmail.com). HK Grotesk Pro is a trademark of Alfredo Marco Pradil.
</metadata>
<defs>
<font id="HKGroteskPro-Bold" horiz-adv-x="0" >
  <font-face 
    font-family="HK Grotesk Pro"
    font-weight="700"
    font-stretch="normal"
    units-per-em="2048"
    panose-1="0 0 8 0 0 0 0 0 0 0"
    ascent="1434"
    descent="-614"
    x-height="999"
    cap-height="1413"
    bbox="-975 -522 2648 2240"
    underline-thickness="82"
    underline-position="-328"
    unicode-range="U+0020-FB02"
  />
<missing-glyph horiz-adv-x="1110" 
d="M145 954h820v-954h-820v954zM862 102v750h-614v-750h614z" />
    <glyph glyph-name="fi" unicode="fi" horiz-adv-x="1133" 
d="M989 0h-225v795h-336v-795h-244v795h-164v204h164v72q0 111 57.5 193.5t154 126t210.5 43.5q122 0 213 -26t174 -79l-112 -172q-116 80 -263 80q-95 0 -142.5 -46t-47.5 -124v-68h561v-999z" />
    <glyph glyph-name="fl" unicode="fl" horiz-adv-x="1235" 
d="M857 28.5q-56 48.5 -56 170.5v1003q-81 35 -183 35q-95 0 -142.5 -46t-47.5 -124v-68h203l-2 -204h-201v-795h-244v795h-164v204h164v72q0 111 57.5 193.5t154 126t210.5 43.5q89 0 151.5 -8t129 -31t157.5 -68v-1061q0 -67 80 -67q28 0 68 6v-205q-42 -8 -92 -14t-90 -6
q-97 0 -153 48.5z" />
    <glyph glyph-name="f_f" unicode="ff" horiz-adv-x="1249" 
d="M184 795h-164v204h164v72q0 111 57.5 193.5t154 126t210.5 43.5q71 0 140 -17.5t126 -52.5q45 34 99.5 52t113.5 18q89 0 181 -41l-80 -201q-41 25 -78 25q-40 0 -66 -27t-26 -82v-109h233v-204h-233v-795h-252v795h-336v-795h-244v795zM766 999v134q0 36 6 69
q-68 35 -154 35q-95 0 -142.5 -46t-47.5 -124v-68h338z" />
    <glyph glyph-name="f_f_i" unicode="ffi" horiz-adv-x="1726" 
d="M1587 0h-244v795h-335v-795h-244v795h-336v-795h-244v795h-164v204h164v72q0 111 57.5 193.5t154 126t210.5 43.5q79 0 156 -21.5t140 -65.5q57 42 130 64.5t154 22.5q121 0 212 -26t175 -79l-113 -172q-57 40 -121 60t-141 20q-95 0 -142.5 -46t-47.5 -124v-68h579v-999
zM764 1071q0 63 21 124q-74 42 -167 42q-95 0 -142.5 -46t-47.5 -124v-68h336v72z" />
    <glyph glyph-name="f_f_l" unicode="ffl" horiz-adv-x="1778" 
d="M1399 28.5q-56 48.5 -56 170.5v1015q-69 23 -145 23q-95 0 -142.5 -46t-47.5 -124v-68h190v-204h-190v-795h-244v795h-336v-795h-244v795h-164v204h164v72q0 111 57.5 193.5t154 126t210.5 43.5q79 0 156 -21.5t139 -64.5q57 41 131 63.5t154 22.5q122 0 214.5 -26.5
t186.5 -84.5v-1057q0 -67 80 -67q28 0 68 6v-205q-104 -20 -183 -20q-97 0 -153 48.5zM764 999v72q0 61 20 123q-71 43 -166 43t-142.5 -46t-47.5 -124v-68h336z" />
    <glyph glyph-name="h_d_c_o.liga" unicode="hdco" horiz-adv-x="1712" 
d="M467.5 43q-177.5 104 -281.5 281.5t-104 388.5t104 388.5t281.5 281.5t388.5 104t388.5 -104t281.5 -281.5t104 -388.5t-104 -388.5t-281.5 -281.5t-388.5 -104t-388.5 104zM1208.5 104.5q161.5 94.5 256 256t94.5 352.5t-94.5 352.5t-256 255.5t-352.5 94t-352.5 -94
t-255.5 -255.5t-94 -352.5t94 -352.5t255.5 -256t352.5 -94.5t352.5 94.5zM428 419.5q-10 9.5 -10 24.5v537q0 15 10.5 26t24.5 11q15 0 25.5 -11t10.5 -26v-537q0 -15 -10.5 -24.5t-25.5 -9.5t-25 9.5zM831 419.5q-10 9.5 -10 24.5v537q0 15 10 26t25 11t25 -11t10 -26
v-537q0 -15 -9.5 -24.5t-25.5 -9.5q-15 0 -25 9.5zM1235 420l-270 268q-9 10 -9 25q0 16 9 24l270 269q9 12 22 12q14 0 25.5 -11.5t11.5 -25.5t-10 -25l-244 -243l244 -244q10 -10 10 -25q0 -13 -11.5 -23.5t-25.5 -10.5t-22 10zM562.5 687.5q-9.5 9.5 -9.5 25.5
q0 15 9.5 25t25.5 10h133q15 0 26 -10t11 -25t-11 -25t-26 -10h-133q-16 0 -25.5 9.5z" />
    <glyph glyph-name=".notdef" horiz-adv-x="1110" 
d="M145 954h820v-954h-820v954zM862 102v750h-614v-750h614z" />
    <glyph glyph-name=".null" 
 />
    <glyph glyph-name="nonmarkingreturn" horiz-adv-x="682" 
 />
    <glyph glyph-name="space" unicode=" " horiz-adv-x="494" 
 />
    <glyph glyph-name="exclam" unicode="!" horiz-adv-x="635" 
d="M197 1413h241l-28 -985h-185zM184 264h267v-264h-267v264z" />
    <glyph glyph-name="quotedbl" unicode="&#x22;" horiz-adv-x="901" 
d="M174 1413h205v-518h-205v518zM522 1413h205v-518h-205v518z" />
    <glyph glyph-name="numbersign" unicode="#" horiz-adv-x="1382" 
d="M311 414h-231v172h268l55 262h-241v180h278l90 385h193l-88 -393h250l84 393h192l-90 -393h234v-172h-271l-57 -262h246v-172h-283l-88 -414h-190l88 414h-250l-86 -414h-191zM791 586l53 262h-250l-53 -262h250z" />
    <glyph glyph-name="dollar" unicode="$" horiz-adv-x="1137" 
d="M1021 200q-56 -92 -153 -146.5t-219 -66.5v-247l-102 -2v247q-122 7 -228.5 56t-179.5 140t-94 218l252 64q11 -114 79 -177.5t171 -74.5v417q-132 51 -212 94.5t-138 122t-58 199.5q0 115 54.5 201t147.5 134t206 54v226h102v-229q114 -14 207 -75t154 -169l-211 -129
q-26 51 -64.5 86t-85.5 52v-351q140 -54 222.5 -97.5t144 -125.5t61.5 -209q0 -120 -56 -212zM432.5 960q39.5 -40 114.5 -74v321q-67 -7 -110.5 -48t-43.5 -102q0 -57 39.5 -97zM777.5 275q45.5 48 45.5 114q0 68 -45 113t-129 83v-372q83 14 128.5 62z" />
    <glyph glyph-name="percent" unicode="%" horiz-adv-x="1427" 
d="M222.5 822q-66.5 42 -103.5 117t-37 169q0 93 36.5 167.5t101.5 116.5t149 42q83 0 149 -43t103.5 -118t37.5 -167q0 -91 -37 -165.5t-101.5 -117.5t-145.5 -43q-86 0 -152.5 42zM1055 1413h172l-852 -1413h-172zM436.5 965q27.5 21 43.5 58t16 83q0 73 -35.5 118.5
t-91.5 45.5q-57 0 -90 -44t-33 -118q0 -75 34.5 -119.5t94.5 -44.5q34 0 61.5 21zM908.5 22q-66.5 42 -103.5 116.5t-37 168.5t36.5 168t101.5 116t149 42q83 0 149.5 -43t104 -118t37.5 -167q0 -91 -37 -165.5t-102 -117t-146 -42.5q-86 0 -152.5 42zM1122.5 164
q27.5 21 43.5 58t16 83q0 73 -35.5 118.5t-91.5 45.5q-57 0 -90 -44t-33 -118q0 -75 34.5 -119.5t94.5 -44.5q34 0 61.5 21z" />
    <glyph glyph-name="ampersand" unicode="&#x26;" horiz-adv-x="1382" 
d="M1155 -76l-186 213q-88 -77 -196.5 -118.5t-229.5 -41.5q-131 0 -236 41.5t-166 121t-61 190.5q0 101 44.5 180t114.5 138t168 117q-167 167 -167 333q0 99 56 174.5t146.5 116.5t188.5 41q101 0 187.5 -44t137 -119.5t50.5 -166.5q0 -118 -67.5 -206.5t-187.5 -169.5
l200 -224q34 96 34 196l238 -24q-5 -97 -32 -188t-74 -170l210 -236zM594 873q90 54 138 106.5t48 116.5q0 60 -39 101.5t-108 41.5q-66 0 -112 -38.5t-46 -106.5q0 -83 119 -221zM695 214.5q73 30.5 131 86.5l-267 305q-78 -48 -129.5 -88.5t-83 -88.5t-31.5 -103
q0 -69 60 -105.5t162 -36.5q85 0 158 30.5z" />
    <glyph glyph-name="quotesingle" unicode="'" horiz-adv-x="553" 
d="M174 1413h205v-518h-205v518z" />
    <glyph glyph-name="parenleft" unicode="(" horiz-adv-x="565" 
d="M203.5 69q-51.5 140 -78.5 287.5t-27 266.5q0 197 56.5 412.5t171.5 377.5h211q-79 -108 -131.5 -245.5t-77.5 -278.5t-25 -266q0 -119 28.5 -269t81 -289.5t122.5 -228.5h-211q-69 93 -120.5 233z" />
    <glyph glyph-name="parenright" unicode=")" horiz-adv-x="565" 
d="M30 -164q70 89 122.5 228.5t81 289.5t28.5 269q0 125 -25 266t-77.5 278.5t-131.5 245.5h211q115 -162 171.5 -377.5t56.5 -412.5q0 -119 -27 -266.5t-78.5 -287.5t-120.5 -233h-211z" />
    <glyph glyph-name="asterisk" unicode="*" horiz-adv-x="901" 
d="M182 936l158 160l-227 30l61 168l209 -82l-29 201h195l-29 -201l209 82l59 -168l-227 -30l158 -160l-158 -102l-110 208l-111 -208z" />
    <glyph glyph-name="plus" unicode="+" horiz-adv-x="1192" 
d="M504 532h-426v185h426v426h184v-426h426v-185h-426v-426h-184v426z" />
    <glyph glyph-name="comma" unicode="," horiz-adv-x="635" 
d="M270 264h281l-254 -567h-162z" />
    <glyph glyph-name="hyphen" unicode="-" horiz-adv-x="866" 
d="M141 692h584v-184h-584v184z" />
    <glyph glyph-name="period" unicode="." horiz-adv-x="647" 
d="M201 264h245v-264h-245v264z" />
    <glyph glyph-name="slash" unicode="/" horiz-adv-x="897" 
d="M705 1413h227l-739 -1843h-228z" />
    <glyph glyph-name="zero" unicode="0" horiz-adv-x="1188" 
d="M213 192q-100 212 -100 515q0 189 34 347.5t139.5 270t303.5 111.5q266 0 377.5 -209.5t111.5 -521.5q0 -311 -107.5 -518t-367.5 -207q-291 0 -391 212zM746 290q48 71 59.5 170.5t11.5 248.5t-12.5 247.5t-62 167t-152.5 68.5t-153 -69t-62.5 -168t-12.5 -248t13 -249
t65 -169.5t158 -69.5q100 0 148 71z" />
    <glyph glyph-name="one" unicode="1" horiz-adv-x="1188" 
d="M811 1413v-1413h-250v999h-330v193h189q151 0 151 135v86h240z" />
    <glyph glyph-name="two" unicode="2" horiz-adv-x="1188" 
d="M1104 229v-229h-1010v201q265 158 475.5 365.5t210.5 432.5q0 91 -49.5 148t-148.5 57q-127 0 -184 -88t-62 -217l-248 16q0 134 59 253t171 191.5t262 72.5q131 0 234 -51.5t161.5 -150.5t58.5 -237q0 -144 -82.5 -295.5t-204.5 -276t-236 -192.5h593z" />
    <glyph glyph-name="three" unicode="3" horiz-adv-x="1188" 
d="M318 32.5q-119 52.5 -190 157.5t-71 256l242 15q0 -77 37 -133t102 -85.5t148 -29.5q75 0 138.5 25t101.5 75.5t38 122.5q0 93 -49.5 138.5t-120.5 57t-176 11.5v193q114 0 172 21.5t77 59t19 99.5q0 89 -57 135.5t-147 46.5q-97 0 -156.5 -54t-60.5 -147l-240 17
q0 129 61 224t164.5 145.5t227.5 50.5q119 0 223 -47t166.5 -135t62.5 -205q0 -92 -43 -168.5t-141 -122.5q134 -36 197 -126.5t63 -213.5q0 -138 -71.5 -236.5t-191 -149t-261.5 -50.5q-145 0 -264 52.5z" />
    <glyph glyph-name="four" unicode="4" horiz-adv-x="1188" 
d="M1153 563v-231h-225v-332h-250v332h-653v147l690 934h213v-850h225zM678 563v462l-328 -462h328z" />
    <glyph glyph-name="five" unicode="5" horiz-adv-x="1188" 
d="M861.5 904.5q110.5 -66.5 175.5 -179t65 -244.5t-70.5 -247.5t-190 -184.5t-257.5 -69q-124 0 -231.5 57t-180 155.5t-98.5 217.5l235 65q24 -113 90.5 -189.5t184.5 -76.5q74 0 133.5 39t93 102.5t33.5 132.5q0 71 -31 130.5t-90 94.5t-139 35q-70 0 -136 -35.5
t-104 -95.5l-229 58l137 743h786v-233h-585l-51 -264q55 30 108.5 42.5t110.5 12.5q130 0 240.5 -66.5z" />
    <glyph glyph-name="six" unicode="6" horiz-adv-x="1188" 
d="M853 900.5q118 -66.5 187.5 -180t69.5 -247.5t-69.5 -247t-187.5 -179.5t-257 -66.5q-140 0 -258.5 66.5t-188 179.5t-69.5 247q0 73 21.5 141.5t61.5 126.5l417 672h290l-282 -446h8q139 0 257 -66.5zM729 250q61 35 97 94.5t36 128.5t-36 128.5t-97 94.5t-133 35
q-74 0 -135.5 -35t-97 -94t-35.5 -129t35.5 -129t97 -94t135.5 -35q72 0 133 35z" />
    <glyph glyph-name="seven" unicode="7" horiz-adv-x="1188" 
d="M1106 1413v-129l-627 -1284h-280l599 1182h-712v231h1020z" />
    <glyph glyph-name="eight" unicode="8" horiz-adv-x="1188" 
d="M333.5 28.5q-119.5 48.5 -191.5 144.5t-72 233q0 116 54 208.5t150 149.5q-65 55 -99 128t-34 157q0 118 62.5 205.5t166 133.5t222.5 46q118 0 221.5 -46.5t166 -133.5t62.5 -203q0 -86 -35 -159.5t-98 -127.5q100 -59 152.5 -150t52.5 -206q0 -138 -72.5 -235
t-191.5 -145t-258 -48t-258.5 48.5zM744.5 889q56.5 51 56.5 141t-57.5 141.5t-147.5 51.5q-88 0 -146.5 -49t-58.5 -140q0 -89 55.5 -142.5t149.5 -53.5q92 0 148.5 51zM728.5 223q61.5 26 97.5 79t36 130q0 75 -35 129.5t-97 82.5t-140 28q-80 0 -141.5 -28t-96.5 -82
t-35 -128q0 -78 36.5 -131.5t98.5 -79.5t138 -26q77 0 138.5 26z" />
    <glyph glyph-name="nine" unicode="9" horiz-adv-x="1188" 
d="M1086.5 798.5q-21.5 -68.5 -61.5 -126.5l-417 -672h-290l282 446h-8q-139 0 -257 66.5t-187.5 180t-69.5 247.5t69.5 247t187.5 179.5t257 66.5q140 0 258.5 -66.5t188 -179.5t69.5 -247q0 -73 -21.5 -141.5zM362 811.5q36 -59.5 97 -94.5t133 -35q74 0 135.5 35t97 94
t35.5 129t-35.5 129t-97 94t-135.5 35q-72 0 -133 -35t-97 -94.5t-36 -128.5t36 -128.5z" />
    <glyph glyph-name="colon" unicode=":" horiz-adv-x="676" 
d="M205 954h266v-264h-266v264zM205 264h266v-264h-266v264z" />
    <glyph glyph-name="semicolon" unicode=";" horiz-adv-x="659" 
d="M242 954h266v-264h-266v264zM236 264h280l-254 -567h-162z" />
    <glyph glyph-name="less" unicode="&#x3c;" horiz-adv-x="1307" 
d="M39 592l1087 620l93 -159l-807 -461l807 -461l-93 -160z" />
    <glyph glyph-name="equal" unicode="=" horiz-adv-x="1268" 
d="M219 999h830v-206h-830v206zM219 551h830v-207h-830v207z" />
    <glyph glyph-name="greater" unicode="&#x3e;" horiz-adv-x="1307" 
d="M88 131l807 461l-807 461l93 159l1087 -620l-1087 -621z" />
    <glyph glyph-name="question" unicode="?" horiz-adv-x="997" 
d="M387 569q0 83 26 136.5t63.5 82.5t98.5 62q50 27 78.5 48t48 55t19.5 85q0 97 -62 145t-170 48q-118 0 -173.5 -61t-55.5 -179h-215q0 138 54 238t152.5 152.5t229.5 52.5q124 0 227 -46.5t164.5 -137t61.5 -216.5q0 -104 -34 -172.5t-80 -105t-115 -74.5
q-58 -32 -84.5 -55.5t-26.5 -59.5v-143h-207v145zM360 264h267v-264h-267v264z" />
    <glyph glyph-name="at" unicode="@" horiz-adv-x="2015" 
d="M546 -241q-205 107 -325.5 304t-120.5 457q0 253 115 461.5t324 329.5t477 121q271 0 476 -121.5t316 -324.5t111 -441q0 -161 -52.5 -303t-157.5 -230t-255 -88q-95 0 -160 36t-96 103q-18 44 -24 97q-62 -57 -138.5 -87t-154.5 -30q-109 0 -185 54.5t-113.5 146
t-37.5 200.5q0 140 59 284t169.5 238.5t256.5 94.5q90 0 156.5 -36.5t103.5 -98.5l19 86h196q-20 -102 -59 -263q-45 -185 -68.5 -305.5t-23.5 -207.5q0 -64 19.5 -88.5t74.5 -24.5q97 0 160 62.5t92 159.5t29 204q0 186 -86 345t-248 255t-377 96q-216 0 -381.5 -95.5
t-255.5 -260.5t-90 -365q0 -207 95.5 -360.5t257.5 -234.5t357 -81q66 0 123.5 10t118.5 29l68 -182q-74 -27 -150 -40t-162 -13q-248 0 -453 107zM1072.5 304q74.5 66 113.5 167t39 201q0 94 -40 144t-126 50q-102 0 -177 -65.5t-114 -165.5t-39 -199q0 -198 168 -198
q101 0 175.5 66z" />
    <glyph glyph-name="A" unicode="A" horiz-adv-x="1343" 
d="M578 1413h190l563 -1413h-274l-113 307h-541l-114 -307h-277zM864 524l-190 516l-191 -516h381z" />
    <glyph glyph-name="B" unicode="B" horiz-adv-x="1274" 
d="M182 1413h490q117 0 219.5 -38.5t167.5 -123.5t65 -219q0 -91 -46 -166t-111 -110q63 -25 115 -80t82 -125.5t30 -140.5q0 -127 -63.5 -220t-169.5 -141.5t-228 -48.5h-551v1413zM696 844q86 0 140.5 39t54.5 135q0 80 -60 123t-155 43h-240v-340h260zM737 242
q100 0 153.5 49t53.5 147q0 51 -27 93.5t-76 68t-114 25.5h-291v-383h301z" />
    <glyph glyph-name="C" unicode="C" horiz-adv-x="1432" 
d="M388 78q-154 98 -230 263.5t-76 365.5t75.5 365.5t229.5 264.5t377 99q211 0 372 -104.5t246 -301.5l-237 -94q-38 134 -137.5 196t-245.5 62q-144 0 -240 -63t-142 -170.5t-46 -243.5q0 -145 46 -256.5t143 -175.5t243 -64q140 0 233.5 61.5t149.5 200.5l235 -96
q-83 -197 -244.5 -302t-373.5 -105q-224 0 -378 98z" />
    <glyph glyph-name="D" unicode="D" horiz-adv-x="1409" 
d="M182 1413h410q239 0 403.5 -83.5t248 -243.5t83.5 -390q0 -220 -85.5 -376t-250.5 -238t-401 -82h-408v1413zM565 233q247 0 377.5 110t130.5 364q0 169 -49 272.5t-155 152t-281 48.5h-152v-947h129z" />
    <glyph glyph-name="E" unicode="E" horiz-adv-x="1245" 
d="M182 1413h940v-233h-686v-357h639v-233h-639v-350h686v-240h-940v1413z" />
    <glyph glyph-name="F" unicode="F" horiz-adv-x="1235" 
d="M182 1413h1002v-233h-748v-357h660v-233h-660v-590h-254v1413z" />
    <glyph glyph-name="G" unicode="G" horiz-adv-x="1534" 
d="M1407 764v-764h-201l-22 199q-58 -101 -168.5 -160t-249.5 -59q-224 0 -378 98t-230 263.5t-76 365.5q0 201 75.5 366t229 264t377.5 99q210 0 370.5 -104.5t245.5 -301.5l-225 -94q-47 140 -150 209t-243 69q-143 0 -239.5 -67.5t-142.5 -180t-46 -249.5q0 -146 46 -261
t143 -182t243 -67q111 0 196.5 40.5t135 119.5t53.5 192h-311v205h567z" />
    <glyph glyph-name="H" unicode="H" horiz-adv-x="1491" 
d="M182 1413h254v-590h619v590h254v-1413h-254v590h-619v-590h-254v1413z" />
    <glyph glyph-name="I" unicode="I" horiz-adv-x="618" 
d="M182 1413h254v-1413h-254v1413z" />
    <glyph glyph-name="J" unicode="J" horiz-adv-x="1139" 
d="M263.5 41.5q-104.5 61.5 -164 166.5t-68.5 232l250 29q8 -113 64 -183.5t163 -70.5q89 0 137.5 33.5t67 96t18.5 161.5v674h-532v233h786v-903q0 -242 -115.5 -386t-361.5 -144q-140 0 -244.5 61.5z" />
    <glyph glyph-name="K" unicode="K" horiz-adv-x="1491" 
d="M182 1413h254v-737l688 737h340l-565 -579l576 -834h-316l-436 664l-287 -297v-367h-254v1413z" />
    <glyph glyph-name="L" unicode="L" horiz-adv-x="1063" 
d="M182 1413h254v-1173h604v-240h-858v1413z" />
    <glyph glyph-name="M" unicode="M" horiz-adv-x="1798" 
d="M1616 1413v-1413h-244v1055l-350 -932h-246l-350 932v-1055h-244v1413h342l375 -1005l375 1005h342z" />
    <glyph glyph-name="N" unicode="N" horiz-adv-x="1454" 
d="M1272 1413v-1413h-254l-592 993v-993h-244v1413h252l594 -988v988h244z" />
    <glyph glyph-name="O" unicode="O" horiz-adv-x="1528" 
d="M386.5 78.5q-153.5 98.5 -229 263.5t-75.5 365t75.5 365t229 263.5t377.5 98.5t377.5 -98.5t229 -263.5t75.5 -365t-75.5 -365t-229 -263.5t-377.5 -98.5t-377.5 98.5zM1001.5 272.5q92.5 67.5 134.5 180.5t42 254t-42 253.5t-134.5 180t-237.5 67.5t-237.5 -67.5
t-134.5 -180t-42 -253.5t42 -254t134.5 -180.5t237.5 -67.5t237.5 67.5z" />
    <glyph glyph-name="P" unicode="P" horiz-adv-x="1167" 
d="M182 1413h443q145 0 258 -49.5t177 -144t64 -224.5q0 -129 -64 -221t-177 -140t-258 -48h-191v-586h-252v1413zM625 823q128 0 187.5 43t59.5 129q0 181 -247 181h-191v-353h191z" />
    <glyph glyph-name="Q" unicode="Q" horiz-adv-x="1565" 
d="M1151 84q-158 -104 -387 -104q-224 0 -377.5 98.5t-229 263.5t-75.5 365t75.5 365t229 263.5t377.5 98.5t377.5 -98.5t229 -263.5t75.5 -365q0 -134 -33.5 -254t-101.5 -215l168 -156l-156 -156zM969 252l-199 184l164 150l184 -172q60 123 60 293q0 141 -42 253.5
t-134.5 180t-237.5 67.5t-237.5 -67.5t-134.5 -180t-42 -253.5t42 -254t134.5 -180.5t237.5 -67.5q120 0 205 47z" />
    <glyph glyph-name="R" unicode="R" horiz-adv-x="1268" 
d="M182 1413h457q134 0 245.5 -49.5t177.5 -144t66 -222.5q0 -87 -35 -160.5t-97.5 -126.5t-143.5 -81l393 -629h-291l-348 604h-82h-88v-604h-254v1413zM662 811q101 4 158 53t57 129q0 88 -64 140.5t-172 52.5h-203v-375h224z" />
    <glyph glyph-name="S" unicode="S" horiz-adv-x="1137" 
d="M341.5 31q-115.5 47 -195 140.5t-101.5 227.5l252 64q13 -126 93.5 -190t199.5 -64q73 0 126 23.5t80 64.5t27 92q0 61 -37.5 104t-93.5 71t-154 67q-128 51 -207 94.5t-135.5 121.5t-56.5 197q0 121 59.5 209.5t160 134.5t221.5 46q136 0 248 -61.5t182 -186.5
l-211 -129q-37 72 -97 111.5t-131 39.5q-50 0 -90.5 -19t-64 -53.5t-23.5 -78.5q0 -54 35 -92t88.5 -64t146.5 -62q132 -51 214 -96t141 -126t59 -205q0 -130 -65.5 -227t-177.5 -149t-248 -52q-129 0 -244.5 47z" />
    <glyph glyph-name="T" unicode="T" horiz-adv-x="1180" 
d="M463 1186h-443v227h1139v-227h-442v-1186h-254v1186z" />
    <glyph glyph-name="U" unicode="U" horiz-adv-x="1380" 
d="M282.5 130.5q-132.5 150.5 -132.5 420.5v862h253v-833q0 -121 25.5 -197.5t88 -117t173.5 -40.5t174 40t88 117t25 198v833h254v-852q0 -277 -132.5 -429t-408.5 -152q-275 0 -407.5 150.5z" />
    <glyph glyph-name="V" unicode="V" horiz-adv-x="1343" 
d="M1331 1413l-563 -1413h-190l-566 1413h281l381 -1001l379 1001h278z" />
    <glyph glyph-name="W" unicode="W" horiz-adv-x="2003" 
d="M25 1413h264l301 -1040l313 958h197l313 -958l301 1040h264l-424 -1413h-245l-308 930l-307 -930h-245z" />
    <glyph glyph-name="X" unicode="X" horiz-adv-x="1343" 
d="M498 707l-471 706h303l342 -545l342 545h303l-471 -706l473 -707h-303l-346 537l-342 -537h-303z" />
    <glyph glyph-name="Y" unicode="Y" horiz-adv-x="1319" 
d="M528 551l-530 862h307l352 -618l355 618h309l-528 -862v-551h-265v551z" />
    <glyph glyph-name="Z" unicode="Z" horiz-adv-x="1272" 
d="M1198 1229l-785 -1000h785v-229h-1139v176l788 1004h-743v233h1094v-184z" />
    <glyph glyph-name="bracketleft" unicode="[" horiz-adv-x="641" 
d="M176 1573h432v-162h-235v-1411h235v-164h-432v1737z" />
    <glyph glyph-name="backslash" unicode="\" horiz-adv-x="934" 
d="M-37 1516h227l781 -1946h-228z" />
    <glyph glyph-name="bracketright" unicode="]" horiz-adv-x="641" 
d="M33 -164v164h235v1411h-235v162h432v-1737h-432z" />
    <glyph glyph-name="asciicircum" unicode="^" horiz-adv-x="1231" 
d="M614 1497l568 -1077h-258l-310 620l-307 -620h-258z" />
    <glyph glyph-name="underscore" unicode="_" horiz-adv-x="1133" 
d="M141 0h850v-184h-850v184z" />
    <glyph glyph-name="grave" unicode="`" horiz-adv-x="532" 
d="M14 1413h260l226 -309h-178z" />
    <glyph glyph-name="a" unicode="a" horiz-adv-x="1055" 
d="M739.5 968q97.5 -52 149 -146t51.5 -216v-606h-201l-15 134q-46 -74 -133.5 -114t-178.5 -40q-103 0 -185.5 38.5t-130 112.5t-47.5 176q0 153 107.5 221t289.5 68h272q-3 77 -22 122.5t-63 67t-123 21.5q-80 0 -140 -40t-96 -101l-186 135q77 105 178.5 162t241.5 57
q134 0 231.5 -52zM589 217q56 31 89 82.5t41 112.5v8h-258q-79 0 -120.5 -35t-41.5 -86t41.5 -82t120.5 -31q72 0 128 31z" />
    <glyph glyph-name="b" unicode="b" horiz-adv-x="1176" 
d="M524.5 9.5q-75.5 29.5 -125.5 90.5v-100h-252v1413h252v-514q50 62 123 91.5t158 29.5q136 0 233.5 -70.5t148 -189t50.5 -260.5q0 -141 -50.5 -260t-147 -189.5t-230.5 -70.5q-84 0 -159.5 29.5zM805 286.5q61 81.5 61 213.5t-61.5 215.5t-181.5 83.5q-121 0 -183.5 -83
t-62.5 -216q0 -132 62.5 -213.5t183.5 -81.5t182 81.5z" />
    <glyph glyph-name="c" unicode="c" horiz-adv-x="1004" 
d="M275.5 52q-109.5 72 -164 190.5t-54.5 255.5q0 136 54.5 255.5t163 193t264.5 73.5q152 0 264 -74.5t168 -220.5l-232 -90q-20 74 -73.5 119t-126.5 45q-80 0 -132.5 -42.5t-77 -111t-24.5 -147.5q0 -81 24 -148t76.5 -108t133.5 -41q72 0 126 43.5t74 115.5l222 -84
q-50 -140 -161 -218t-259 -78q-156 0 -265.5 72z" />
    <glyph glyph-name="d" unicode="d" horiz-adv-x="1171" 
d="M262 50.5q-98 70.5 -148.5 189t-50.5 260.5q0 141 50.5 259.5t147.5 189.5t231 71q84 0 159.5 -30t124.5 -91v514h248v-1413h-227l-11 113q-49 -68 -125.5 -100.5t-164.5 -32.5q-136 0 -234 70.5zM736.5 283q60.5 82 60.5 217q0 134 -61 216.5t-181 82.5t-182 -83.5
t-62 -215.5q0 -133 61.5 -216t182.5 -83t181.5 82z" />
    <glyph glyph-name="e" unicode="e" horiz-adv-x="1069" 
d="M284 51q-114 71 -170.5 188.5t-56.5 256.5q0 136 54 256t164.5 194t271.5 74q164 0 268 -75.5t149.5 -190t45.5 -238.5q0 -30 -2.5 -57.5t-6.5 -38.5h-686q35 -219 250 -219q71 0 130 25t110 81l168 -147q-82 -91 -183 -135.5t-227 -44.5q-165 0 -279 71zM770 596
q0 36 -8 63q-18 75 -76.5 115.5t-140.5 40.5q-190 0 -230 -219h455z" />
    <glyph glyph-name="f" unicode="f" horiz-adv-x="688" 
d="M203 795h-183v204h185v134q0 94 43.5 162t116.5 103.5t159 35.5q89 0 181 -41l-80 -201q-41 25 -78 25q-40 0 -66 -27t-26 -82v-109h233v-204h-233v-795h-252v795z" />
    <glyph glyph-name="g" unicode="g" horiz-adv-x="1051" 
d="M803.5 114.5q81.5 -25.5 135.5 -86t54 -167.5q0 -109 -57.5 -184.5t-157.5 -112.5t-227 -37q-153 0 -261 45.5t-163 126t-55 184.5q0 23 4 43l116 98q-98 66 -98 195q0 64 23.5 114t69.5 90q-40 48 -61.5 106.5t-21.5 123.5q0 106 56 189.5t150 130.5t204 47
q65 0 125 -16.5t111 -47.5l153 131l127 -155l-145 -117q43 -77 43 -174q0 -108 -55 -191t-148 -128.5t-203 -45.5q-101 0 -190 39q-29 -19 -29 -53t27.5 -52.5t73 -27t135.5 -18.5q18 -3 34.5 -4.5t30.5 -3.5q118 -16 199.5 -41.5zM400 781.5q-44 -49.5 -44 -130.5
q0 -79 43.5 -127.5t122.5 -48.5t121.5 48.5t42.5 127.5q0 81 -43 130.5t-121 49.5t-122 -49.5zM705 -255q57 30 57 89q0 37 -25.5 58t-76 32.5t-142.5 20.5q-9 1 -65 6t-110 16l-54 -90l6 -27q21 -71 88.5 -103t165.5 -32q99 0 156 30z" />
    <glyph glyph-name="h" unicode="h" horiz-adv-x="1169" 
d="M147 1413h248v-530q57 70 133.5 103.5t155.5 33.5q125 0 208 -59t122 -154.5t39 -206.5v-600h-248v569q0 106 -39 168t-141 62q-113 0 -171.5 -81t-58.5 -212v-506h-248v1413z" />
    <glyph glyph-name="i" unicode="i" horiz-adv-x="535" 
d="M139 1413h256v-225h-256v225zM145 999h244v-999h-244v999z" />
    <glyph glyph-name="j" unicode="j" horiz-adv-x="543" 
d="M143 1413h258v-225h-258v225zM12 -428.5q-49 9.5 -82 22.5l62 211q55 -22 88 -22q70 0 70 94v1122h245v-1103q0 -95 -31.5 -170.5t-97 -119.5t-162.5 -44q-43 0 -92 9.5z" />
    <glyph glyph-name="k" unicode="k" horiz-adv-x="1118" 
d="M147 1413h244v-829l377 415h317l-374 -387l415 -612h-288l-293 463l-154 -170v-293h-244v1413z" />
    <glyph glyph-name="l" unicode="l" horiz-adv-x="573" 
d="M195 28.5q-56 48.5 -56 170.5v1214h244v-1147q0 -67 80 -67q28 0 67 6v-205q-102 -20 -182 -20q-97 0 -153 48.5z" />
    <glyph glyph-name="m" unicode="m" horiz-adv-x="1741" 
d="M145 999h236v-125q46 78 116 112t154 34q95 0 174.5 -41.5t120.5 -134.5q57 92 140 134t180 42q121 0 201.5 -59t118.5 -154.5t38 -206.5v-600h-244v569q0 224 -163 224q-64 0 -111.5 -32.5t-72.5 -88.5t-25 -123v-549h-244v573q0 220 -162 220q-65 0 -112.5 -32.5
t-73 -88.5t-25.5 -123v-549h-244z" />
    <glyph glyph-name="n" unicode="n" horiz-adv-x="1163" 
d="M145 999h244v-116q57 69 135 103t158 34q124 0 206 -59t120.5 -154.5t38.5 -206.5v-600h-244v569q0 101 -50 163.5t-141 62.5q-106 0 -164.5 -60.5t-58.5 -187.5v-547h-244v999z" />
    <glyph glyph-name="o" unicode="o" horiz-adv-x="1130" 
d="M298 50.5q-117 70.5 -181 190t-64 261.5q0 141 64 259.5t181 188.5t267 70t267 -70t181 -188.5t64 -259.5q0 -142 -64 -261.5t-181 -190t-267 -70.5t-267 70.5zM711 232.5q58 42.5 85 113t27 156.5q0 134 -63.5 220.5t-194.5 86.5q-88 0 -146 -41.5t-85 -110.5t-27 -155
t27 -156.5t85 -113t146 -42.5t146 42.5z" />
    <glyph glyph-name="p" unicode="p" horiz-adv-x="1176" 
d="M147 999h252v-100q50 61 125.5 91t159.5 30q134 0 230.5 -71t147 -189.5t50.5 -259.5q0 -142 -50.5 -260.5t-148 -189t-233.5 -70.5q-85 0 -158 29t-123 91v-514h-252v1413zM804.5 284.5q61.5 83.5 61.5 215.5t-61 213.5t-182 81.5t-183.5 -81.5t-62.5 -213.5
q0 -133 62.5 -216t183.5 -83q120 0 181.5 83.5z" />
    <glyph glyph-name="q" unicode="q" horiz-adv-x="1176" 
d="M777 -414v514q-50 -62 -123 -91t-158 -29q-136 0 -233.5 70.5t-148 189t-50.5 260.5q0 141 50.5 259.5t147 189.5t230.5 71q84 0 159.5 -30t125.5 -91v100h252v-1413h-252zM736.5 284q62.5 83 62.5 216q0 132 -62.5 213.5t-183.5 81.5t-182 -81.5t-61 -213.5t61.5 -215.5
t181.5 -83.5q121 0 183.5 83z" />
    <glyph glyph-name="r" unicode="r" horiz-adv-x="815" 
d="M145 999h238v-168q31 88 106 138.5t162 50.5q51 0 99.5 -18t83.5 -54l-111 -200q-51 34 -109 34q-60 0 -113.5 -38.5t-86.5 -119.5t-33 -202v-422h-236v999z" />
    <glyph glyph-name="s" unicode="s" horiz-adv-x="909" 
d="M257.5 17.5q-86.5 37.5 -146 101t-84.5 141.5l194 86q26 -70 75 -117t138 -47q53 0 89.5 18t54.5 45.5t18 55.5q0 32 -23.5 53t-58.5 33.5t-101 29.5q-99 26 -162.5 53t-110 84.5t-46.5 154.5q0 101 51 171t135.5 105t184.5 35q127 0 224 -57t155 -160l-189 -103
q-31 56 -77.5 91.5t-120.5 35.5q-58 0 -93.5 -25t-35.5 -61q0 -28 22 -47t55.5 -31t94.5 -30q103 -29 170 -59.5t116.5 -93.5t49.5 -167q0 -110 -56 -185t-145 -111.5t-189 -36.5q-102 0 -188.5 37.5z" />
    <glyph glyph-name="t" unicode="t" horiz-adv-x="754" 
d="M331 16q-70 36 -107.5 102.5t-37.5 157.5v519h-161v204h165v248l240 174v-422h250v-204h-250v-476q0 -68 29.5 -96t81.5 -28q35 0 72 10.5t67 25.5v-221q-32 -12 -81.5 -21t-100.5 -9q-97 0 -167 36z" />
    <glyph glyph-name="u" unicode="u" horiz-adv-x="1161" 
d="M273.5 39q-81.5 59 -119 154t-37.5 206v600h241v-569q0 -101 50 -163t141 -62q107 0 166 61t59 187v546h242v-999h-242v117q-56 -70 -135 -103.5t-160 -33.5q-124 0 -205.5 59z" />
    <glyph glyph-name="v" unicode="v" horiz-adv-x="999" 
d="M-8 999h266l242 -684l243 684h265l-408 -999h-201z" />
    <glyph glyph-name="w" unicode="w" horiz-adv-x="1466" 
d="M10 999h260l170 -626l189 626h209l188 -624l172 624h260l-309 -999h-219l-197 655l-196 -655h-220z" />
    <glyph glyph-name="x" unicode="x" horiz-adv-x="1030" 
d="M352 504l-342 495h297l207 -329l207 329h299l-344 -495l344 -504h-299l-207 336l-207 -336h-297z" />
    <glyph glyph-name="y" unicode="y" horiz-adv-x="1032" 
d="M385 27l-391 972h268l252 -694l256 694h268l-571 -1429h-266z" />
    <glyph glyph-name="z" unicode="z" horiz-adv-x="1004" 
d="M934 825l-542 -620h542v-205h-881v162l565 633h-536v204h852v-174z" />
    <glyph glyph-name="braceleft" unicode="{" horiz-adv-x="618" 
d="M241 -80.5q-57 75.5 -57 207.5v299q0 57 -18.5 89.5t-43.5 47t-69 31.5v160q43 16 68.5 30.5t44 47.5t18.5 90v299q0 133 58.5 207.5t165.5 74.5h157v-157h-73q-101 0 -101 -129v-299q0 -98 -36.5 -153t-104.5 -85v-12q69 -32 105 -86.5t36 -151.5v-299q0 -129 101 -129
h73v-158h-157q-110 0 -167 75.5z" />
    <glyph glyph-name="bar" unicode="|" horiz-adv-x="623" 
d="M221 1534h180v-2046h-180v2046z" />
    <glyph glyph-name="braceright" unicode="}" horiz-adv-x="618" 
d="M53 -156v158h73q101 0 101 129v299q0 97 36 151.5t105 86.5v12q-68 30 -104.5 85t-36.5 153v299q0 129 -101 129h-73v157h157q107 0 165.5 -74.5t58.5 -207.5v-299q0 -57 18.5 -90t44 -47.5t68.5 -30.5v-160q-44 -17 -69 -31.5t-43.5 -47t-18.5 -89.5v-299
q0 -132 -57 -207.5t-167 -75.5h-157z" />
    <glyph glyph-name="asciitilde" unicode="~" horiz-adv-x="1223" 
d="M680 352q-44 20 -70 47.5t-57 71.5q-23 32 -38 49.5t-35.5 29t-47.5 11.5q-42 0 -66 -46.5t-24 -125.5h-184q0 100 34 176t96 118t144 42q67 0 113 -21t73.5 -49.5t58.5 -73.5q30 -44 53.5 -64.5t57.5 -20.5q42 0 68.5 55t26.5 139h184q0 -105 -35 -186t-98 -126.5
t-146 -45.5q-64 0 -108 20z" />
    <glyph glyph-name="uni00A0" unicode="&#xa0;" horiz-adv-x="563" 
 />
    <glyph glyph-name="exclamdown" unicode="&#xa1;" horiz-adv-x="635" 
d="M451 1413v-264h-267v264h267zM410 985l28 -985h-241l28 985h185z" />
    <glyph glyph-name="cent" unicode="&#xa2;" horiz-adv-x="1118" 
d="M516 -14q-131 18 -222.5 92.5t-137 184.5t-45.5 235t45.5 236t137 187t222.5 95v184h123v-182q134 -11 233.5 -85t151.5 -208l-231 -90q-18 61 -58 103t-96 55v-586q56 12 96 53t58 100l221 -84q-46 -129 -144.5 -205.5t-230.5 -88.5v-193l-123 -2v199zM516 786
q-80 -27 -119 -106.5t-39 -181.5q0 -103 39 -181t119 -104v573z" />
    <glyph glyph-name="sterling" unicode="&#xa3;" horiz-adv-x="1200" 
d="M1178 205v-205h-1041v207q64 27 120.5 70t91 94.5t34.5 103.5q0 28 -6 64.5t-15 64.5h-221v205h172q-14 36 -25.5 99t-11.5 128q0 115 50.5 208t148 147.5t232.5 54.5q97 0 178.5 -41.5t139 -112t87.5 -157.5l-190 -70q-31 83 -87 129.5t-128 46.5q-109 0 -167.5 -52
t-58.5 -157q0 -57 12.5 -118.5t30.5 -104.5h477v-205h-430q13 -58 13 -125q0 -89 -31.5 -157.5t-88.5 -116.5h714z" />
    <glyph glyph-name="currency" unicode="&#xa4;" horiz-adv-x="1348" 
d="M174 264l107 105q-40 57 -60.5 124t-20.5 136q0 71 20.5 138.5t60.5 125.5l-105 102l129 135l107 -108q58 41 126.5 61.5t139.5 20.5q69 0 135 -20t123 -60l106 104l132 -129l-107 -104q41 -58 61.5 -126t20.5 -138q0 -71 -20.5 -138t-61.5 -126l107 -103l-130 -135
l-108 109q-58 -40 -125.5 -61t-137.5 -21q-69 0 -136.5 21t-126.5 61l-107 -109zM562.5 360.5q53.5 -22.5 110.5 -22.5q56 0 110 22.5t96 65.5t63.5 96.5t21.5 110.5q0 56 -21.5 109t-63.5 94t-95 62.5t-110 21.5t-110.5 -22t-96.5 -64q-41 -42 -62.5 -96t-21.5 -111
q0 -56 21 -108.5t61 -92.5q44 -43 97.5 -65.5z" />
    <glyph glyph-name="yen" unicode="&#xa5;" horiz-adv-x="1425" 
d="M582 211h-316v197h316v133h-316v196h201l-416 676h307l353 -618l354 618h309l-413 -676h196v-196h-311v-133h311v-197h-311v-211h-264v211z" />
    <glyph glyph-name="brokenbar" unicode="&#xa6;" horiz-adv-x="643" 
d="M221 1475h201v-744h-201v744zM221 420h201v-727h-201v727z" />
    <glyph glyph-name="section" unicode="&#xa7;" horiz-adv-x="1112" 
d="M364.5 13q-92.5 31 -157 97.5t-84.5 165.5l233 70q20 -89 73.5 -128.5t148.5 -39.5q85 0 137.5 28.5t52.5 84.5q0 42 -30.5 68.5t-77 41.5t-128.5 33q-115 26 -187 53t-123.5 84.5t-51.5 155.5q0 62 22.5 112t63.5 95q-84 76 -84 190q0 97 55 167.5t144 106.5t190 36
q87 0 163.5 -25.5t132 -69t83.5 -96.5l-195 -113q-18 53 -68 84t-124 31q-57 0 -97.5 -18t-60.5 -47t-20 -60q0 -38 29 -61t73 -36.5t121 -29.5q118 -26 192.5 -53t128.5 -87.5t54 -164.5q0 -118 -80 -205q80 -74 80 -192q0 -106 -59.5 -175t-153 -101.5t-199.5 -32.5
q-104 0 -196.5 31zM746 614.5q22 29.5 22 67.5q0 49 -35 80t-88.5 48t-152.5 40l-35 8q-41 -19 -61.5 -54t-20.5 -69q0 -44 34 -72t85.5 -44.5t143.5 -37.5q34 -7 46 -10q40 14 62 43.5z" />
    <glyph glyph-name="dieresis" unicode="&#xa8;" horiz-adv-x="883" 
d="M141 1413h205v-225h-205v225zM537 1413h204v-225h-204v225z" />
    <glyph glyph-name="copyright" unicode="&#xa9;" horiz-adv-x="1686" 
d="M461.5 69.5q-174.5 98.5 -277 267.5t-102.5 370q0 200 102.5 369t277 267.5t382.5 98.5q207 0 381.5 -98.5t276.5 -267.5t102 -369q0 -201 -102 -370t-276.5 -267.5t-381.5 -98.5q-208 0 -382.5 98.5zM1149 203q140 78 221.5 212t81.5 292t-82 291.5t-221.5 211.5
t-304.5 78q-166 0 -306.5 -78t-222.5 -211.5t-82 -291.5t82 -292t222.5 -212t306.5 -78q165 0 305 78zM646 338.5q-90 59.5 -134.5 156.5t-44.5 210q0 112 44.5 210t133.5 158t217 60q126 0 218 -60.5t139 -181.5l-191 -74q-17 60 -61.5 97.5t-104.5 37.5q-65 0 -108 -35
t-63.5 -91t-20.5 -121q0 -104 47.5 -174t144.5 -70q61 0 105 36t61 95l180 -70q-40 -115 -130.5 -179t-213.5 -64q-128 0 -218 59.5z" />
    <glyph glyph-name="ordfeminine" unicode="&#xaa;" horiz-adv-x="954" 
d="M270 736q-57 27 -91 77t-34 115q0 111 77 165t202 54h194q0 30 -6 51q-12 50 -48 75t-101 25q-104 0 -178 -106l-119 80q63 86 133 124t168 38q92 0 158.5 -35.5t101.5 -100t35 -149.5v-426h-133l-4 84q-46 -51 -102.5 -74.5t-129.5 -23.5q-66 0 -123 27zM524 876
q48 30 74 76q17 33 20 62h-184q-60 0 -94.5 -23t-34.5 -63q0 -33 36 -57.5t79 -24.5q56 0 104 30z" />
    <glyph glyph-name="guillemotleft" unicode="&#xab;" horiz-adv-x="1028" 
d="M20 510l428 356v-211l-180 -145l180 -143v-211zM455 510l428 356v-211l-181 -145l181 -143v-211z" />
    <glyph glyph-name="logicalnot" unicode="&#xac;" horiz-adv-x="1300" 
d="M850 580h-715v217h948v-506h-233v289z" />
    <glyph glyph-name="uni00AD" unicode="&#xad;" horiz-adv-x="1010" 
d="M141 692h727v-184h-727v184z" />
    <glyph glyph-name="registered" unicode="&#xae;" horiz-adv-x="1686" 
d="M461.5 69.5q-174.5 98.5 -277 267.5t-102.5 370q0 200 102.5 369t277 267.5t382.5 98.5q207 0 381.5 -98.5t276.5 -267.5t102 -369q0 -201 -102 -370t-276.5 -267.5t-381.5 -98.5q-208 0 -382.5 98.5zM1149 203q140 78 221.5 212t81.5 292t-82 291.5t-221.5 211.5
t-304.5 78q-166 0 -306.5 -78t-222.5 -211.5t-82 -291.5t82 -292t222.5 -212t306.5 -78q165 0 305 78zM590 1124h270q85 0 151.5 -31t104 -87t37.5 -129q0 -74 -42.5 -132t-115.5 -86l230 -370h-185l-202 354h-43h-45v-354h-160v835zM874 774q56 3 87.5 30t31.5 70
q0 50 -35 78.5t-96 28.5h-112v-207h124z" />
    <glyph glyph-name="macron" unicode="&#xaf;" horiz-adv-x="838" 
d="M139 1290h559v-143h-559v143z" />
    <glyph glyph-name="degree" unicode="&#xb0;" horiz-adv-x="877" 
d="M292.5 887.5q-67.5 39.5 -107.5 107t-40 146.5t40 146.5t107.5 107t145.5 39.5q80 0 147 -39.5t106.5 -106.5t39.5 -147t-39.5 -147t-106.5 -106.5t-147 -39.5q-78 0 -145.5 39.5zM531 1049.5q38 37.5 38 91.5q0 35 -17.5 64.5t-47.5 47t-66 17.5q-35 0 -64.5 -17.5
t-47 -47t-17.5 -64.5t17.5 -65t47 -47t64.5 -17q55 0 93 37.5z" />
    <glyph glyph-name="plusminus" unicode="&#xb1;" horiz-adv-x="1319" 
d="M567 614h-456v185h456v426h185v-426h456v-185h-456v-426h-185v426zM111 0h1097v-184h-1097v184z" />
    <glyph glyph-name="uni00B2" unicode="&#xb2;" horiz-adv-x="713" 
d="M670 1146v-147h-647v127q175 104 308.5 222t133.5 249q0 50 -27.5 82.5t-83.5 32.5q-72 0 -103.5 -52t-35.5 -126l-160 12q0 79 36 151.5t104 117t159 44.5q79 0 141.5 -31t98 -91t35.5 -144q0 -85 -49.5 -172t-127 -159t-158.5 -116h376z" />
    <glyph glyph-name="uni00B3" unicode="&#xb3;" horiz-adv-x="700" 
d="M181 1014.5q-72 31.5 -115 95.5t-43 155l155 11q0 -68 46 -106t118 -38q67 0 113.5 32.5t46.5 98.5q0 75 -55.5 99t-143.5 24v107q64 0 97 12.5t44 32.5t11 49q0 63 -31.5 90t-81.5 27q-56 0 -90 -30.5t-35 -82.5l-154 10q0 78 37 136t100 88t138 30q72 0 135 -28
t101 -81t38 -124q0 -52 -21.5 -94t-78.5 -72q77 -22 111 -79t34 -130q0 -85 -43.5 -144.5t-115.5 -89.5t-158 -30q-87 0 -159 31.5z" />
    <glyph glyph-name="acute" unicode="&#xb4;" horiz-adv-x="537" 
d="M258 1413h260l-307 -289h-178z" />
    <glyph glyph-name="uni00B5" unicode="&#xb5;" horiz-adv-x="1298" 
d="M219 999h242v-569q0 -101 49.5 -163t140.5 -62q107 0 166.5 61t59.5 187v546h241v-999h-241v117q-56 -70 -135.5 -103.5t-159.5 -33.5q-96 0 -166 34v-342h-197v1327z" />
    <glyph glyph-name="paragraph" unicode="&#xb6;" horiz-adv-x="1303" 
d="M518 623q-119 0 -222.5 47.5t-166.5 137.5t-63 210t63 210t166.5 137.5t222.5 47.5h170v-1659h-170v869zM909 1413h172v-1659h-172v1659z" />
    <glyph glyph-name="periodcentered" unicode="&#xb7;" horiz-adv-x="616" 
d="M232.5 610q-33.5 20 -53 54t-19.5 75q0 40 19.5 74t53.5 54t74 20q41 0 75 -19.5t54.5 -53.5t20.5 -75q0 -40 -20 -74.5t-54.5 -54.5t-75.5 -20t-74.5 20z" />
    <glyph glyph-name="cedilla" unicode="&#xb8;" horiz-adv-x="569" 
d="M130 -482.5q-57 39.5 -73 120.5l133 55q9 -32 29.5 -54t50.5 -22q35 0 57.5 22t22.5 56q0 48 -46.5 79t-121.5 31h-69l123 193h143l-76 -98q32 -3 55 -13q66 -21 101 -68.5t35 -115.5q0 -63 -30 -114.5t-83 -81t-117 -29.5q-77 0 -134 39.5z" />
    <glyph glyph-name="uni00B9" unicode="&#xb9;" horiz-adv-x="463" 
d="M346 1847v-848h-162v592h-194v125h108q95 0 95 84v47h153z" />
    <glyph glyph-name="ordmasculine" unicode="&#xba;" horiz-adv-x="991" 
d="M310 759.5q-82 48.5 -127.5 131.5t-45.5 182q0 98 45.5 181t127.5 131.5t186 48.5q103 0 184 -48.5t126.5 -131.5t45.5 -181q0 -99 -45.5 -182t-126.5 -131.5t-184 -48.5q-104 0 -186 48.5zM638 915.5q46 59.5 46 157.5t-46 157.5t-142 59.5q-98 0 -144.5 -59.5
t-46.5 -157.5t46.5 -157.5t144.5 -59.5q96 0 142 59.5z" />
    <glyph glyph-name="guillemotright" unicode="&#xbb;" horiz-adv-x="1028" 
d="M145 367l181 143l-181 145v211l428 -356l-428 -354v211zM580 367l180 143l-180 145v211l428 -356l-428 -354v211z" />
    <glyph glyph-name="onequarter" unicode="&#xbc;" horiz-adv-x="1477" 
d="M346 1421v-848h-162v592h-194v125h108q95 0 95 84v47h153zM967 1413h172l-852 -1413h-172zM1455 348v-149h-134v-199h-161v199h-387v94l411 555h137v-500h134zM1160 348v249l-176 -249h176z" />
    <glyph glyph-name="onehalf" unicode="&#xbd;" horiz-adv-x="1503" 
d="M346 1421v-848h-162v592h-194v125h108q95 0 95 84v47h153zM967 1413h172l-852 -1413h-172zM1461 147v-147h-647v127q175 104 308.5 222t133.5 249q0 50 -27.5 82.5t-83.5 32.5q-72 0 -103.5 -52t-35.5 -126l-160 12q0 79 36 151.5t104 117t159 44.5q79 0 141.5 -31
t98 -91t35.5 -144q0 -85 -49.5 -172t-127 -159t-158.5 -116h376z" />
    <glyph glyph-name="threequarters" unicode="&#xbe;" horiz-adv-x="1714" 
d="M181 592.5q-72 31.5 -115 95.5t-43 155l155 11q0 -68 46 -106t118 -38q67 0 113.5 32.5t46.5 98.5q0 75 -55.5 99t-143.5 24v107q64 0 97 12.5t44 32.5t11 49q0 63 -31.5 90t-81.5 27q-56 0 -90 -30.5t-35 -82.5l-154 10q0 78 37 136t100 88t138 30q72 0 135 -28t101 -81
t38 -124q0 -52 -21.5 -94t-78.5 -72q77 -22 111 -79t34 -130q0 -85 -43.5 -144.5t-115.5 -89.5t-158 -30q-87 0 -159 31.5zM1204 1413h172l-852 -1413h-172zM1692 348v-149h-134v-199h-161v199h-387v94l411 555h137v-500h134zM1397 348v249l-176 -249h176z" />
    <glyph glyph-name="questiondown" unicode="&#xbf;" horiz-adv-x="997" 
d="M637 1149h-267v264h267v-264zM610 844q0 -83 -26 -136.5t-63.5 -82.5t-98.5 -62q-50 -27 -78.5 -48t-48 -55t-19.5 -85q0 -97 62 -145t170 -48q118 0 173.5 61t55.5 179h215q0 -138 -54 -238t-152.5 -152.5t-229.5 -52.5q-124 0 -227 46.5t-164.5 137t-61.5 216.5
q0 104 34 172.5t80 105t115 74.5q58 32 84.5 55.5t26.5 59.5v143h207v-145z" />
    <glyph glyph-name="Agrave" unicode="&#xc0;" horiz-adv-x="1343" 
d="M578 1413h190l563 -1413h-274l-113 307h-541l-114 -307h-277zM864 524l-190 516l-191 -516h381zM299 1827h260l226 -309h-178z" />
    <glyph glyph-name="Aacute" unicode="&#xc1;" horiz-adv-x="1343" 
d="M578 1413h190l563 -1413h-274l-113 307h-541l-114 -307h-277zM864 524l-190 516l-191 -516h381zM778 1827h260l-307 -289h-178z" />
    <glyph glyph-name="Acircumflex" unicode="&#xc2;" horiz-adv-x="1343" 
d="M578 1413h190l563 -1413h-274l-113 307h-541l-114 -307h-277zM864 524l-190 516l-191 -516h381zM670 1864l317 -352h-188l-129 145l-127 -145h-189z" />
    <glyph glyph-name="Atilde" unicode="&#xc3;" horiz-adv-x="1343" 
d="M578 1413h190l563 -1413h-274l-113 307h-541l-114 -307h-277zM864 524l-190 516l-191 -516h381zM723 1532.5q-33 13.5 -55 31.5t-49 47q-26 27 -43 39.5t-37 12.5q-31 0 -48 -35.5t-17 -101.5h-140q0 137 57 211.5t156 74.5q56 0 93.5 -23.5t79.5 -65.5q29 -28 45.5 -40
t35.5 -12q27 0 44.5 35.5t17.5 99.5h145q0 -137 -55.5 -212t-153.5 -75q-43 0 -76 13.5z" />
    <glyph glyph-name="Adieresis" unicode="&#xc4;" horiz-adv-x="1343" 
d="M578 1413h190l563 -1413h-274l-113 307h-541l-114 -307h-277zM864 524l-190 516l-191 -516h381zM370 1827h205v-225h-205v225zM766 1827h204v-225h-204v225z" />
    <glyph glyph-name="Aring" unicode="&#xc5;" horiz-adv-x="1343" 
d="M578 1413h190l563 -1413h-274l-113 307h-541l-114 -307h-277zM864 524l-190 516l-191 -516h381zM553.5 1514.5q-52.5 31.5 -83 85t-30.5 114.5q0 63 30.5 115.5t83.5 83.5t115 31t115.5 -30.5t85 -83t31.5 -116.5q0 -63 -31 -116t-84 -84t-117 -31q-63 0 -115.5 31.5z
M742 1643q28 29 28 74q0 42 -27 69t-74 27q-44 0 -71 -27t-27 -69q0 -45 28 -74t70 -29q45 0 73 29z" />
    <glyph glyph-name="AE" unicode="&#xc6;" horiz-adv-x="1901" 
d="M571 1413h1207v-223h-707v-377h619v-213h-619v-371h707v-229h-961v307h-418l-110 -307h-277zM817 504v696h-88l-250 -696h338z" />
    <glyph glyph-name="Ccedilla" unicode="&#xc7;" horiz-adv-x="1432" 
d="M1169 105.5q-140 -103.5 -324 -121.5l-65 -84q32 -3 55 -13q66 -21 101 -68.5t35 -115.5q0 -63 -30 -114.5t-83 -81t-117 -29.5q-77 0 -134 39.5t-73 120.5l133 55q9 -32 29.5 -54t50.5 -22q35 0 57.5 22t22.5 56q0 48 -46.5 79t-121.5 31h-69l113 177q-203 14 -343 115
t-209 260t-69 350q0 200 75.5 365.5t229.5 264.5t377 99q211 0 372 -104.5t246 -301.5l-237 -94q-38 134 -137.5 196t-245.5 62q-144 0 -240 -63t-142 -170.5t-46 -243.5q0 -145 46 -256.5t143 -175.5t243 -64q140 0 233.5 61.5t149.5 200.5l235 -96q-75 -178 -215 -281.5z
" />
    <glyph glyph-name="Egrave" unicode="&#xc8;" horiz-adv-x="1245" 
d="M182 1413h940v-233h-686v-357h639v-233h-639v-350h686v-240h-940v1413zM280 1827h260l226 -309h-178z" />
    <glyph glyph-name="Eacute" unicode="&#xc9;" horiz-adv-x="1245" 
d="M182 1413h940v-233h-686v-357h639v-233h-639v-350h686v-240h-940v1413zM760 1827h260l-307 -289h-178z" />
    <glyph glyph-name="Ecircumflex" unicode="&#xca;" horiz-adv-x="1245" 
d="M182 1413h940v-233h-686v-357h639v-233h-639v-350h686v-240h-940v1413zM652 1864l317 -352h-188l-129 145l-127 -145h-189z" />
    <glyph glyph-name="Edieresis" unicode="&#xcb;" horiz-adv-x="1245" 
d="M182 1413h940v-233h-686v-357h639v-233h-639v-350h686v-240h-940v1413zM352 1827h205v-225h-205v225zM748 1827h204v-225h-204v225z" />
    <glyph glyph-name="Igrave" unicode="&#xcc;" horiz-adv-x="618" 
d="M182 1413h254v-1413h-254v1413zM-64 1827h260l226 -309h-178z" />
    <glyph glyph-name="Iacute" unicode="&#xcd;" horiz-adv-x="618" 
d="M182 1413h254v-1413h-254v1413zM416 1827h260l-307 -289h-178z" />
    <glyph glyph-name="Icircumflex" unicode="&#xce;" horiz-adv-x="618" 
d="M182 1413h254v-1413h-254v1413zM308 1864l317 -352h-188l-129 145l-127 -145h-189z" />
    <glyph glyph-name="Idieresis" unicode="&#xcf;" horiz-adv-x="618" 
d="M182 1413h254v-1413h-254v1413zM8 1827h205v-225h-205v225zM404 1827h204v-225h-204v225z" />
    <glyph glyph-name="Eth" unicode="&#xd0;" horiz-adv-x="1409" 
d="M995.5 1329.5q164.5 -83.5 248 -243.5t83.5 -390q0 -220 -85.5 -376t-250.5 -238t-401 -82h-408v625h-145v164h145v624h410q239 0 403.5 -83.5zM942.5 343q130.5 110 130.5 364q0 169 -49 272.5t-155 152t-281 48.5h-152v-391h236v-164h-236v-392h129q247 0 377.5 110z
" />
    <glyph glyph-name="Ntilde" unicode="&#xd1;" horiz-adv-x="1454" 
d="M1272 1413v-1413h-254l-592 993v-993h-244v1413h252l594 -988v988h244zM778 1532.5q-33 13.5 -55 31.5t-49 47q-26 27 -43 39.5t-37 12.5q-31 0 -48 -35.5t-17 -101.5h-140q0 137 57 211.5t156 74.5q56 0 93.5 -23.5t79.5 -65.5q29 -28 45.5 -40t35.5 -12q27 0 44.5 35.5
t17.5 99.5h145q0 -137 -55.5 -212t-153.5 -75q-43 0 -76 13.5z" />
    <glyph glyph-name="Ograve" unicode="&#xd2;" horiz-adv-x="1528" 
d="M386.5 78.5q-153.5 98.5 -229 263.5t-75.5 365t75.5 365t229 263.5t377.5 98.5t377.5 -98.5t229 -263.5t75.5 -365t-75.5 -365t-229 -263.5t-377.5 -98.5t-377.5 98.5zM1001.5 272.5q92.5 67.5 134.5 180.5t42 254t-42 253.5t-134.5 180t-237.5 67.5t-237.5 -67.5
t-134.5 -180t-42 -253.5t42 -254t134.5 -180.5t237.5 -67.5t237.5 67.5zM391 1827h260l226 -309h-178z" />
    <glyph glyph-name="Oacute" unicode="&#xd3;" horiz-adv-x="1528" 
d="M386.5 78.5q-153.5 98.5 -229 263.5t-75.5 365t75.5 365t229 263.5t377.5 98.5t377.5 -98.5t229 -263.5t75.5 -365t-75.5 -365t-229 -263.5t-377.5 -98.5t-377.5 98.5zM1001.5 272.5q92.5 67.5 134.5 180.5t42 254t-42 253.5t-134.5 180t-237.5 67.5t-237.5 -67.5
t-134.5 -180t-42 -253.5t42 -254t134.5 -180.5t237.5 -67.5t237.5 67.5zM870 1827h260l-307 -289h-178z" />
    <glyph glyph-name="Ocircumflex" unicode="&#xd4;" horiz-adv-x="1528" 
d="M386.5 78.5q-153.5 98.5 -229 263.5t-75.5 365t75.5 365t229 263.5t377.5 98.5t377.5 -98.5t229 -263.5t75.5 -365t-75.5 -365t-229 -263.5t-377.5 -98.5t-377.5 98.5zM1001.5 272.5q92.5 67.5 134.5 180.5t42 254t-42 253.5t-134.5 180t-237.5 67.5t-237.5 -67.5
t-134.5 -180t-42 -253.5t42 -254t134.5 -180.5t237.5 -67.5t237.5 67.5zM762 1864l317 -352h-188l-129 145l-127 -145h-189z" />
    <glyph glyph-name="Otilde" unicode="&#xd5;" horiz-adv-x="1528" 
d="M386.5 78.5q-153.5 98.5 -229 263.5t-75.5 365t75.5 365t229 263.5t377.5 98.5t377.5 -98.5t229 -263.5t75.5 -365t-75.5 -365t-229 -263.5t-377.5 -98.5t-377.5 98.5zM1001.5 272.5q92.5 67.5 134.5 180.5t42 254t-42 253.5t-134.5 180t-237.5 67.5t-237.5 -67.5
t-134.5 -180t-42 -253.5t42 -254t134.5 -180.5t237.5 -67.5t237.5 67.5zM815 1532.5q-33 13.5 -55 31.5t-49 47q-26 27 -43 39.5t-37 12.5q-31 0 -48 -35.5t-17 -101.5h-140q0 137 57 211.5t156 74.5q56 0 93.5 -23.5t79.5 -65.5q29 -28 45.5 -40t35.5 -12q27 0 44.5 35.5
t17.5 99.5h145q0 -137 -55.5 -212t-153.5 -75q-43 0 -76 13.5z" />
    <glyph glyph-name="Odieresis" unicode="&#xd6;" horiz-adv-x="1528" 
d="M386.5 78.5q-153.5 98.5 -229 263.5t-75.5 365t75.5 365t229 263.5t377.5 98.5t377.5 -98.5t229 -263.5t75.5 -365t-75.5 -365t-229 -263.5t-377.5 -98.5t-377.5 98.5zM1001.5 272.5q92.5 67.5 134.5 180.5t42 254t-42 253.5t-134.5 180t-237.5 67.5t-237.5 -67.5
t-134.5 -180t-42 -253.5t42 -254t134.5 -180.5t237.5 -67.5t237.5 67.5zM463 1827h205v-225h-205v225zM859 1827h204v-225h-204v225z" />
    <glyph glyph-name="multiply" unicode="&#xd7;" horiz-adv-x="1073" 
d="M537 475l-301 -302l-131 131l301 301l-301 302l130 130l301 -302l302 302l131 -131l-302 -301l302 -302l-131 -130z" />
    <glyph glyph-name="Oslash" unicode="&#xd8;" horiz-adv-x="1528" 
d="M1385.5 1037.5q60.5 -151.5 60.5 -330.5q0 -200 -75.5 -365t-229 -263.5t-377.5 -98.5q-173 0 -312 63l-26 -43h-182l77 126q-118 99 -178.5 251t-60.5 330q0 200 75.5 365t229 263.5t377.5 98.5q172 0 311 -63l25 42h182l-75 -125q118 -99 178.5 -250.5zM375 504.5
q25 -93.5 77 -160.5l500 825q-81 39 -188 39q-145 0 -237.5 -67.5t-134.5 -180t-42 -253.5q0 -109 25 -202.5zM1001.5 272.5q92.5 67.5 134.5 180.5t42 254q0 109 -25.5 202.5t-77.5 161.5l-501 -826q82 -40 190 -40q145 0 237.5 67.5z" />
    <glyph glyph-name="Ugrave" unicode="&#xd9;" horiz-adv-x="1380" 
d="M282.5 130.5q-132.5 150.5 -132.5 420.5v862h253v-833q0 -121 25.5 -197.5t88 -117t173.5 -40.5t174 40t88 117t25 198v833h254v-852q0 -277 -132.5 -429t-408.5 -152q-275 0 -407.5 150.5zM313 1827h260l226 -309h-178z" />
    <glyph glyph-name="Uacute" unicode="&#xda;" horiz-adv-x="1380" 
d="M282.5 130.5q-132.5 150.5 -132.5 420.5v862h253v-833q0 -121 25.5 -197.5t88 -117t173.5 -40.5t174 40t88 117t25 198v833h254v-852q0 -277 -132.5 -429t-408.5 -152q-275 0 -407.5 150.5zM793 1827h260l-307 -289h-178z" />
    <glyph glyph-name="Ucircumflex" unicode="&#xdb;" horiz-adv-x="1380" 
d="M282.5 130.5q-132.5 150.5 -132.5 420.5v862h253v-833q0 -121 25.5 -197.5t88 -117t173.5 -40.5t174 40t88 117t25 198v833h254v-852q0 -277 -132.5 -429t-408.5 -152q-275 0 -407.5 150.5zM684 1864l317 -352h-188l-129 145l-127 -145h-189z" />
    <glyph glyph-name="Udieresis" unicode="&#xdc;" horiz-adv-x="1380" 
d="M282.5 130.5q-132.5 150.5 -132.5 420.5v862h253v-833q0 -121 25.5 -197.5t88 -117t173.5 -40.5t174 40t88 117t25 198v833h254v-852q0 -277 -132.5 -429t-408.5 -152q-275 0 -407.5 150.5zM385 1827h205v-225h-205v225zM781 1827h204v-225h-204v225z" />
    <glyph glyph-name="Yacute" unicode="&#xdd;" horiz-adv-x="1319" 
d="M528 551l-530 862h307l352 -618l355 618h309l-528 -862v-551h-265v551zM764 1827h260l-307 -289h-178z" />
    <glyph glyph-name="Thorn" unicode="&#xde;" horiz-adv-x="1167" 
d="M182 1413h254v-254h189q145 0 258 -49.5t177 -144t64 -224.5q0 -129 -64 -221t-177 -140t-258 -48h-189v-332h-254v1413zM625 569q128 0 187.5 43t59.5 129q0 181 -247 181h-189v-353h189z" />
    <glyph glyph-name="germandbls" unicode="&#xdf;" horiz-adv-x="1139" 
d="M492 6l71 209q73 -31 125 -31q61 0 95 38.5t34 109.5q0 52 -18 90t-44 63.5t-72 61.5l-21 16q-56 44 -87.5 91.5t-31.5 117.5q0 44 14 77.5t36 59t60 60.5q37 33 51.5 65t14.5 68q0 61 -33.5 95t-93.5 34q-94 0 -139.5 -75.5t-56.5 -164.5t-11 -188v-803h-240v803
q0 201 51 343t148.5 216t235.5 74q108 0 193.5 -44.5t133 -120t47.5 -167.5q0 -73 -27.5 -128.5t-70.5 -101.5q-13 -14 -36 -35q-28 -28 -39 -41.5t-11 -25.5q0 -16 19 -34t61 -49l27 -21q52 -41 90.5 -83t65 -104t26.5 -143q0 -104 -45 -185.5t-129.5 -127t-198.5 -45.5
q-82 0 -194 26z" />
    <glyph glyph-name="agrave" unicode="&#xe0;" horiz-adv-x="1055" 
d="M739.5 968q97.5 -52 149 -146t51.5 -216v-606h-201l-15 134q-46 -74 -133.5 -114t-178.5 -40q-103 0 -185.5 38.5t-130 112.5t-47.5 176q0 153 107.5 221t289.5 68h272q-3 77 -22 122.5t-63 67t-123 21.5q-80 0 -140 -40t-96 -101l-186 135q77 105 178.5 162t241.5 57
q134 0 231.5 -52zM589 217q56 31 89 82.5t41 112.5v8h-258q-79 0 -120.5 -35t-41.5 -86t41.5 -82t120.5 -31q72 0 128 31zM125 1413h260l226 -309h-178z" />
    <glyph glyph-name="aacute" unicode="&#xe1;" horiz-adv-x="1055" 
d="M739.5 968q97.5 -52 149 -146t51.5 -216v-606h-201l-15 134q-46 -74 -133.5 -114t-178.5 -40q-103 0 -185.5 38.5t-130 112.5t-47.5 176q0 153 107.5 221t289.5 68h272q-3 77 -22 122.5t-63 67t-123 21.5q-80 0 -140 -40t-96 -101l-186 135q77 105 178.5 162t241.5 57
q134 0 231.5 -52zM589 217q56 31 89 82.5t41 112.5v8h-258q-79 0 -120.5 -35t-41.5 -86t41.5 -82t120.5 -31q72 0 128 31zM604 1413h260l-307 -289h-178z" />
    <glyph glyph-name="acircumflex" unicode="&#xe2;" horiz-adv-x="1055" 
d="M739.5 968q97.5 -52 149 -146t51.5 -216v-606h-201l-15 134q-46 -74 -133.5 -114t-178.5 -40q-103 0 -185.5 38.5t-130 112.5t-47.5 176q0 153 107.5 221t289.5 68h272q-3 77 -22 122.5t-63 67t-123 21.5q-80 0 -140 -40t-96 -101l-186 135q77 105 178.5 162t241.5 57
q134 0 231.5 -52zM589 217q56 31 89 82.5t41 112.5v8h-258q-79 0 -120.5 -35t-41.5 -86t41.5 -82t120.5 -31q72 0 128 31zM496 1450l317 -352h-188l-129 145l-127 -145h-189z" />
    <glyph glyph-name="atilde" unicode="&#xe3;" horiz-adv-x="1055" 
d="M739.5 968q97.5 -52 149 -146t51.5 -216v-606h-201l-15 134q-46 -74 -133.5 -114t-178.5 -40q-103 0 -185.5 38.5t-130 112.5t-47.5 176q0 153 107.5 221t289.5 68h272q-3 77 -22 122.5t-63 67t-123 21.5q-80 0 -140 -40t-96 -101l-186 135q77 105 178.5 162t241.5 57
q134 0 231.5 -52zM589 217q56 31 89 82.5t41 112.5v8h-258q-79 0 -120.5 -35t-41.5 -86t41.5 -82t120.5 -31q72 0 128 31zM548 1119.5q-33 13.5 -55 31.5t-49 47q-26 27 -43 39.5t-37 12.5q-31 0 -48 -35.5t-17 -101.5h-140q0 137 57 211.5t156 74.5q56 0 93.5 -23.5
t79.5 -65.5q29 -28 45.5 -40t35.5 -12q27 0 44.5 35.5t17.5 99.5h145q0 -137 -55.5 -212t-153.5 -75q-43 0 -76 13.5z" />
    <glyph glyph-name="adieresis" unicode="&#xe4;" horiz-adv-x="1055" 
d="M739.5 968q97.5 -52 149 -146t51.5 -216v-606h-201l-15 134q-46 -74 -133.5 -114t-178.5 -40q-103 0 -185.5 38.5t-130 112.5t-47.5 176q0 153 107.5 221t289.5 68h272q-3 77 -22 122.5t-63 67t-123 21.5q-80 0 -140 -40t-96 -101l-186 135q77 105 178.5 162t241.5 57
q134 0 231.5 -52zM589 217q56 31 89 82.5t41 112.5v8h-258q-79 0 -120.5 -35t-41.5 -86t41.5 -82t120.5 -31q72 0 128 31zM196 1413h205v-225h-205v225zM592 1413h204v-225h-204v225z" />
    <glyph glyph-name="aring" unicode="&#xe5;" horiz-adv-x="1055" 
d="M739.5 968q97.5 -52 149 -146t51.5 -216v-606h-201l-15 134q-46 -74 -133.5 -114t-178.5 -40q-103 0 -185.5 38.5t-130 112.5t-47.5 176q0 153 107.5 221t289.5 68h272q-3 77 -22 122.5t-63 67t-123 21.5q-80 0 -140 -40t-96 -101l-186 135q77 105 178.5 162t241.5 57
q134 0 231.5 -52zM589 217q56 31 89 82.5t41 112.5v8h-258q-79 0 -120.5 -35t-41.5 -86t41.5 -82t120.5 -31q72 0 128 31zM379.5 1100.5q-52.5 31.5 -83 85t-30.5 114.5q0 63 30.5 115.5t83.5 83.5t115 31t115.5 -30.5t85 -83t31.5 -116.5q0 -63 -31 -116t-84 -84t-117 -31
q-63 0 -115.5 31.5zM568 1229q28 29 28 74q0 42 -27 69t-74 27q-44 0 -71 -27t-27 -69q0 -45 28 -74t70 -29q45 0 73 29z" />
    <glyph glyph-name="ae" unicode="&#xe6;" horiz-adv-x="1677" 
d="M223 18.5q-81 38.5 -129.5 110t-48.5 164.5q0 159 108.5 231t290.5 72h271q0 44 -10 86q-17 65 -67.5 96t-139.5 31q-74 0 -136.5 -36.5t-99.5 -90.5l-172 125q77 105 177.5 157t238.5 52q111 0 201 -43.5t141 -120.5q61 77 139 118.5t180 41.5q162 0 263 -72t144.5 -188
t43.5 -256q0 -29 -10 -76h-662q10 -99 62 -157t155 -58q81 0 138.5 23.5t109.5 78.5l170 -147q-87 -92 -187.5 -132t-228.5 -40q-126 0 -216 43t-142 121q-49 -54 -100 -90.5t-126.5 -59t-181.5 -22.5q-95 0 -176 38.5zM1378 596q0 34 -10 72q-19 67 -76 103t-145 36
q-65 0 -111 -30t-69 -78.5t-23 -102.5h434zM605 197q69 37 128 110q-14 44 -18 113h-256q-85 0 -135 -35t-50 -90q0 -59 45.5 -97t118.5 -38q98 0 167 37z" />
    <glyph glyph-name="ccedilla" unicode="&#xe7;" horiz-adv-x="1004" 
d="M665 244.5q54 43.5 74 115.5l222 -84q-44 -125 -139 -201.5t-223 -91.5l-65 -83q32 -3 55 -13q66 -21 101 -68.5t35 -115.5q0 -63 -30 -114.5t-83 -81t-117 -29.5q-77 0 -134 39.5t-73 120.5l133 55q9 -32 29.5 -54t50.5 -22q35 0 57.5 22t22.5 56q0 48 -46.5 79
t-121.5 31h-69l115 181q-130 18 -220.5 92.5t-136 184.5t-45.5 235q0 136 54.5 255.5t163 193t264.5 73.5q152 0 264 -74.5t168 -220.5l-232 -90q-20 74 -73.5 119t-126.5 45q-80 0 -132.5 -42.5t-77 -111t-24.5 -147.5q0 -81 24 -148t76.5 -108t133.5 -41q72 0 126 43.5z
" />
    <glyph glyph-name="egrave" unicode="&#xe8;" horiz-adv-x="1069" 
d="M284 51q-114 71 -170.5 188.5t-56.5 256.5q0 136 54 256t164.5 194t271.5 74q164 0 268 -75.5t149.5 -190t45.5 -238.5q0 -30 -2.5 -57.5t-6.5 -38.5h-686q35 -219 250 -219q71 0 130 25t110 81l168 -147q-82 -91 -183 -135.5t-227 -44.5q-165 0 -279 71zM770 596
q0 36 -8 63q-18 75 -76.5 115.5t-140.5 40.5q-190 0 -230 -219h455zM155 1413h260l226 -309h-178z" />
    <glyph glyph-name="eacute" unicode="&#xe9;" horiz-adv-x="1069" 
d="M284 51q-114 71 -170.5 188.5t-56.5 256.5q0 136 54 256t164.5 194t271.5 74q164 0 268 -75.5t149.5 -190t45.5 -238.5q0 -30 -2.5 -57.5t-6.5 -38.5h-686q35 -219 250 -219q71 0 130 25t110 81l168 -147q-82 -91 -183 -135.5t-227 -44.5q-165 0 -279 71zM770 596
q0 36 -8 63q-18 75 -76.5 115.5t-140.5 40.5q-190 0 -230 -219h455zM635 1413h260l-307 -289h-178z" />
    <glyph glyph-name="ecircumflex" unicode="&#xea;" horiz-adv-x="1069" 
d="M284 51q-114 71 -170.5 188.5t-56.5 256.5q0 136 54 256t164.5 194t271.5 74q164 0 268 -75.5t149.5 -190t45.5 -238.5q0 -30 -2.5 -57.5t-6.5 -38.5h-686q35 -219 250 -219q71 0 130 25t110 81l168 -147q-82 -91 -183 -135.5t-227 -44.5q-165 0 -279 71zM770 596
q0 36 -8 63q-18 75 -76.5 115.5t-140.5 40.5q-190 0 -230 -219h455zM527 1450l317 -352h-188l-129 145l-127 -145h-189z" />
    <glyph glyph-name="edieresis" unicode="&#xeb;" horiz-adv-x="1069" 
d="M284 51q-114 71 -170.5 188.5t-56.5 256.5q0 136 54 256t164.5 194t271.5 74q164 0 268 -75.5t149.5 -190t45.5 -238.5q0 -30 -2.5 -57.5t-6.5 -38.5h-686q35 -219 250 -219q71 0 130 25t110 81l168 -147q-82 -91 -183 -135.5t-227 -44.5q-165 0 -279 71zM770 596
q0 36 -8 63q-18 75 -76.5 115.5t-140.5 40.5q-190 0 -230 -219h455zM227 1413h205v-225h-205v225zM623 1413h204v-225h-204v225z" />
    <glyph glyph-name="igrave" unicode="&#xec;" horiz-adv-x="535" 
d="M145 999h244v-999h-244v999zM-105 1413h260l226 -309h-178z" />
    <glyph glyph-name="iacute" unicode="&#xed;" horiz-adv-x="535" 
d="M145 999h244v-999h-244v999zM375 1413h260l-307 -289h-178z" />
    <glyph glyph-name="icircumflex" unicode="&#xee;" horiz-adv-x="535" 
d="M145 999h244v-999h-244v999zM267 1450l317 -352h-188l-129 145l-127 -145h-189z" />
    <glyph glyph-name="idieresis" unicode="&#xef;" horiz-adv-x="535" 
d="M145 999h244v-999h-244v999zM-33 1413h205v-225h-205v225zM363 1413h204v-225h-204v225z" />
    <glyph glyph-name="eth" unicode="&#xf0;" horiz-adv-x="1120" 
d="M297.5 48.5q-118.5 68.5 -185.5 182t-67 244.5q0 134 69.5 242.5t187.5 169.5t257 61h31l-92 139l-109 -73h-172l227 155l-159 244h270l76 -119l174 119h170l-293 -199l317 -497q39 -62 57.5 -121.5t18.5 -128.5q0 -133 -69 -244.5t-187 -177t-258 -65.5
q-145 0 -263.5 68.5zM693.5 251.5q61.5 34.5 97.5 93.5t36 128t-36 128t-97.5 93.5t-134.5 34.5q-71 0 -132.5 -34.5t-97.5 -93.5t-36 -128t36 -128t97.5 -93.5t132.5 -34.5q73 0 134.5 34.5z" />
    <glyph glyph-name="ntilde" unicode="&#xf1;" horiz-adv-x="1163" 
d="M145 999h244v-116q57 69 135 103t158 34q124 0 206 -59t120.5 -154.5t38.5 -206.5v-600h-244v569q0 101 -50 163.5t-141 62.5q-106 0 -164.5 -60.5t-58.5 -187.5v-547h-244v999zM639 1119.5q-33 13.5 -55 31.5t-49 47q-26 27 -43 39.5t-37 12.5q-31 0 -48 -35.5
t-17 -101.5h-140q0 137 57 211.5t156 74.5q56 0 93.5 -23.5t79.5 -65.5q29 -28 45.5 -40t35.5 -12q27 0 44.5 35.5t17.5 99.5h145q0 -137 -55.5 -212t-153.5 -75q-43 0 -76 13.5z" />
    <glyph glyph-name="ograve" unicode="&#xf2;" horiz-adv-x="1130" 
d="M298 50.5q-117 70.5 -181 190t-64 261.5q0 141 64 259.5t181 188.5t267 70t267 -70t181 -188.5t64 -259.5q0 -142 -64 -261.5t-181 -190t-267 -70.5t-267 70.5zM711 232.5q58 42.5 85 113t27 156.5q0 134 -63.5 220.5t-194.5 86.5q-88 0 -146 -41.5t-85 -110.5t-27 -155
t27 -156.5t85 -113t146 -42.5t146 42.5zM192 1413h260l226 -309h-178z" />
    <glyph glyph-name="oacute" unicode="&#xf3;" horiz-adv-x="1130" 
d="M298 50.5q-117 70.5 -181 190t-64 261.5q0 141 64 259.5t181 188.5t267 70t267 -70t181 -188.5t64 -259.5q0 -142 -64 -261.5t-181 -190t-267 -70.5t-267 70.5zM711 232.5q58 42.5 85 113t27 156.5q0 134 -63.5 220.5t-194.5 86.5q-88 0 -146 -41.5t-85 -110.5t-27 -155
t27 -156.5t85 -113t146 -42.5t146 42.5zM672 1413h260l-307 -289h-178z" />
    <glyph glyph-name="ocircumflex" unicode="&#xf4;" horiz-adv-x="1130" 
d="M298 50.5q-117 70.5 -181 190t-64 261.5q0 141 64 259.5t181 188.5t267 70t267 -70t181 -188.5t64 -259.5q0 -142 -64 -261.5t-181 -190t-267 -70.5t-267 70.5zM711 232.5q58 42.5 85 113t27 156.5q0 134 -63.5 220.5t-194.5 86.5q-88 0 -146 -41.5t-85 -110.5t-27 -155
t27 -156.5t85 -113t146 -42.5t146 42.5zM564 1450l317 -352h-188l-129 145l-127 -145h-189z" />
    <glyph glyph-name="otilde" unicode="&#xf5;" horiz-adv-x="1130" 
d="M298 50.5q-117 70.5 -181 190t-64 261.5q0 141 64 259.5t181 188.5t267 70t267 -70t181 -188.5t64 -259.5q0 -142 -64 -261.5t-181 -190t-267 -70.5t-267 70.5zM711 232.5q58 42.5 85 113t27 156.5q0 134 -63.5 220.5t-194.5 86.5q-88 0 -146 -41.5t-85 -110.5t-27 -155
t27 -156.5t85 -113t146 -42.5t146 42.5zM616 1119.5q-33 13.5 -55 31.5t-49 47q-26 27 -43 39.5t-37 12.5q-31 0 -48 -35.5t-17 -101.5h-140q0 137 57 211.5t156 74.5q56 0 93.5 -23.5t79.5 -65.5q29 -28 45.5 -40t35.5 -12q27 0 44.5 35.5t17.5 99.5h145q0 -137 -55.5 -212
t-153.5 -75q-43 0 -76 13.5z" />
    <glyph glyph-name="odieresis" unicode="&#xf6;" horiz-adv-x="1130" 
d="M298 50.5q-117 70.5 -181 190t-64 261.5q0 141 64 259.5t181 188.5t267 70t267 -70t181 -188.5t64 -259.5q0 -142 -64 -261.5t-181 -190t-267 -70.5t-267 70.5zM711 232.5q58 42.5 85 113t27 156.5q0 134 -63.5 220.5t-194.5 86.5q-88 0 -146 -41.5t-85 -110.5t-27 -155
t27 -156.5t85 -113t146 -42.5t146 42.5zM264 1413h205v-225h-205v225zM660 1413h204v-225h-204v225z" />
    <glyph glyph-name="divide" unicode="&#xf7;" horiz-adv-x="1020" 
d="M377 1098h266v-264h-266v264zM84 721h852v-184h-852v184zM377 408h266v-265h-266v265z" />
    <glyph glyph-name="oslash" unicode="&#xf8;" horiz-adv-x="1130" 
d="M1025.5 737q51.5 -109 51.5 -235q0 -142 -64 -261.5t-181 -190t-267 -70.5q-120 0 -223 47l-16 -27h-129l51 85q-92 72 -143.5 181.5t-51.5 235.5q0 141 64 259.5t181 188.5t267 70q119 0 222 -46l16 26h129l-50 -83q92 -71 143.5 -180zM322 381.5q15 -56.5 46 -98.5
l307 505q-47 21 -110 21q-88 0 -146 -41.5t-85 -110.5t-27 -155q0 -64 15 -120.5zM711 232.5q58 42.5 85 113t27 156.5q0 64 -15 120t-46 97l-307 -507q49 -22 110 -22q88 0 146 42.5z" />
    <glyph glyph-name="ugrave" unicode="&#xf9;" horiz-adv-x="1161" 
d="M273.5 39q-81.5 59 -119 154t-37.5 206v600h241v-569q0 -101 50 -163t141 -62q107 0 166 61t59 187v546h242v-999h-242v117q-56 -70 -135 -103.5t-160 -33.5q-124 0 -205.5 59zM209 1413h260l226 -309h-178z" />
    <glyph glyph-name="uacute" unicode="&#xfa;" horiz-adv-x="1161" 
d="M273.5 39q-81.5 59 -119 154t-37.5 206v600h241v-569q0 -101 50 -163t141 -62q107 0 166 61t59 187v546h242v-999h-242v117q-56 -70 -135 -103.5t-160 -33.5q-124 0 -205.5 59zM688 1413h260l-307 -289h-178z" />
    <glyph glyph-name="ucircumflex" unicode="&#xfb;" horiz-adv-x="1161" 
d="M273.5 39q-81.5 59 -119 154t-37.5 206v600h241v-569q0 -101 50 -163t141 -62q107 0 166 61t59 187v546h242v-999h-242v117q-56 -70 -135 -103.5t-160 -33.5q-124 0 -205.5 59zM580 1450l317 -352h-188l-129 145l-127 -145h-189z" />
    <glyph glyph-name="udieresis" unicode="&#xfc;" horiz-adv-x="1161" 
d="M273.5 39q-81.5 59 -119 154t-37.5 206v600h241v-569q0 -101 50 -163t141 -62q107 0 166 61t59 187v546h242v-999h-242v117q-56 -70 -135 -103.5t-160 -33.5q-124 0 -205.5 59zM280 1413h205v-225h-205v225zM676 1413h204v-225h-204v225z" />
    <glyph glyph-name="yacute" unicode="&#xfd;" horiz-adv-x="1032" 
d="M385 27l-391 972h268l252 -694l256 694h268l-571 -1429h-266zM623 1413h260l-307 -289h-178z" />
    <glyph glyph-name="thorn" unicode="&#xfe;" horiz-adv-x="1176" 
d="M914.5 949q96.5 -71 147 -189.5t50.5 -259.5q0 -142 -50.5 -260.5t-148 -189t-233.5 -70.5q-85 0 -158 29t-123 91v-514h-252v1827h252v-514q50 61 125.5 91t159.5 30q134 0 230.5 -71zM439.5 713.5q-62.5 -81.5 -62.5 -213.5q0 -133 62.5 -216t183.5 -83
q120 0 181.5 83.5t61.5 215.5t-61 213.5t-182 81.5t-183.5 -81.5z" />
    <glyph glyph-name="ydieresis" unicode="&#xff;" horiz-adv-x="1032" 
d="M385 27l-391 972h268l252 -694l256 694h268l-571 -1429h-266zM215 1413h205v-225h-205v225zM611 1413h204v-225h-204v225z" />
    <glyph glyph-name="Amacron" unicode="&#x100;" horiz-adv-x="1343" 
d="M578 1413h190l563 -1413h-274l-113 307h-541l-114 -307h-277zM864 524l-190 516l-191 -516h381zM391 1704h559v-143h-559v143z" />
    <glyph glyph-name="amacron" unicode="&#x101;" horiz-adv-x="1055" 
d="M739.5 968q97.5 -52 149 -146t51.5 -216v-606h-201l-15 134q-46 -74 -133.5 -114t-178.5 -40q-103 0 -185.5 38.5t-130 112.5t-47.5 176q0 153 107.5 221t289.5 68h272q-3 77 -22 122.5t-63 67t-123 21.5q-80 0 -140 -40t-96 -101l-186 135q77 105 178.5 162t241.5 57
q134 0 231.5 -52zM589 217q56 31 89 82.5t41 112.5v8h-258q-79 0 -120.5 -35t-41.5 -86t41.5 -82t120.5 -31q72 0 128 31zM217 1290h559v-143h-559v143z" />
    <glyph glyph-name="Abreve" unicode="&#x102;" horiz-adv-x="1343" 
d="M578 1413h190l563 -1413h-274l-113 307h-541l-114 -307h-277zM864 524l-190 516l-191 -516h381zM433 1625.5q-77 68.5 -77 201.5h172q0 -63 40 -95t104 -32t103.5 33t39.5 94h172q0 -270 -315 -270q-162 0 -239 68.5z" />
    <glyph glyph-name="abreve" unicode="&#x103;" horiz-adv-x="1055" 
d="M739.5 968q97.5 -52 149 -146t51.5 -216v-606h-201l-15 134q-46 -74 -133.5 -114t-178.5 -40q-103 0 -185.5 38.5t-130 112.5t-47.5 176q0 153 107.5 221t289.5 68h272q-3 77 -22 122.5t-63 67t-123 21.5q-80 0 -140 -40t-96 -101l-186 135q77 105 178.5 162t241.5 57
q134 0 231.5 -52zM589 217q56 31 89 82.5t41 112.5v8h-258q-79 0 -120.5 -35t-41.5 -86t41.5 -82t120.5 -31q72 0 128 31zM259 1211.5q-77 68.5 -77 201.5h172q0 -63 40 -95t104 -32t103.5 33t39.5 94h172q0 -270 -315 -270q-162 0 -239 68.5z" />
    <glyph glyph-name="Aogonek" unicode="&#x104;" horiz-adv-x="1343" 
d="M578 1413h190l563 -1413h-274l-113 307h-541l-114 -307h-277zM864 524l-190 516l-191 -516h381zM1086.5 -425.5q-51.5 25.5 -80.5 72.5t-29 107q0 80 47.5 143.5t116.5 102.5h190q-23 -7 -73 -34.5t-93 -74t-43 -104.5q0 -50 20 -69t54 -19q61 0 103 57l122 -84
q-81 -123 -219 -123q-64 0 -115.5 25.5z" />
    <glyph glyph-name="aogonek" unicode="&#x105;" horiz-adv-x="1055" 
d="M1030 -328q-81 -123 -219 -123q-64 0 -115.5 25.5t-80.5 72.5t-29 107q0 80 47.5 143.5t116.5 102.5h-11l-15 134q-46 -74 -133.5 -114t-178.5 -40q-103 0 -185.5 38.5t-130 112.5t-47.5 176q0 153 107.5 221t289.5 68h272q-3 77 -22 122.5t-63 67t-123 21.5
q-80 0 -140 -40t-96 -101l-186 135q77 105 178.5 162t241.5 57q134 0 231.5 -52t149 -146t51.5 -216v-606q-23 -7 -73 -34.5t-93 -74t-43 -104.5q0 -50 20 -69t54 -19q61 0 103 57zM589 217q56 31 89 82.5t41 112.5v8h-258q-79 0 -120.5 -35t-41.5 -86t41.5 -82t120.5 -31
q72 0 128 31z" />
    <glyph glyph-name="Cacute" unicode="&#x106;" horiz-adv-x="1432" 
d="M388 78q-154 98 -230 263.5t-76 365.5t75.5 365.5t229.5 264.5t377 99q211 0 372 -104.5t246 -301.5l-237 -94q-38 134 -137.5 196t-245.5 62q-144 0 -240 -63t-142 -170.5t-46 -243.5q0 -145 46 -256.5t143 -175.5t243 -64q140 0 233.5 61.5t149.5 200.5l235 -96
q-83 -197 -244.5 -302t-373.5 -105q-224 0 -378 98zM864 1827h260l-307 -289h-178z" />
    <glyph glyph-name="cacute" unicode="&#x107;" horiz-adv-x="1004" 
d="M275.5 52q-109.5 72 -164 190.5t-54.5 255.5q0 136 54.5 255.5t163 193t264.5 73.5q152 0 264 -74.5t168 -220.5l-232 -90q-20 74 -73.5 119t-126.5 45q-80 0 -132.5 -42.5t-77 -111t-24.5 -147.5q0 -81 24 -148t76.5 -108t133.5 -41q72 0 126 43.5t74 115.5l222 -84
q-50 -140 -161 -218t-259 -78q-156 0 -265.5 72zM645 1413h260l-307 -289h-178z" />
    <glyph glyph-name="Cdotaccent" unicode="&#x10a;" horiz-adv-x="1432" 
d="M388 78q-154 98 -230 263.5t-76 365.5t75.5 365.5t229.5 264.5t377 99q211 0 372 -104.5t246 -301.5l-237 -94q-38 134 -137.5 196t-245.5 62q-144 0 -240 -63t-142 -170.5t-46 -243.5q0 -145 46 -256.5t143 -175.5t243 -64q140 0 233.5 61.5t149.5 200.5l235 -96
q-83 -197 -244.5 -302t-373.5 -105q-224 0 -378 98zM628 1827h256v-225h-256v225z" />
    <glyph glyph-name="cdotaccent" unicode="&#x10b;" horiz-adv-x="1004" 
d="M275.5 52q-109.5 72 -164 190.5t-54.5 255.5q0 136 54.5 255.5t163 193t264.5 73.5q152 0 264 -74.5t168 -220.5l-232 -90q-20 74 -73.5 119t-126.5 45q-80 0 -132.5 -42.5t-77 -111t-24.5 -147.5q0 -81 24 -148t76.5 -108t133.5 -41q72 0 126 43.5t74 115.5l222 -84
q-50 -140 -161 -218t-259 -78q-156 0 -265.5 72zM409 1413h256v-225h-256v225z" />
    <glyph glyph-name="Ccaron" unicode="&#x10c;" horiz-adv-x="1432" 
d="M388 78q-154 98 -230 263.5t-76 365.5t75.5 365.5t229.5 264.5t377 99q211 0 372 -104.5t246 -301.5l-237 -94q-38 134 -137.5 196t-245.5 62q-144 0 -240 -63t-142 -170.5t-46 -243.5q0 -145 46 -256.5t143 -175.5t243 -64q140 0 233.5 61.5t149.5 200.5l235 -96
q-83 -197 -244.5 -302t-373.5 -105q-224 0 -378 98zM440 1827h189l127 -135l129 135h188l-317 -332z" />
    <glyph glyph-name="ccaron" unicode="&#x10d;" horiz-adv-x="1004" 
d="M275.5 52q-109.5 72 -164 190.5t-54.5 255.5q0 136 54.5 255.5t163 193t264.5 73.5q152 0 264 -74.5t168 -220.5l-232 -90q-20 74 -73.5 119t-126.5 45q-80 0 -132.5 -42.5t-77 -111t-24.5 -147.5q0 -81 24 -148t76.5 -108t133.5 -41q72 0 126 43.5t74 115.5l222 -84
q-50 -140 -161 -218t-259 -78q-156 0 -265.5 72zM221 1413h189l127 -135l129 135h188l-317 -332z" />
    <glyph glyph-name="Dcaron" unicode="&#x10e;" horiz-adv-x="1409" 
d="M182 1413h410q239 0 403.5 -83.5t248 -243.5t83.5 -390q0 -220 -85.5 -376t-250.5 -238t-401 -82h-408v1413zM565 233q247 0 377.5 110t130.5 364q0 169 -49 272.5t-155 152t-281 48.5h-152v-947h129zM403 1827h189l127 -135l129 135h188l-317 -332z" />
    <glyph glyph-name="dcaron" unicode="&#x10f;" horiz-adv-x="1171" 
d="M262 50.5q-98 70.5 -148.5 189t-50.5 260.5q0 141 50.5 259.5t147.5 189.5t231 71q84 0 159.5 -30t124.5 -91v514h248v-1413h-227l-11 113q-49 -68 -125.5 -100.5t-164.5 -32.5q-136 0 -234 70.5zM736.5 283q60.5 82 60.5 217q0 134 -61 216.5t-181 82.5t-182 -83.5
t-62 -215.5q0 -133 61.5 -216t182.5 -83t181.5 82zM1221 1413h256l-228 -455h-143z" />
    <glyph glyph-name="Dcroat" unicode="&#x110;" horiz-adv-x="1409" 
d="M995.5 1329.5q164.5 -83.5 248 -243.5t83.5 -390q0 -220 -85.5 -376t-250.5 -238t-401 -82h-408v625h-145v164h145v624h410q239 0 403.5 -83.5zM942.5 343q130.5 110 130.5 364q0 169 -49 272.5t-155 152t-281 48.5h-152v-391h236v-164h-236v-392h129q247 0 377.5 110z
" />
    <glyph glyph-name="dcroat" unicode="&#x111;" horiz-adv-x="1171" 
d="M1155 1139h-131v-1139h-227l-11 113q-49 -68 -125.5 -100.5t-164.5 -32.5q-136 0 -234 70.5t-148.5 189t-50.5 260.5q0 141 50.5 259.5t147.5 189.5t231 71q84 0 159.5 -30t124.5 -91v240h-256v164h256v110h248v-110h131v-164zM736.5 283q60.5 82 60.5 217
q0 134 -61 216.5t-181 82.5t-182 -83.5t-62 -215.5q0 -133 61.5 -216t182.5 -83t181.5 82z" />
    <glyph glyph-name="Emacron" unicode="&#x112;" horiz-adv-x="1245" 
d="M182 1413h940v-233h-686v-357h639v-233h-639v-350h686v-240h-940v1413zM372 1704h559v-143h-559v143z" />
    <glyph glyph-name="emacron" unicode="&#x113;" horiz-adv-x="1069" 
d="M284 51q-114 71 -170.5 188.5t-56.5 256.5q0 136 54 256t164.5 194t271.5 74q164 0 268 -75.5t149.5 -190t45.5 -238.5q0 -30 -2.5 -57.5t-6.5 -38.5h-686q35 -219 250 -219q71 0 130 25t110 81l168 -147q-82 -91 -183 -135.5t-227 -44.5q-165 0 -279 71zM770 596
q0 36 -8 63q-18 75 -76.5 115.5t-140.5 40.5q-190 0 -230 -219h455zM248 1290h559v-143h-559v143z" />
    <glyph glyph-name="Edotaccent" unicode="&#x116;" horiz-adv-x="1245" 
d="M182 1413h940v-233h-686v-357h639v-233h-639v-350h686v-240h-940v1413zM524 1827h256v-225h-256v225z" />
    <glyph glyph-name="edotaccent" unicode="&#x117;" horiz-adv-x="1069" 
d="M284 51q-114 71 -170.5 188.5t-56.5 256.5q0 136 54 256t164.5 194t271.5 74q164 0 268 -75.5t149.5 -190t45.5 -238.5q0 -30 -2.5 -57.5t-6.5 -38.5h-686q35 -219 250 -219q71 0 130 25t110 81l168 -147q-82 -91 -183 -135.5t-227 -44.5q-165 0 -279 71zM770 596
q0 36 -8 63q-18 75 -76.5 115.5t-140.5 40.5q-190 0 -230 -219h455zM399 1413h256v-225h-256v225z" />
    <glyph glyph-name="Eogonek" unicode="&#x118;" horiz-adv-x="1245" 
d="M182 1413h940v-233h-686v-357h639v-233h-639v-350h686v-240h-940v1413zM877.5 -425.5q-51.5 25.5 -80.5 72.5t-29 107q0 80 47.5 143.5t116.5 102.5h190q-23 -7 -73 -34.5t-93 -74t-43 -104.5q0 -50 20 -69t54 -19q61 0 103 57l122 -84q-81 -123 -219 -123
q-64 0 -115.5 25.5z" />
    <glyph glyph-name="eogonek" unicode="&#x119;" horiz-adv-x="1069" 
d="M1007.5 458.5q-2.5 -27.5 -6.5 -38.5h-686q35 -219 250 -219q71 0 130 25t110 81l168 -147q-101 -111 -230 -153q-53 -33 -90 -77t-37 -96q0 -50 20 -69t54 -19q61 0 103 57l122 -84q-81 -123 -219 -123q-64 0 -115.5 25.5t-80.5 72.5t-29 107q0 99 78 179
q-161 3 -272 74.5t-165.5 188t-54.5 253.5q0 136 54 256t164.5 194t271.5 74q164 0 268 -75.5t149.5 -190t45.5 -238.5q0 -30 -2.5 -57.5zM770 596q0 36 -8 63q-18 75 -76.5 115.5t-140.5 40.5q-190 0 -230 -219h455z" />
    <glyph glyph-name="Ecaron" unicode="&#x11a;" horiz-adv-x="1245" 
d="M182 1413h940v-233h-686v-357h639v-233h-639v-350h686v-240h-940v1413zM336 1827h189l127 -135l129 135h188l-317 -332z" />
    <glyph glyph-name="ecaron" unicode="&#x11b;" horiz-adv-x="1069" 
d="M284 51q-114 71 -170.5 188.5t-56.5 256.5q0 136 54 256t164.5 194t271.5 74q164 0 268 -75.5t149.5 -190t45.5 -238.5q0 -30 -2.5 -57.5t-6.5 -38.5h-686q35 -219 250 -219q71 0 130 25t110 81l168 -147q-82 -91 -183 -135.5t-227 -44.5q-165 0 -279 71zM770 596
q0 36 -8 63q-18 75 -76.5 115.5t-140.5 40.5q-190 0 -230 -219h455zM211 1413h189l127 -135l129 135h188l-317 -332z" />
    <glyph glyph-name="Gbreve" unicode="&#x11e;" horiz-adv-x="1534" 
d="M1407 764v-764h-201l-22 199q-58 -101 -168.5 -160t-249.5 -59q-224 0 -378 98t-230 263.5t-76 365.5q0 201 75.5 366t229 264t377.5 99q210 0 370.5 -104.5t245.5 -301.5l-225 -94q-47 140 -150 209t-243 69q-143 0 -239.5 -67.5t-142.5 -180t-46 -249.5q0 -146 46 -261
t143 -182t243 -67q111 0 196.5 40.5t135 119.5t53.5 192h-311v205h567zM523 1625.5q-77 68.5 -77 201.5h172q0 -63 40 -95t104 -32t103.5 33t39.5 94h172q0 -270 -315 -270q-162 0 -239 68.5z" />
    <glyph glyph-name="gbreve" unicode="&#x11f;" horiz-adv-x="1051" 
d="M803.5 114.5q81.5 -25.5 135.5 -86t54 -167.5q0 -109 -57.5 -184.5t-157.5 -112.5t-227 -37q-153 0 -261 45.5t-163 126t-55 184.5q0 23 4 43l116 98q-98 66 -98 195q0 64 23.5 114t69.5 90q-40 48 -61.5 106.5t-21.5 123.5q0 106 56 189.5t150 130.5t204 47
q65 0 125 -16.5t111 -47.5l153 131l127 -155l-145 -117q43 -77 43 -174q0 -108 -55 -191t-148 -128.5t-203 -45.5q-101 0 -190 39q-29 -19 -29 -53t27.5 -52.5t73 -27t135.5 -18.5q18 -3 34.5 -4.5t30.5 -3.5q118 -16 199.5 -41.5zM400 781.5q-44 -49.5 -44 -130.5
q0 -79 43.5 -127.5t122.5 -48.5t121.5 48.5t42.5 127.5q0 81 -43 130.5t-121 49.5t-122 -49.5zM705 -255q57 30 57 89q0 37 -25.5 58t-76 32.5t-142.5 20.5q-9 1 -65 6t-110 16l-54 -90l6 -27q21 -71 88.5 -103t165.5 -32q99 0 156 30zM288 1211.5q-77 68.5 -77 201.5h172
q0 -63 40 -95t104 -32t103.5 33t39.5 94h172q0 -270 -315 -270q-162 0 -239 68.5z" />
    <glyph glyph-name="Gdotaccent" unicode="&#x120;" horiz-adv-x="1534" 
d="M1407 764v-764h-201l-22 199q-58 -101 -168.5 -160t-249.5 -59q-224 0 -378 98t-230 263.5t-76 365.5q0 201 75.5 366t229 264t377.5 99q210 0 370.5 -104.5t245.5 -301.5l-225 -94q-47 140 -150 209t-243 69q-143 0 -239.5 -67.5t-142.5 -180t-46 -249.5q0 -146 46 -261
t143 -182t243 -67q111 0 196.5 40.5t135 119.5t53.5 192h-311v205h567zM633 1827h256v-225h-256v225z" />
    <glyph glyph-name="gdotaccent" unicode="&#x121;" horiz-adv-x="1051" 
d="M803.5 114.5q81.5 -25.5 135.5 -86t54 -167.5q0 -109 -57.5 -184.5t-157.5 -112.5t-227 -37q-153 0 -261 45.5t-163 126t-55 184.5q0 23 4 43l116 98q-98 66 -98 195q0 64 23.5 114t69.5 90q-40 48 -61.5 106.5t-21.5 123.5q0 106 56 189.5t150 130.5t204 47
q65 0 125 -16.5t111 -47.5l153 131l127 -155l-145 -117q43 -77 43 -174q0 -108 -55 -191t-148 -128.5t-203 -45.5q-101 0 -190 39q-29 -19 -29 -53t27.5 -52.5t73 -27t135.5 -18.5q18 -3 34.5 -4.5t30.5 -3.5q118 -16 199.5 -41.5zM400 781.5q-44 -49.5 -44 -130.5
q0 -79 43.5 -127.5t122.5 -48.5t121.5 48.5t42.5 127.5q0 81 -43 130.5t-121 49.5t-122 -49.5zM705 -255q57 30 57 89q0 37 -25.5 58t-76 32.5t-142.5 20.5q-9 1 -65 6t-110 16l-54 -90l6 -27q21 -71 88.5 -103t165.5 -32q99 0 156 30zM397 1413h256v-225h-256v225z" />
    <glyph glyph-name="uni0122" unicode="&#x122;" horiz-adv-x="1534" 
d="M1407 764v-764h-201l-22 199q-58 -101 -168.5 -160t-249.5 -59q-224 0 -378 98t-230 263.5t-76 365.5q0 201 75.5 366t229 264t377.5 99q210 0 370.5 -104.5t245.5 -301.5l-225 -94q-47 140 -150 209t-243 69q-143 0 -239.5 -67.5t-142.5 -180t-46 -249.5q0 -146 46 -261
t143 -182t243 -67q111 0 196.5 40.5t135 119.5t53.5 192h-311v205h567zM655 -106h254l-248 -353h-141z" />
    <glyph glyph-name="uni0123" unicode="&#x123;" horiz-adv-x="1051" 
d="M616 1119h-254l248 315h141zM803.5 114.5q81.5 -25.5 135.5 -86t54 -167.5q0 -109 -57.5 -184.5t-157.5 -112.5t-227 -37q-153 0 -261 45.5t-163 126t-55 184.5q0 23 4 43l116 98q-98 66 -98 195q0 64 23.5 114t69.5 90q-40 48 -61.5 106.5t-21.5 123.5q0 106 56 189.5
t150 130.5t204 47q65 0 125 -16.5t111 -47.5l153 131l127 -155l-145 -117q43 -77 43 -174q0 -108 -55 -191t-148 -128.5t-203 -45.5q-101 0 -190 39q-29 -19 -29 -53t27.5 -52.5t73 -27t135.5 -18.5q18 -3 34.5 -4.5t30.5 -3.5q118 -16 199.5 -41.5zM400 781.5
q-44 -49.5 -44 -130.5q0 -79 43.5 -127.5t122.5 -48.5t121.5 48.5t42.5 127.5q0 81 -43 130.5t-121 49.5t-122 -49.5zM705 -255q57 30 57 89q0 37 -25.5 58t-76 32.5t-142.5 20.5q-9 1 -65 6t-110 16l-54 -90l6 -27q21 -71 88.5 -103t165.5 -32q99 0 156 30z" />
    <glyph glyph-name="Hbar" unicode="&#x126;" horiz-adv-x="1491" 
d="M1411 1043h-102v-1043h-254v590h-619v-590h-254v1043h-102v143h102v227h254v-227h619v227h254v-227h102v-143zM1055 1043h-619v-220h619v220z" />
    <glyph glyph-name="hbar" unicode="&#x127;" horiz-adv-x="1169" 
d="M892 961q83 -59 122 -154.5t39 -206.5v-600h-248v569q0 106 -39 168t-141 62q-113 0 -171.5 -81t-58.5 -212v-506h-248v1108h-145v164h145v141h248v-141h242v-164h-242v-225q57 70 133.5 103.5t155.5 33.5q125 0 208 -59z" />
    <glyph glyph-name="Itilde" unicode="&#x128;" horiz-adv-x="618" 
d="M182 1413h254v-1413h-254v1413zM360 1532.5q-33 13.5 -55 31.5t-49 47q-26 27 -43 39.5t-37 12.5q-31 0 -48 -35.5t-17 -101.5h-140q0 137 57 211.5t156 74.5q56 0 93.5 -23.5t79.5 -65.5q29 -28 45.5 -40t35.5 -12q27 0 44.5 35.5t17.5 99.5h145q0 -137 -55.5 -212
t-153.5 -75q-43 0 -76 13.5z" />
    <glyph glyph-name="itilde" unicode="&#x129;" horiz-adv-x="535" 
d="M145 999h244v-999h-244v999zM319 1119.5q-33 13.5 -55 31.5t-49 47q-26 27 -43 39.5t-37 12.5q-31 0 -48 -35.5t-17 -101.5h-140q0 137 57 211.5t156 74.5q56 0 93.5 -23.5t79.5 -65.5q29 -28 45.5 -40t35.5 -12q27 0 44.5 35.5t17.5 99.5h145q0 -137 -55.5 -212
t-153.5 -75q-43 0 -76 13.5z" />
    <glyph glyph-name="Imacron" unicode="&#x12a;" horiz-adv-x="618" 
d="M182 1413h254v-1413h-254v1413zM28 1704h559v-143h-559v143z" />
    <glyph glyph-name="imacron" unicode="&#x12b;" horiz-adv-x="535" 
d="M145 999h244v-999h-244v999zM-13 1290h559v-143h-559v143z" />
    <glyph glyph-name="Iogonek" unicode="&#x12e;" horiz-adv-x="618" 
d="M182 1413h254v-1413h-254v1413zM191.5 -425.5q-51.5 25.5 -80.5 72.5t-29 107q0 80 47.5 143.5t116.5 102.5h190q-23 -7 -73 -34.5t-93 -74t-43 -104.5q0 -50 20 -69t54 -19q61 0 103 57l122 -84q-81 -123 -219 -123q-64 0 -115.5 25.5z" />
    <glyph glyph-name="iogonek" unicode="&#x12f;" horiz-adv-x="535" 
d="M145 999h244v-999h-244v999zM139 1413h256v-225h-256v225zM144.5 -425.5q-51.5 25.5 -80.5 72.5t-29 107q0 80 47.5 143.5t116.5 102.5h190q-23 -7 -73 -34.5t-93 -74t-43 -104.5q0 -50 20 -69t54 -19q61 0 103 57l122 -84q-81 -123 -219 -123q-64 0 -115.5 25.5z" />
    <glyph glyph-name="Idotaccent" unicode="&#x130;" horiz-adv-x="618" 
d="M182 1413h254v-1413h-254v1413zM180 1827h256v-225h-256v225z" />
    <glyph glyph-name="dotlessi" unicode="&#x131;" horiz-adv-x="535" 
d="M145 999h244v-999h-244v999z" />
    <glyph glyph-name="IJ" unicode="&#x132;" horiz-adv-x="1757" 
d="M182 1413h254v-1413h-254v1413zM881.5 41.5q-104.5 61.5 -164 166.5t-68.5 232l250 29q8 -113 64 -183.5t163 -70.5q89 0 137.5 33.5t67 96t18.5 161.5v674h-532v233h786v-903q0 -242 -115.5 -386t-361.5 -144q-140 0 -244.5 61.5z" />
    <glyph glyph-name="uni0136" unicode="&#x136;" horiz-adv-x="1491" 
d="M182 1413h254v-737l688 737h340l-565 -579l576 -834h-316l-436 664l-287 -297v-367h-254v1413zM631 -106h254l-248 -353h-141z" />
    <glyph glyph-name="uni0137" unicode="&#x137;" horiz-adv-x="1118" 
d="M147 1413h244v-829l377 415h317l-374 -387l415 -612h-288l-293 463l-154 -170v-293h-244v1413zM508 -106h254l-248 -353h-141z" />
    <glyph glyph-name="kgreenlandic" unicode="&#x138;" horiz-adv-x="1116" 
d="M145 999h244v-415l377 415h317l-374 -387l415 -612h-288l-293 463l-154 -170v-293h-244v999z" />
    <glyph glyph-name="Lacute" unicode="&#x139;" horiz-adv-x="1063" 
d="M182 1413h254v-1173h604v-240h-858v1413zM418 1827h260l-307 -289h-178z" />
    <glyph glyph-name="lacute" unicode="&#x13a;" horiz-adv-x="573" 
d="M195 28.5q-56 48.5 -56 170.5v1214h244v-1147q0 -67 80 -67q28 0 67 6v-205q-102 -20 -182 -20q-97 0 -153 48.5zM385 1825h260l-307 -289h-178z" />
    <glyph glyph-name="uni013B" unicode="&#x13b;" horiz-adv-x="1063" 
d="M182 1413h254v-1173h604v-240h-858v1413zM506 -106h254l-248 -353h-141z" />
    <glyph glyph-name="uni013C" unicode="&#x13c;" horiz-adv-x="573" 
d="M195 28.5q-56 48.5 -56 170.5v1214h244v-1147q0 -67 80 -67q28 0 67 6v-205q-102 -20 -182 -20q-97 0 -153 48.5zM248 -106h254l-248 -353h-141z" />
    <glyph glyph-name="Lcaron" unicode="&#x13d;" horiz-adv-x="1063" 
d="M182 1413h254v-1173h604v-240h-858v1413zM744 1413h256l-228 -455h-143z" />
    <glyph glyph-name="lcaron" unicode="&#x13e;" horiz-adv-x="573" 
d="M195 28.5q-56 48.5 -56 170.5v1214h244v-1147q0 -67 80 -67q28 0 67 6v-205q-102 -20 -182 -20q-97 0 -153 48.5zM572 1413h256l-228 -455h-143z" />
    <glyph glyph-name="Lslash" unicode="&#x141;" horiz-adv-x="1063" 
d="M1040 240v-240h-858v333l-146 -165v270l146 165v810h254v-524l198 223v-269l-198 -223v-380h604z" />
    <glyph glyph-name="lslash" unicode="&#x142;" horiz-adv-x="573" 
d="M383 638v-372q0 -67 80 -67q28 0 67 6v-205q-102 -20 -182 -20q-97 0 -153 48.5t-56 170.5v200l-88 -86v230l88 86v784h244v-545l147 144v-230z" />
    <glyph glyph-name="Nacute" unicode="&#x143;" horiz-adv-x="1454" 
d="M1272 1413v-1413h-254l-592 993v-993h-244v1413h252l594 -988v988h244zM833 1827h260l-307 -289h-178z" />
    <glyph glyph-name="nacute" unicode="&#x144;" horiz-adv-x="1163" 
d="M145 999h244v-116q57 69 135 103t158 34q124 0 206 -59t120.5 -154.5t38.5 -206.5v-600h-244v569q0 101 -50 163.5t-141 62.5q-106 0 -164.5 -60.5t-58.5 -187.5v-547h-244v999zM694 1413h260l-307 -289h-178z" />
    <glyph glyph-name="uni0145" unicode="&#x145;" horiz-adv-x="1454" 
d="M1272 1413v-1413h-254l-592 993v-993h-244v1413h252l594 -988v988h244zM621 -106h254l-248 -353h-141z" />
    <glyph glyph-name="uni0146" unicode="&#x146;" horiz-adv-x="1163" 
d="M145 999h244v-116q57 69 135 103t158 34q124 0 206 -59t120.5 -154.5t38.5 -206.5v-600h-244v569q0 101 -50 163.5t-141 62.5q-106 0 -164.5 -60.5t-58.5 -187.5v-547h-244v999zM481 -106h254l-248 -353h-141z" />
    <glyph glyph-name="Ncaron" unicode="&#x147;" horiz-adv-x="1454" 
d="M1272 1413v-1413h-254l-592 993v-993h-244v1413h252l594 -988v988h244zM409 1827h189l127 -135l129 135h188l-317 -332z" />
    <glyph glyph-name="ncaron" unicode="&#x148;" horiz-adv-x="1163" 
d="M145 999h244v-116q57 69 135 103t158 34q124 0 206 -59t120.5 -154.5t38.5 -206.5v-600h-244v569q0 101 -50 163.5t-141 62.5q-106 0 -164.5 -60.5t-58.5 -187.5v-547h-244v999zM270 1413h189l127 -135l129 135h188l-317 -332z" />
    <glyph glyph-name="Eng" unicode="&#x14a;" horiz-adv-x="1454" 
d="M1270 1413v-1413q0 -163 -74 -266t-252 -103q-78 0 -141 13v159q39 -6 76 -6q77 0 124.5 28t47.5 83q0 14 -2 24t-9 21l-614 1047v-1000h-244v1413h252l594 -999v999h242z" />
    <glyph glyph-name="eng" unicode="&#x14b;" horiz-adv-x="1229" 
d="M663 -428q-46 10 -79 22l55 181q62 -15 104 -15q27 0 40 10.5t16.5 30t3.5 56.5v712q0 101 -50 163.5t-141 62.5q-107 0 -166 -61t-59 -187v-547h-242v999h242v-116q57 69 136 103t159 34q124 0 205.5 -59t119 -154.5t37.5 -206.5v-715q0 -93 -32 -166t-98 -115t-164 -42
q-41 0 -87 10z" />
    <glyph glyph-name="Omacron" unicode="&#x14c;" horiz-adv-x="1528" 
d="M386.5 78.5q-153.5 98.5 -229 263.5t-75.5 365t75.5 365t229 263.5t377.5 98.5t377.5 -98.5t229 -263.5t75.5 -365t-75.5 -365t-229 -263.5t-377.5 -98.5t-377.5 98.5zM1001.5 272.5q92.5 67.5 134.5 180.5t42 254t-42 253.5t-134.5 180t-237.5 67.5t-237.5 -67.5
t-134.5 -180t-42 -253.5t42 -254t134.5 -180.5t237.5 -67.5t237.5 67.5zM483 1704h559v-143h-559v143z" />
    <glyph glyph-name="omacron" unicode="&#x14d;" horiz-adv-x="1130" 
d="M298 50.5q-117 70.5 -181 190t-64 261.5q0 141 64 259.5t181 188.5t267 70t267 -70t181 -188.5t64 -259.5q0 -142 -64 -261.5t-181 -190t-267 -70.5t-267 70.5zM711 232.5q58 42.5 85 113t27 156.5q0 134 -63.5 220.5t-194.5 86.5q-88 0 -146 -41.5t-85 -110.5t-27 -155
t27 -156.5t85 -113t146 -42.5t146 42.5zM284 1290h559v-143h-559v143z" />
    <glyph glyph-name="Ohungarumlaut" unicode="&#x150;" horiz-adv-x="1528" 
d="M386.5 78.5q-153.5 98.5 -229 263.5t-75.5 365t75.5 365t229 263.5t377.5 98.5t377.5 -98.5t229 -263.5t75.5 -365t-75.5 -365t-229 -263.5t-377.5 -98.5t-377.5 98.5zM1001.5 272.5q92.5 67.5 134.5 180.5t42 254t-42 253.5t-134.5 180t-237.5 67.5t-237.5 -67.5
t-134.5 -180t-42 -253.5t42 -254t134.5 -180.5t237.5 -67.5t237.5 67.5zM668 1827h219l-266 -330h-178zM1057 1827h260l-307 -330h-178z" />
    <glyph glyph-name="ohungarumlaut" unicode="&#x151;" horiz-adv-x="1130" 
d="M298 50.5q-117 70.5 -181 190t-64 261.5q0 141 64 259.5t181 188.5t267 70t267 -70t181 -188.5t64 -259.5q0 -142 -64 -261.5t-181 -190t-267 -70.5t-267 70.5zM711 232.5q58 42.5 85 113t27 156.5q0 134 -63.5 220.5t-194.5 86.5q-88 0 -146 -41.5t-85 -110.5t-27 -155
t27 -156.5t85 -113t146 -42.5t146 42.5zM469 1413h219l-266 -330h-178zM858 1413h260l-307 -330h-178z" />
    <glyph glyph-name="OE" unicode="&#x152;" horiz-adv-x="2251" 
d="M1442 1180v-357h639v-233h-639v-350h686v-240h-940v111q-171 -131 -424 -131q-224 0 -377.5 98.5t-229 263.5t-75.5 365t75.5 365t229 263.5t377.5 98.5q253 0 424 -131v110h940v-233h-686zM1001.5 272.5q92.5 67.5 134.5 180.5t42 254t-42 253.5t-134.5 180t-237.5 67.5
t-237.5 -67.5t-134.5 -180t-42 -253.5t42 -254t134.5 -180.5t237.5 -67.5t237.5 67.5z" />
    <glyph glyph-name="oe" unicode="&#x153;" horiz-adv-x="1833" 
d="M1771.5 458.5q-2.5 -27.5 -6.5 -38.5h-686q35 -219 250 -219q71 0 130 25t110 81l168 -147q-82 -91 -183 -135.5t-227 -44.5t-222.5 42t-162.5 118q-70 -76 -166 -118t-211 -42q-150 0 -267 70.5t-181 190t-64 261.5q0 141 64 259.5t181 188.5t267 70q116 0 212.5 -42
t165.5 -118q63 75 155.5 117.5t212.5 42.5q164 0 268 -75.5t149.5 -190t45.5 -238.5q0 -30 -2.5 -57.5zM1534 596q0 36 -8 63q-18 75 -76.5 115.5t-140.5 40.5q-190 0 -230 -219h455zM749.5 267q63.5 77 72.5 198q-1 10 -1 31q0 25 1 38q-7 122 -70.5 198.5t-186.5 76.5
q-88 0 -146 -41.5t-85 -110.5t-27 -155t27 -156.5t85 -113t146 -42.5q121 0 184.5 77z" />
    <glyph glyph-name="Racute" unicode="&#x154;" horiz-adv-x="1268" 
d="M182 1413h457q134 0 245.5 -49.5t177.5 -144t66 -222.5q0 -87 -35 -160.5t-97.5 -126.5t-143.5 -81l393 -629h-291l-348 604h-82h-88v-604h-254v1413zM662 811q101 4 158 53t57 129q0 88 -64 140.5t-172 52.5h-203v-375h224zM729 1827h260l-307 -289h-178z" />
    <glyph glyph-name="racute" unicode="&#x155;" horiz-adv-x="815" 
d="M145 999h238v-168q31 88 106 138.5t162 50.5q51 0 99.5 -18t83.5 -54l-111 -200q-51 34 -109 34q-60 0 -113.5 -38.5t-86.5 -119.5t-33 -202v-422h-236v999zM561 1413h260l-307 -289h-178z" />
    <glyph glyph-name="uni0156" unicode="&#x156;" horiz-adv-x="1268" 
d="M182 1413h457q134 0 245.5 -49.5t177.5 -144t66 -222.5q0 -87 -35 -160.5t-97.5 -126.5t-143.5 -81l393 -629h-291l-348 604h-82h-88v-604h-254v1413zM662 811q101 4 158 53t57 129q0 88 -64 140.5t-172 52.5h-203v-375h224zM582 -106h254l-248 -353h-141z" />
    <glyph glyph-name="uni0157" unicode="&#x157;" horiz-adv-x="815" 
d="M145 999h238v-168q31 88 106 138.5t162 50.5q51 0 99.5 -18t83.5 -54l-111 -200q-51 34 -109 34q-60 0 -113.5 -38.5t-86.5 -119.5t-33 -202v-422h-236v999zM301 -106h254l-248 -353h-141z" />
    <glyph glyph-name="Rcaron" unicode="&#x158;" horiz-adv-x="1268" 
d="M182 1413h457q134 0 245.5 -49.5t177.5 -144t66 -222.5q0 -87 -35 -160.5t-97.5 -126.5t-143.5 -81l393 -629h-291l-348 604h-82h-88v-604h-254v1413zM662 811q101 4 158 53t57 129q0 88 -64 140.5t-172 52.5h-203v-375h224zM305 1827h189l127 -135l129 135h188
l-317 -332z" />
    <glyph glyph-name="rcaron" unicode="&#x159;" horiz-adv-x="815" 
d="M145 999h238v-168q31 88 106 138.5t162 50.5q51 0 99.5 -18t83.5 -54l-111 -200q-51 34 -109 34q-60 0 -113.5 -38.5t-86.5 -119.5t-33 -202v-422h-236v999zM137 1413h189l127 -135l129 135h188l-317 -332z" />
    <glyph glyph-name="Sacute" unicode="&#x15a;" horiz-adv-x="1137" 
d="M341.5 31q-115.5 47 -195 140.5t-101.5 227.5l252 64q13 -126 93.5 -190t199.5 -64q73 0 126 23.5t80 64.5t27 92q0 61 -37.5 104t-93.5 71t-154 67q-128 51 -207 94.5t-135.5 121.5t-56.5 197q0 121 59.5 209.5t160 134.5t221.5 46q136 0 248 -61.5t182 -186.5
l-211 -129q-37 72 -97 111.5t-131 39.5q-50 0 -90.5 -19t-64 -53.5t-23.5 -78.5q0 -54 35 -92t88.5 -64t146.5 -62q132 -51 214 -96t141 -126t59 -205q0 -130 -65.5 -227t-177.5 -149t-248 -52q-129 0 -244.5 47zM684 1827h260l-307 -289h-178z" />
    <glyph glyph-name="sacute" unicode="&#x15b;" horiz-adv-x="909" 
d="M257.5 17.5q-86.5 37.5 -146 101t-84.5 141.5l194 86q26 -70 75 -117t138 -47q53 0 89.5 18t54.5 45.5t18 55.5q0 32 -23.5 53t-58.5 33.5t-101 29.5q-99 26 -162.5 53t-110 84.5t-46.5 154.5q0 101 51 171t135.5 105t184.5 35q127 0 224 -57t155 -160l-189 -103
q-31 56 -77.5 91.5t-120.5 35.5q-58 0 -93.5 -25t-35.5 -61q0 -28 22 -47t55.5 -31t94.5 -30q103 -29 170 -59.5t116.5 -93.5t49.5 -167q0 -110 -56 -185t-145 -111.5t-189 -36.5q-102 0 -188.5 37.5zM537 1413h260l-307 -289h-178z" />
    <glyph glyph-name="Scedilla" unicode="&#x15e;" horiz-adv-x="1137" 
d="M1017.5 195q-59.5 -94 -161.5 -148t-229 -62l-66 -85q32 -3 55 -13q66 -21 101 -68.5t35 -115.5q0 -63 -30 -114.5t-83 -81t-117 -29.5q-77 0 -134 39.5t-73 120.5l133 55q9 -32 29.5 -54t50.5 -22q35 0 57.5 22t22.5 56q0 48 -46.5 79t-121.5 31h-69l118 186
q-110 16 -203.5 67t-157.5 137.5t-83 203.5l252 64q13 -126 93.5 -190t199.5 -64q73 0 126 23.5t80 64.5t27 92q0 61 -37.5 104t-93.5 71t-154 67q-128 51 -207 94.5t-135.5 121.5t-56.5 197q0 121 59.5 209.5t160 134.5t221.5 46q136 0 248 -61.5t182 -186.5l-211 -129
q-37 72 -97 111.5t-131 39.5q-50 0 -90.5 -19t-64 -53.5t-23.5 -78.5q0 -54 35 -92t88.5 -64t146.5 -62q132 -51 214 -96t141 -126t59 -205q0 -123 -59.5 -217z" />
    <glyph glyph-name="scedilla" unicode="&#x15f;" horiz-adv-x="909" 
d="M350 694q22 -19 55.5 -31t94.5 -30q103 -29 170 -59.5t116.5 -93.5t49.5 -167q0 -131 -78 -212t-199 -109l-72 -92q32 -3 55 -13q66 -21 101 -68.5t35 -115.5q0 -63 -30 -114.5t-83 -81t-117 -29.5q-77 0 -134 39.5t-73 120.5l133 55q9 -32 29.5 -54t50.5 -22
q35 0 57.5 22t22.5 56q0 48 -46.5 79t-121.5 31h-69l112 176q-93 7 -171.5 45.5t-133 99.5t-77.5 134l194 86q26 -70 75 -117t138 -47q53 0 89.5 18t54.5 45.5t18 55.5q0 32 -23.5 53t-58.5 33.5t-101 29.5q-99 26 -162.5 53t-110 84.5t-46.5 154.5q0 101 51 171t135.5 105
t184.5 35q127 0 224 -57t155 -160l-189 -103q-31 56 -77.5 91.5t-120.5 35.5q-58 0 -93.5 -25t-35.5 -61q0 -28 22 -47z" />
    <glyph glyph-name="Scaron" unicode="&#x160;" horiz-adv-x="1137" 
d="M341.5 31q-115.5 47 -195 140.5t-101.5 227.5l252 64q13 -126 93.5 -190t199.5 -64q73 0 126 23.5t80 64.5t27 92q0 61 -37.5 104t-93.5 71t-154 67q-128 51 -207 94.5t-135.5 121.5t-56.5 197q0 121 59.5 209.5t160 134.5t221.5 46q136 0 248 -61.5t182 -186.5
l-211 -129q-37 72 -97 111.5t-131 39.5q-50 0 -90.5 -19t-64 -53.5t-23.5 -78.5q0 -54 35 -92t88.5 -64t146.5 -62q132 -51 214 -96t141 -126t59 -205q0 -130 -65.5 -227t-177.5 -149t-248 -52q-129 0 -244.5 47zM260 1827h189l127 -135l129 135h188l-317 -332z" />
    <glyph glyph-name="scaron" unicode="&#x161;" horiz-adv-x="909" 
d="M257.5 17.5q-86.5 37.5 -146 101t-84.5 141.5l194 86q26 -70 75 -117t138 -47q53 0 89.5 18t54.5 45.5t18 55.5q0 32 -23.5 53t-58.5 33.5t-101 29.5q-99 26 -162.5 53t-110 84.5t-46.5 154.5q0 101 51 171t135.5 105t184.5 35q127 0 224 -57t155 -160l-189 -103
q-31 56 -77.5 91.5t-120.5 35.5q-58 0 -93.5 -25t-35.5 -61q0 -28 22 -47t55.5 -31t94.5 -30q103 -29 170 -59.5t116.5 -93.5t49.5 -167q0 -110 -56 -185t-145 -111.5t-189 -36.5q-102 0 -188.5 37.5zM112 1413h189l127 -135l129 135h188l-317 -332z" />
    <glyph glyph-name="uni0162" unicode="&#x162;" horiz-adv-x="1180" 
d="M463 1186h-443v227h1139v-227h-442v-1186h-254v1186zM413 -482.5q-57 39.5 -73 120.5l133 55q9 -32 29.5 -54t50.5 -22q35 0 57.5 22t22.5 56q0 48 -46.5 79t-121.5 31h-69l123 193h143l-76 -98q32 -3 55 -13q66 -21 101 -68.5t35 -115.5q0 -63 -30 -114.5t-83 -81
t-117 -29.5q-77 0 -134 39.5z" />
    <glyph glyph-name="uni0163" unicode="&#x163;" horiz-adv-x="754" 
d="M430 795v-476q0 -68 29.5 -96t81.5 -28q35 0 72 10.5t67 25.5v-221q-57 -20 -127 -27l-64 -83q32 -3 55 -13q66 -21 101 -68.5t35 -115.5q0 -63 -30 -114.5t-83 -81t-117 -29.5q-77 0 -134 39.5t-73 120.5l133 55q9 -32 29.5 -54t50.5 -22q35 0 57.5 22t22.5 56
q0 48 -46.5 79t-121.5 31h-69l116 183q-109 21 -169 96.5t-60 191.5v519h-161v204h165v248l240 174v-422h250v-204h-250z" />
    <glyph glyph-name="Tcaron" unicode="&#x164;" horiz-adv-x="1180" 
d="M463 1186h-443v227h1139v-227h-442v-1186h-254v1186zM272 1827h189l127 -135l129 135h188l-317 -332z" />
    <glyph glyph-name="tcaron" unicode="&#x165;" horiz-adv-x="754" 
d="M331 16q-70 36 -107.5 102.5t-37.5 157.5v519h-161v204h165v248l240 174v-422h250v-204h-250v-476q0 -68 29.5 -96t81.5 -28q35 0 72 10.5t67 25.5v-221q-32 -12 -81.5 -21t-100.5 -9q-97 0 -167 36zM643 1563h256l-228 -455h-143z" />
    <glyph glyph-name="Tbar" unicode="&#x166;" horiz-adv-x="1180" 
d="M717 1186v-397h190v-164h-190v-625h-254v625h-191v164h191v397h-443v227h1139v-227h-442z" />
    <glyph glyph-name="tbar" unicode="&#x167;" horiz-adv-x="754" 
d="M430 795v-213h246v-164h-246v-99q0 -68 29.5 -96t81.5 -28q35 0 72 10.5t67 25.5v-221q-32 -12 -81.5 -21t-100.5 -9q-97 0 -167 36t-107.5 102.5t-37.5 157.5v142h-145v164h145v213h-161v204h165v248l240 174v-422h250v-204h-250z" />
    <glyph glyph-name="Utilde" unicode="&#x168;" horiz-adv-x="1380" 
d="M282.5 130.5q-132.5 150.5 -132.5 420.5v862h253v-833q0 -121 25.5 -197.5t88 -117t173.5 -40.5t174 40t88 117t25 198v833h254v-852q0 -277 -132.5 -429t-408.5 -152q-275 0 -407.5 150.5zM737 1532.5q-33 13.5 -55 31.5t-49 47q-26 27 -43 39.5t-37 12.5
q-31 0 -48 -35.5t-17 -101.5h-140q0 137 57 211.5t156 74.5q56 0 93.5 -23.5t79.5 -65.5q29 -28 45.5 -40t35.5 -12q27 0 44.5 35.5t17.5 99.5h145q0 -137 -55.5 -212t-153.5 -75q-43 0 -76 13.5z" />
    <glyph glyph-name="utilde" unicode="&#x169;" horiz-adv-x="1161" 
d="M273.5 39q-81.5 59 -119 154t-37.5 206v600h241v-569q0 -101 50 -163t141 -62q107 0 166 61t59 187v546h242v-999h-242v117q-56 -70 -135 -103.5t-160 -33.5q-124 0 -205.5 59zM632 1119.5q-33 13.5 -55 31.5t-49 47q-26 27 -43 39.5t-37 12.5q-31 0 -48 -35.5
t-17 -101.5h-140q0 137 57 211.5t156 74.5q56 0 93.5 -23.5t79.5 -65.5q29 -28 45.5 -40t35.5 -12q27 0 44.5 35.5t17.5 99.5h145q0 -137 -55.5 -212t-153.5 -75q-43 0 -76 13.5z" />
    <glyph glyph-name="Umacron" unicode="&#x16a;" horiz-adv-x="1380" 
d="M282.5 130.5q-132.5 150.5 -132.5 420.5v862h253v-833q0 -121 25.5 -197.5t88 -117t173.5 -40.5t174 40t88 117t25 198v833h254v-852q0 -277 -132.5 -429t-408.5 -152q-275 0 -407.5 150.5zM405 1704h559v-143h-559v143z" />
    <glyph glyph-name="umacron" unicode="&#x16b;" horiz-adv-x="1161" 
d="M273.5 39q-81.5 59 -119 154t-37.5 206v600h241v-569q0 -101 50 -163t141 -62q107 0 166 61t59 187v546h242v-999h-242v117q-56 -70 -135 -103.5t-160 -33.5q-124 0 -205.5 59zM301 1290h559v-143h-559v143z" />
    <glyph glyph-name="Uring" unicode="&#x16e;" horiz-adv-x="1380" 
d="M282.5 130.5q-132.5 150.5 -132.5 420.5v862h253v-833q0 -121 25.5 -197.5t88 -117t173.5 -40.5t174 40t88 117t25 198v833h254v-852q0 -277 -132.5 -429t-408.5 -152q-275 0 -407.5 150.5zM568.5 1514.5q-52.5 31.5 -83 85t-30.5 114.5q0 63 30.5 115.5t83.5 83.5
t115 31t115.5 -30.5t85 -83t31.5 -116.5q0 -63 -31 -116t-84 -84t-117 -31q-63 0 -115.5 31.5zM757 1643q28 29 28 74q0 42 -27 69t-74 27q-44 0 -71 -27t-27 -69q0 -45 28 -74t70 -29q45 0 73 29z" />
    <glyph glyph-name="uring" unicode="&#x16f;" horiz-adv-x="1161" 
d="M273.5 39q-81.5 59 -119 154t-37.5 206v600h241v-569q0 -101 50 -163t141 -62q107 0 166 61t59 187v546h242v-999h-242v117q-56 -70 -135 -103.5t-160 -33.5q-124 0 -205.5 59zM463.5 1100.5q-52.5 31.5 -83 85t-30.5 114.5q0 63 30.5 115.5t83.5 83.5t115 31
t115.5 -30.5t85 -83t31.5 -116.5q0 -63 -31 -116t-84 -84t-117 -31q-63 0 -115.5 31.5zM652 1229q28 29 28 74q0 42 -27 69t-74 27q-44 0 -71 -27t-27 -69q0 -45 28 -74t70 -29q45 0 73 29z" />
    <glyph glyph-name="Uhungarumlaut" unicode="&#x170;" horiz-adv-x="1380" 
d="M282.5 130.5q-132.5 150.5 -132.5 420.5v862h253v-833q0 -121 25.5 -197.5t88 -117t173.5 -40.5t174 40t88 117t25 198v833h254v-852q0 -277 -132.5 -429t-408.5 -152q-275 0 -407.5 150.5zM590 1827h219l-266 -330h-178zM979 1827h260l-307 -330h-178z" />
    <glyph glyph-name="uhungarumlaut" unicode="&#x171;" horiz-adv-x="1161" 
d="M273.5 39q-81.5 59 -119 154t-37.5 206v600h241v-569q0 -101 50 -163t141 -62q107 0 166 61t59 187v546h242v-999h-242v117q-56 -70 -135 -103.5t-160 -33.5q-124 0 -205.5 59zM485 1413h219l-266 -330h-178zM874 1413h260l-307 -330h-178z" />
    <glyph glyph-name="Uogonek" unicode="&#x172;" horiz-adv-x="1380" 
d="M829 -60.5q-41 -45.5 -41 -101.5q0 -50 20 -69t54 -19q61 0 103 57l122 -84q-81 -123 -219 -123q-64 0 -115.5 25.5t-80.5 72.5t-29 107q0 95 74 175h-27q-275 0 -407.5 150.5t-132.5 420.5v862h253v-833q0 -121 25.5 -197.5t88 -117t173.5 -40.5t174 40t88 117t25 198
v833h254v-852q0 -208 -74.5 -347t-229.5 -196q-57 -33 -98 -78.5z" />
    <glyph glyph-name="uogonek" unicode="&#x173;" horiz-adv-x="1161" 
d="M1105 -328q-81 -123 -219 -123q-64 0 -115.5 25.5t-80.5 72.5t-29 107q0 80 47.5 143.5t116.5 102.5h-51v117q-56 -70 -135 -103.5t-160 -33.5q-124 0 -205.5 59t-119 154t-37.5 206v600h241v-569q0 -101 50 -163t141 -62q107 0 166 61t59 187v546h242v-999h-1
q-23 -7 -73 -34.5t-93 -74t-43 -104.5q0 -50 20 -69t54 -19q61 0 103 57z" />
    <glyph glyph-name="Wcircumflex" unicode="&#x174;" horiz-adv-x="2003" 
d="M25 1413h264l301 -1040l313 958h197l313 -958l301 1040h264l-424 -1413h-245l-308 930l-307 -930h-245zM1000 1864l317 -352h-188l-129 145l-127 -145h-189z" />
    <glyph glyph-name="wcircumflex" unicode="&#x175;" horiz-adv-x="1466" 
d="M10 999h260l170 -626l189 626h209l188 -624l172 624h260l-309 -999h-219l-197 655l-196 -655h-220zM734 1450l317 -352h-188l-129 145l-127 -145h-189z" />
    <glyph glyph-name="Ycircumflex" unicode="&#x176;" horiz-adv-x="1319" 
d="M528 551l-530 862h307l352 -618l355 618h309l-528 -862v-551h-265v551zM656 1864l317 -352h-188l-129 145l-127 -145h-189z" />
    <glyph glyph-name="ycircumflex" unicode="&#x177;" horiz-adv-x="1032" 
d="M385 27l-391 972h268l252 -694l256 694h268l-571 -1429h-266zM514 1450l317 -352h-188l-129 145l-127 -145h-189z" />
    <glyph glyph-name="Ydieresis" unicode="&#x178;" horiz-adv-x="1319" 
d="M528 551l-530 862h307l352 -618l355 618h309l-528 -862v-551h-265v551zM356 1827h205v-225h-205v225zM752 1827h204v-225h-204v225z" />
    <glyph glyph-name="Zacute" unicode="&#x179;" horiz-adv-x="1272" 
d="M1198 1229l-785 -1000h785v-229h-1139v176l788 1004h-743v233h1094v-184zM735 1827h260l-307 -289h-178z" />
    <glyph glyph-name="zacute" unicode="&#x17a;" horiz-adv-x="1004" 
d="M934 825l-542 -620h542v-205h-881v162l565 633h-536v204h852v-174zM600 1413h260l-307 -289h-178z" />
    <glyph glyph-name="Zdotaccent" unicode="&#x17b;" horiz-adv-x="1272" 
d="M1198 1229l-785 -1000h785v-229h-1139v176l788 1004h-743v233h1094v-184zM499 1827h256v-225h-256v225z" />
    <glyph glyph-name="zdotaccent" unicode="&#x17c;" horiz-adv-x="1004" 
d="M934 825l-542 -620h542v-205h-881v162l565 633h-536v204h852v-174zM364 1413h256v-225h-256v225z" />
    <glyph glyph-name="Zcaron" unicode="&#x17d;" horiz-adv-x="1272" 
d="M1198 1229l-785 -1000h785v-229h-1139v176l788 1004h-743v233h1094v-184zM311 1827h189l127 -135l129 135h188l-317 -332z" />
    <glyph glyph-name="zcaron" unicode="&#x17e;" horiz-adv-x="1004" 
d="M934 825l-542 -620h542v-205h-881v162l565 633h-536v204h852v-174zM176 1413h189l127 -135l129 135h188l-317 -332z" />
    <glyph glyph-name="florin" unicode="&#x192;" horiz-adv-x="942" 
d="M78 -252q99 0 153.5 25t78.5 85.5t24 172.5v786h-178v182h178v125q0 92 40.5 166t109.5 116t151 42q68 0 126 -26t122 -81l-133 -155q-40 34 -61.5 45.5t-53.5 11.5q-40 0 -68 -29t-28 -90v-125h229v-182h-229v-807q0 -230 -117 -338t-344 -108v184z" />
    <glyph glyph-name="uni01C3" unicode="&#x1c3;" horiz-adv-x="594" 
d="M176 1413h242l-29 -985h-184zM164 264h266v-264h-266v264z" />
    <glyph glyph-name="uni01C4" unicode="&#x1c4;" horiz-adv-x="2660" 
d="M182 1413h410q239 0 403.5 -83.5t248 -243.5t83.5 -390q0 -220 -85.5 -376t-250.5 -238t-401 -82h-408v1413zM565 233q247 0 377.5 110t130.5 364q0 169 -49 272.5t-155 152t-281 48.5h-152v-947h129zM2587 1229l-785 -1000h785v-229h-1139v176l788 1004h-743v233h1094
v-184zM1700 1827h189l127 -135l129 135h188l-317 -332z" />
    <glyph glyph-name="uni01C5" unicode="&#x1c5;" horiz-adv-x="2419" 
d="M182 1413h410q239 0 403.5 -83.5t248 -243.5t83.5 -390q0 -220 -85.5 -376t-250.5 -238t-401 -82h-408v1413zM565 233q247 0 377.5 110t130.5 364q0 169 -49 272.5t-155 152t-281 48.5h-152v-947h129zM2349 825l-542 -620h542v-205h-881v162l565 633h-536v204h852v-174z
M1591 1413h189l127 -135l129 135h188l-317 -332z" />
    <glyph glyph-name="uni01C6" unicode="&#x1c6;" horiz-adv-x="2175" 
d="M262 50.5q-98 70.5 -148.5 189t-50.5 260.5q0 141 50.5 259.5t147.5 189.5t231 71q84 0 159.5 -30t124.5 -91v514h248v-1413h-227l-11 113q-49 -68 -125.5 -100.5t-164.5 -32.5q-136 0 -234 70.5zM736.5 283q60.5 82 60.5 217q0 134 -61 216.5t-181 82.5t-182 -83.5
t-62 -215.5q0 -133 61.5 -216t182.5 -83t181.5 82zM2105 825l-542 -620h542v-205h-881v162l565 633h-536v204h852v-174zM1347 1413h189l127 -135l129 135h188l-317 -332z" />
    <glyph glyph-name="uni01C7" unicode="&#x1c7;" horiz-adv-x="2236" 
d="M182 1413h254v-1173h604v-240h-858v1413zM1361.5 41.5q-104.5 61.5 -164 166.5t-68.5 232l250 29q8 -113 64 -183.5t163 -70.5q89 0 137.5 33.5t67 96t18.5 161.5v674h-532v233h786v-903q0 -242 -115.5 -386t-361.5 -144q-140 0 -244.5 61.5z" />
    <glyph glyph-name="uni01C8" unicode="&#x1c8;" horiz-adv-x="1618" 
d="M182 1413h254v-1173h604v-240h-858v1413zM1218 1413h258v-225h-258v225zM1087 -428.5q-49 9.5 -82 22.5l62 211q55 -22 88 -22q70 0 70 94v1122h245v-1103q0 -95 -31.5 -170.5t-97 -119.5t-162.5 -44q-43 0 -92 9.5z" />
    <glyph glyph-name="uni01C9" unicode="&#x1c9;" horiz-adv-x="1116" 
d="M195 28.5q-56 48.5 -56 170.5v1214h244v-1147q0 -67 80 -67q28 0 67 6v-205q-102 -20 -182 -20q-97 0 -153 48.5zM716 1413h258v-225h-258v225zM585 -428.5q-49 9.5 -82 22.5l62 211q55 -22 88 -22q70 0 70 94v1122h245v-1103q0 -95 -31.5 -170.5t-97 -119.5t-162.5 -44
q-43 0 -92 9.5z" />
    <glyph glyph-name="uni01CA" unicode="&#x1ca;" horiz-adv-x="2593" 
d="M1272 1413v-1413h-254l-592 993v-993h-244v1413h252l594 -988v988h244zM1717.5 41.5q-104.5 61.5 -164 166.5t-68.5 232l250 29q8 -113 64 -183.5t163 -70.5q89 0 137.5 33.5t67 96t18.5 161.5v674h-532v233h786v-903q0 -242 -115.5 -386t-361.5 -144q-140 0 -244.5 61.5
z" />
    <glyph glyph-name="uni01CB" unicode="&#x1cb;" horiz-adv-x="1997" 
d="M1272 1413v-1413h-254l-592 993v-993h-244v1413h252l594 -988v988h244zM1597 1413h258v-225h-258v225zM1466 -428.5q-49 9.5 -82 22.5l62 211q55 -22 88 -22q70 0 70 94v1122h245v-1103q0 -95 -31.5 -170.5t-97 -119.5t-162.5 -44q-43 0 -92 9.5z" />
    <glyph glyph-name="uni01CC" unicode="&#x1cc;" horiz-adv-x="1706" 
d="M145 999h244v-116q57 69 135 103t158 34q124 0 206 -59t120.5 -154.5t38.5 -206.5v-600h-244v569q0 101 -50 163.5t-141 62.5q-106 0 -164.5 -60.5t-58.5 -187.5v-547h-244v999zM1306 1413h258v-225h-258v225zM1175 -428.5q-49 9.5 -82 22.5l62 211q55 -22 88 -22
q70 0 70 94v1122h245v-1103q0 -95 -31.5 -170.5t-97 -119.5t-162.5 -44q-43 0 -92 9.5z" />
    <glyph glyph-name="uni01CD" unicode="&#x1cd;" horiz-adv-x="1343" 
d="M578 1413h190l563 -1413h-274l-113 307h-541l-114 -307h-277zM864 524l-190 516l-191 -516h381zM354 1827h189l127 -135l129 135h188l-317 -332z" />
    <glyph glyph-name="uni01CE" unicode="&#x1ce;" horiz-adv-x="1055" 
d="M739.5 968q97.5 -52 149 -146t51.5 -216v-606h-201l-15 134q-46 -74 -133.5 -114t-178.5 -40q-103 0 -185.5 38.5t-130 112.5t-47.5 176q0 153 107.5 221t289.5 68h272q-3 77 -22 122.5t-63 67t-123 21.5q-80 0 -140 -40t-96 -101l-186 135q77 105 178.5 162t241.5 57
q134 0 231.5 -52zM589 217q56 31 89 82.5t41 112.5v8h-258q-79 0 -120.5 -35t-41.5 -86t41.5 -82t120.5 -31q72 0 128 31zM180 1413h189l127 -135l129 135h188l-317 -332z" />
    <glyph glyph-name="uni01CF" unicode="&#x1cf;" horiz-adv-x="618" 
d="M182 1413h254v-1413h-254v1413zM-9 1827h189l127 -135l129 135h188l-317 -332z" />
    <glyph glyph-name="uni01D0" unicode="&#x1d0;" horiz-adv-x="535" 
d="M145 999h244v-999h-244v999zM-49 1413h189l127 -135l129 135h188l-317 -332z" />
    <glyph glyph-name="uni01D1" unicode="&#x1d1;" horiz-adv-x="1528" 
d="M386.5 78.5q-153.5 98.5 -229 263.5t-75.5 365t75.5 365t229 263.5t377.5 98.5t377.5 -98.5t229 -263.5t75.5 -365t-75.5 -365t-229 -263.5t-377.5 -98.5t-377.5 98.5zM1001.5 272.5q92.5 67.5 134.5 180.5t42 254t-42 253.5t-134.5 180t-237.5 67.5t-237.5 -67.5
t-134.5 -180t-42 -253.5t42 -254t134.5 -180.5t237.5 -67.5t237.5 67.5zM446 1827h189l127 -135l129 135h188l-317 -332z" />
    <glyph glyph-name="uni01D2" unicode="&#x1d2;" horiz-adv-x="1130" 
d="M298 50.5q-117 70.5 -181 190t-64 261.5q0 141 64 259.5t181 188.5t267 70t267 -70t181 -188.5t64 -259.5q0 -142 -64 -261.5t-181 -190t-267 -70.5t-267 70.5zM711 232.5q58 42.5 85 113t27 156.5q0 134 -63.5 220.5t-194.5 86.5q-88 0 -146 -41.5t-85 -110.5t-27 -155
t27 -156.5t85 -113t146 -42.5t146 42.5zM247 1413h189l127 -135l129 135h188l-317 -332z" />
    <glyph glyph-name="uni01D3" unicode="&#x1d3;" horiz-adv-x="1380" 
d="M282.5 130.5q-132.5 150.5 -132.5 420.5v862h253v-833q0 -121 25.5 -197.5t88 -117t173.5 -40.5t174 40t88 117t25 198v833h254v-852q0 -277 -132.5 -429t-408.5 -152q-275 0 -407.5 150.5zM368 1827h189l127 -135l129 135h188l-317 -332z" />
    <glyph glyph-name="uni01D4" unicode="&#x1d4;" horiz-adv-x="1161" 
d="M273.5 39q-81.5 59 -119 154t-37.5 206v600h241v-569q0 -101 50 -163t141 -62q107 0 166 61t59 187v546h242v-999h-242v117q-56 -70 -135 -103.5t-160 -33.5q-124 0 -205.5 59zM264 1413h189l127 -135l129 135h188l-317 -332z" />
    <glyph glyph-name="uni01D5" unicode="&#x1d5;" horiz-adv-x="1380" 
d="M282.5 130.5q-132.5 150.5 -132.5 420.5v862h253v-833q0 -121 25.5 -197.5t88 -117t173.5 -40.5t174 40t88 117t25 198v833h254v-852q0 -277 -132.5 -429t-408.5 -152q-275 0 -407.5 150.5zM385 1827h205v-225h-205v225zM781 1827h204v-225h-204v225zM405 2117h559v-143
h-559v143z" />
    <glyph glyph-name="uni01D6" unicode="&#x1d6;" horiz-adv-x="1161" 
d="M273.5 39q-81.5 59 -119 154t-37.5 206v600h241v-569q0 -101 50 -163t141 -62q107 0 166 61t59 187v546h242v-999h-242v117q-56 -70 -135 -103.5t-160 -33.5q-124 0 -205.5 59zM280 1413h205v-225h-205v225zM676 1413h204v-225h-204v225zM301 1704h559v-143h-559v143z
" />
    <glyph glyph-name="uni01D7" unicode="&#x1d7;" horiz-adv-x="1380" 
d="M282.5 130.5q-132.5 150.5 -132.5 420.5v862h253v-833q0 -121 25.5 -197.5t88 -117t173.5 -40.5t174 40t88 117t25 198v833h254v-852q0 -277 -132.5 -429t-408.5 -152q-275 0 -407.5 150.5zM385 1827h205v-225h-205v225zM781 1827h204v-225h-204v225zM793 2240h260
l-307 -289h-178z" />
    <glyph glyph-name="uni01D8" unicode="&#x1d8;" horiz-adv-x="1161" 
d="M273.5 39q-81.5 59 -119 154t-37.5 206v600h241v-569q0 -101 50 -163t141 -62q107 0 166 61t59 187v546h242v-999h-242v117q-56 -70 -135 -103.5t-160 -33.5q-124 0 -205.5 59zM280 1413h205v-225h-205v225zM676 1413h204v-225h-204v225zM688 1827h260l-307 -289h-178z
" />
    <glyph glyph-name="uni01D9" unicode="&#x1d9;" horiz-adv-x="1380" 
d="M282.5 130.5q-132.5 150.5 -132.5 420.5v862h253v-833q0 -121 25.5 -197.5t88 -117t173.5 -40.5t174 40t88 117t25 198v833h254v-852q0 -277 -132.5 -429t-408.5 -152q-275 0 -407.5 150.5zM385 1827h205v-225h-205v225zM781 1827h204v-225h-204v225zM368 2240h189
l127 -135l129 135h188l-317 -332z" />
    <glyph glyph-name="uni01DA" unicode="&#x1da;" horiz-adv-x="1161" 
d="M273.5 39q-81.5 59 -119 154t-37.5 206v600h241v-569q0 -101 50 -163t141 -62q107 0 166 61t59 187v546h242v-999h-242v117q-56 -70 -135 -103.5t-160 -33.5q-124 0 -205.5 59zM280 1413h205v-225h-205v225zM676 1413h204v-225h-204v225zM264 1827h189l127 -135l129 135
h188l-317 -332z" />
    <glyph glyph-name="uni01DB" unicode="&#x1db;" horiz-adv-x="1380" 
d="M282.5 130.5q-132.5 150.5 -132.5 420.5v862h253v-833q0 -121 25.5 -197.5t88 -117t173.5 -40.5t174 40t88 117t25 198v833h254v-852q0 -277 -132.5 -429t-408.5 -152q-275 0 -407.5 150.5zM385 1827h205v-225h-205v225zM781 1827h204v-225h-204v225zM313 2240h260
l226 -309h-178z" />
    <glyph glyph-name="uni01DC" unicode="&#x1dc;" horiz-adv-x="1161" 
d="M273.5 39q-81.5 59 -119 154t-37.5 206v600h241v-569q0 -101 50 -163t141 -62q107 0 166 61t59 187v546h242v-999h-242v117q-56 -70 -135 -103.5t-160 -33.5q-124 0 -205.5 59zM280 1413h205v-225h-205v225zM676 1413h204v-225h-204v225zM209 1827h260l226 -309h-178z
" />
    <glyph glyph-name="uni01DD" unicode="&#x1dd;" horiz-adv-x="1069" 
d="M785 948q114 -71 170.5 -188.5t56.5 -256.5q0 -136 -54 -256t-164.5 -194t-271.5 -74q-164 0 -268 75.5t-149.5 190t-45.5 238.5q0 30 2.5 57.5t6.5 38.5h686q-35 219 -250 219q-71 0 -130 -25t-110 -81l-168 147q82 91 183 135.5t227 44.5q165 0 279 -71zM299 403
q0 -36 8 -63q18 -75 76.5 -115.5t140.5 -40.5q190 0 230 219h-455z" />
    <glyph glyph-name="uni01EB" unicode="&#x1eb;" horiz-adv-x="1130" 
d="M564.5 -85.5q-65.5 -53.5 -65.5 -127.5q0 -50 20 -69t54 -19q61 0 103 57l122 -84q-81 -123 -219 -123q-64 0 -115.5 25.5t-80.5 72.5t-29 107q0 80 43 137t96 94q-131 17 -231 90t-154.5 185t-54.5 242q0 141 64 259.5t181 188.5t267 70t267 -70t181 -188.5t64 -259.5
q0 -120 -46.5 -225.5t-133.5 -179.5t-202 -102q-65 -27 -130.5 -80.5zM334 345.5q27 -70.5 85 -113t146 -42.5t146 42.5t85 113t27 156.5q0 134 -63.5 220.5t-194.5 86.5q-88 0 -146 -41.5t-85 -110.5t-27 -155t27 -156.5z" />
    <glyph glyph-name="uni01F1" unicode="&#x1f1;" horiz-adv-x="2660" 
d="M182 1413h410q239 0 403.5 -83.5t248 -243.5t83.5 -390q0 -220 -85.5 -376t-250.5 -238t-401 -82h-408v1413zM565 233q247 0 377.5 110t130.5 364q0 169 -49 272.5t-155 152t-281 48.5h-152v-947h129zM2587 1229l-785 -1000h785v-229h-1139v176l788 1004h-743v233h1094
v-184z" />
    <glyph glyph-name="uni01F2" unicode="&#x1f2;" horiz-adv-x="2419" 
d="M182 1413h410q239 0 403.5 -83.5t248 -243.5t83.5 -390q0 -220 -85.5 -376t-250.5 -238t-401 -82h-408v1413zM565 233q247 0 377.5 110t130.5 364q0 169 -49 272.5t-155 152t-281 48.5h-152v-947h129zM2349 825l-542 -620h542v-205h-881v162l565 633h-536v204h852v-174z
" />
    <glyph glyph-name="uni01F3" unicode="&#x1f3;" horiz-adv-x="2175" 
d="M262 50.5q-98 70.5 -148.5 189t-50.5 260.5q0 141 50.5 259.5t147.5 189.5t231 71q84 0 159.5 -30t124.5 -91v514h248v-1413h-227l-11 113q-49 -68 -125.5 -100.5t-164.5 -32.5q-136 0 -234 70.5zM736.5 283q60.5 82 60.5 217q0 134 -61 216.5t-181 82.5t-182 -83.5
t-62 -215.5q0 -133 61.5 -216t182.5 -83t181.5 82zM2105 825l-542 -620h542v-205h-881v162l565 633h-536v204h852v-174z" />
    <glyph glyph-name="Oslashacute" unicode="&#x1fe;" horiz-adv-x="1528" 
d="M1385.5 1037.5q60.5 -151.5 60.5 -330.5q0 -200 -75.5 -365t-229 -263.5t-377.5 -98.5q-173 0 -312 63l-26 -43h-182l77 126q-118 99 -178.5 251t-60.5 330q0 200 75.5 365t229 263.5t377.5 98.5q172 0 311 -63l25 42h182l-75 -125q118 -99 178.5 -250.5zM375 504.5
q25 -93.5 77 -160.5l500 825q-81 39 -188 39q-145 0 -237.5 -67.5t-134.5 -180t-42 -253.5q0 -109 25 -202.5zM1001.5 272.5q92.5 67.5 134.5 180.5t42 254q0 109 -25.5 202.5t-77.5 161.5l-501 -826q82 -40 190 -40q145 0 237.5 67.5zM870 1827h260l-307 -289h-178z" />
    <glyph glyph-name="oslashacute" unicode="&#x1ff;" horiz-adv-x="1130" 
d="M1025.5 737q51.5 -109 51.5 -235q0 -142 -64 -261.5t-181 -190t-267 -70.5q-120 0 -223 47l-16 -27h-129l51 85q-92 72 -143.5 181.5t-51.5 235.5q0 141 64 259.5t181 188.5t267 70q119 0 222 -46l16 26h129l-50 -83q92 -71 143.5 -180zM322 381.5q15 -56.5 46 -98.5
l307 505q-47 21 -110 21q-88 0 -146 -41.5t-85 -110.5t-27 -155q0 -64 15 -120.5zM711 232.5q58 42.5 85 113t27 156.5q0 64 -15 120t-46 97l-307 -507q49 -22 110 -22q88 0 146 42.5zM672 1413h260l-307 -289h-178z" />
    <glyph glyph-name="uni0218" unicode="&#x218;" horiz-adv-x="1137" 
d="M341.5 31q-115.5 47 -195 140.5t-101.5 227.5l252 64q13 -126 93.5 -190t199.5 -64q73 0 126 23.5t80 64.5t27 92q0 61 -37.5 104t-93.5 71t-154 67q-128 51 -207 94.5t-135.5 121.5t-56.5 197q0 121 59.5 209.5t160 134.5t221.5 46q136 0 248 -61.5t182 -186.5
l-211 -129q-37 72 -97 111.5t-131 39.5q-50 0 -90.5 -19t-64 -53.5t-23.5 -78.5q0 -54 35 -92t88.5 -64t146.5 -62q132 -51 214 -96t141 -126t59 -205q0 -130 -65.5 -227t-177.5 -149t-248 -52q-129 0 -244.5 47zM459 -106h254l-248 -353h-141z" />
    <glyph glyph-name="uni0219" unicode="&#x219;" horiz-adv-x="909" 
d="M257.5 17.5q-86.5 37.5 -146 101t-84.5 141.5l194 86q26 -70 75 -117t138 -47q53 0 89.5 18t54.5 45.5t18 55.5q0 32 -23.5 53t-58.5 33.5t-101 29.5q-99 26 -162.5 53t-110 84.5t-46.5 154.5q0 101 51 171t135.5 105t184.5 35q127 0 224 -57t155 -160l-189 -103
q-31 56 -77.5 91.5t-120.5 35.5q-58 0 -93.5 -25t-35.5 -61q0 -28 22 -47t55.5 -31t94.5 -30q103 -29 170 -59.5t116.5 -93.5t49.5 -167q0 -110 -56 -185t-145 -111.5t-189 -36.5q-102 0 -188.5 37.5zM385 -106h254l-248 -353h-141z" />
    <glyph glyph-name="uni021A" unicode="&#x21a;" horiz-adv-x="1180" 
d="M463 1186h-443v227h1139v-227h-442v-1186h-254v1186zM483 -106h254l-248 -353h-141z" />
    <glyph glyph-name="uni021B" unicode="&#x21b;" horiz-adv-x="754" 
d="M331 16q-70 36 -107.5 102.5t-37.5 157.5v519h-161v204h165v248l240 174v-422h250v-204h-250v-476q0 -68 29.5 -96t81.5 -28q35 0 72 10.5t67 25.5v-221q-32 -12 -81.5 -21t-100.5 -9q-97 0 -167 36zM387 -106h254l-248 -353h-141z" />
    <glyph glyph-name="uni0237" unicode="&#x237;" horiz-adv-x="543" 
d="M12 -428.5q-49 9.5 -82 22.5l62 211q55 -22 88 -22q70 0 70 94v1122h245v-1103q0 -95 -31.5 -170.5t-97 -119.5t-162.5 -44q-43 0 -92 9.5z" />
    <glyph glyph-name="uni0250" unicode="&#x250;" horiz-adv-x="1055" 
d="M685 232q60 40 96 101l186 -135q-77 -105 -178.5 -162t-241.5 -57q-134 0 -231.5 52t-149 146t-51.5 216v606h201l15 -134q46 74 133.5 114t178.5 40q103 0 185.5 -38.5t130 -112.5t47.5 -176q0 -153 -107.5 -221t-289.5 -68h-272q3 -77 22 -122.5t63 -67t123 -21.5
q80 0 140 40zM466 782q-56 -31 -89 -82.5t-41 -112.5v-8h258q79 0 120.5 35t41.5 86t-41.5 82t-120.5 31q-72 0 -128 -31z" />
    <glyph glyph-name="uni0254" unicode="&#x254;" horiz-adv-x="1004" 
d="M204 58q-111 78 -161 218l222 84q20 -72 74 -115.5t126 -43.5q81 0 133.5 41t76.5 108t24 148q0 79 -24.5 147.5t-77 111t-132.5 42.5q-73 0 -126.5 -45t-73.5 -119l-232 90q56 146 168 220.5t264 74.5q156 0 264.5 -73.5t163 -193t54.5 -255.5q0 -137 -54.5 -255.5
t-164 -190.5t-265.5 -72q-148 0 -259 78z" />
    <glyph glyph-name="uni0258" unicode="&#x258;" horiz-adv-x="1069" 
d="M279 24.5q-101 44.5 -183 135.5l168 147q51 -56 110 -81t130 -25q215 0 250 219h-686q-4 11 -6.5 38.5t-2.5 57.5q0 124 45.5 238.5t149.5 190t268 75.5q161 0 271.5 -74t164.5 -194t54 -256q0 -139 -56.5 -256.5t-170.5 -188.5t-279 -71q-126 0 -227 44.5zM524 815
q-82 0 -140.5 -40.5t-76.5 -115.5q-8 -27 -8 -63h455q-40 219 -230 219z" />
    <glyph glyph-name="uni0259" unicode="&#x259;" horiz-adv-x="1069" 
d="M785 948q114 -71 170.5 -188.5t56.5 -256.5q0 -136 -54 -256t-164.5 -194t-271.5 -74q-164 0 -268 75.5t-149.5 190t-45.5 238.5q0 30 2.5 57.5t6.5 38.5h686q-35 219 -250 219q-71 0 -130 -25t-110 -81l-168 147q82 91 183 135.5t227 44.5q165 0 279 -71zM299 403
q0 -36 8 -63q18 -75 76.5 -115.5t140.5 -40.5q190 0 230 219h-455z" />
    <glyph glyph-name="uni0261" unicode="&#x261;" horiz-adv-x="1157" 
d="M98 -264l187 135q32 -58 99.5 -97.5t162.5 -39.5q109 0 164 61.5t55 204.5v121q-50 -62 -123 -91.5t-158 -29.5q-135 0 -233 70t-148.5 186.5t-50.5 253.5q0 136 50.5 252.5t147.5 187t230 70.5q84 0 159.5 -30t125.5 -91v100h246v-999q0 -233 -122 -356t-347 -123
q-291 0 -445 215zM725.5 304q60.5 79 60.5 206t-60.5 208t-180.5 81q-81 0 -136 -38.5t-81.5 -104t-26.5 -146.5q0 -126 62 -205.5t182 -79.5t180.5 79z" />
    <glyph glyph-name="circumflex" unicode="&#x2c6;" horiz-adv-x="653" 
d="M326 1450l317 -352h-188l-129 145l-127 -145h-189z" />
    <glyph glyph-name="caron" unicode="&#x2c7;" horiz-adv-x="659" 
d="M14 1413h189l127 -135l129 135h188l-317 -332z" />
    <glyph glyph-name="uni02D0" unicode="&#x2d0;" horiz-adv-x="561" 
d="M29 999h503l-251 -477zM281 477l251 -477h-503z" />
    <glyph glyph-name="uni02D1" unicode="&#x2d1;" horiz-adv-x="561" 
d="M29 690h503l-251 -479z" />
    <glyph glyph-name="breve" unicode="&#x2d8;" horiz-adv-x="811" 
d="M167 1211.5q-77 68.5 -77 201.5h172q0 -63 40 -95t104 -32t103.5 33t39.5 94h172q0 -270 -315 -270q-162 0 -239 68.5z" />
    <glyph glyph-name="dotaccent" unicode="&#x2d9;" horiz-adv-x="539" 
d="M141 1413h256v-225h-256v225z" />
    <glyph glyph-name="ring" unicode="&#x2da;" horiz-adv-x="633" 
d="M199.5 1100.5q-52.5 31.5 -83 85t-30.5 114.5q0 63 30.5 115.5t83.5 83.5t115 31t115.5 -30.5t85 -83t31.5 -116.5q0 -63 -31 -116t-84 -84t-117 -31q-63 0 -115.5 31.5zM388 1229q28 29 28 74q0 42 -27 69t-74 27q-44 0 -71 -27t-27 -69q0 -45 28 -74t70 -29q45 0 73 29
z" />
    <glyph glyph-name="ogonek" unicode="&#x2db;" horiz-adv-x="573" 
d="M195.5 -425.5q-51.5 25.5 -80.5 72.5t-29 107q0 80 47.5 143.5t116.5 102.5h190q-23 -7 -73 -34.5t-93 -74t-43 -104.5q0 -50 20 -69t54 -19q61 0 103 57l122 -84q-81 -123 -219 -123q-64 0 -115.5 25.5z" />
    <glyph glyph-name="tilde" unicode="&#x2dc;" horiz-adv-x="872" 
d="M487 1139.5q-33 13.5 -55 31.5t-49 47q-26 27 -43 39.5t-37 12.5q-31 0 -48 -35.5t-17 -101.5h-140q0 137 57 211.5t156 74.5q56 0 93.5 -23.5t79.5 -65.5q29 -28 45.5 -40t35.5 -12q27 0 44.5 35.5t17.5 99.5h145q0 -137 -55.5 -212t-153.5 -75q-43 0 -76 13.5z" />
    <glyph glyph-name="hungarumlaut" unicode="&#x2dd;" horiz-adv-x="924" 
d="M260 1413h219l-266 -330h-178zM649 1413h260l-307 -330h-178z" />
    <glyph glyph-name="uni02F5" unicode="&#x2f5;" horiz-adv-x="1110" 
d="M88 999h260l225 -329h-178zM518 999h260l226 -329h-179z" />
    <glyph glyph-name="uni02F6" unicode="&#x2f6;" horiz-adv-x="1110" 
d="M106 670l226 329h260l-307 -329h-179zM537 670l225 329h260l-307 -329h-178z" />
    <glyph glyph-name="gravecomb" unicode="&#x300;" 
d="M-518 1413h260l226 -309h-178z" />
    <glyph glyph-name="acutecomb" unicode="&#x301;" 
d="M-279 1413h260l-307 -289h-178z" />
    <glyph glyph-name="uni0302" unicode="&#x302;" 
d="M-327 1450l317 -352h-188l-129 145l-127 -145h-189z" />
    <glyph glyph-name="tildecomb" unicode="&#x303;" 
d="M-385 1139.5q-33 13.5 -55 31.5t-49 47q-26 27 -43 39.5t-37 12.5q-31 0 -48 -35.5t-17 -101.5h-140q0 137 57 211.5t156 74.5q56 0 93.5 -23.5t79.5 -65.5q29 -28 45.5 -40t35.5 -12q27 0 44.5 35.5t17.5 99.5h145q0 -137 -55.5 -212t-153.5 -75q-43 0 -76 13.5z" />
    <glyph glyph-name="uni0304" unicode="&#x304;" 
d="M-699 1290h559v-143h-559v143z" />
    <glyph glyph-name="uni0306" unicode="&#x306;" 
d="M-644 1211.5q-77 68.5 -77 201.5h172q0 -63 40 -95t104 -32t103.5 33t39.5 94h172q0 -270 -315 -270q-162 0 -239 68.5z" />
    <glyph glyph-name="uni0307" unicode="&#x307;" 
d="M-398 1413h256v-225h-256v225z" />
    <glyph glyph-name="uni0308" unicode="&#x308;" 
d="M-742 1413h205v-225h-205v225zM-346 1413h204v-225h-204v225z" />
    <glyph glyph-name="uni030A" unicode="&#x30a;" 
d="M-433.5 1100.5q-52.5 31.5 -83 85t-30.5 114.5q0 63 30.5 115.5t83.5 83.5t115 31t115.5 -30.5t85 -83t31.5 -116.5q0 -63 -31 -116t-84 -84t-117 -31q-63 0 -115.5 31.5zM-245 1229q28 29 28 74q0 42 -27 69t-74 27q-44 0 -71 -27t-27 -69q0 -45 28 -74t70 -29
q45 0 73 29z" />
    <glyph glyph-name="uni030B" unicode="&#x30b;" 
d="M-664 1413h219l-266 -330h-178zM-275 1413h260l-307 -330h-178z" />
    <glyph glyph-name="uni030C" unicode="&#x30c;" 
d="M-645 1413h189l127 -135l129 135h188l-317 -332z" />
    <glyph glyph-name="uni030F" unicode="&#x30f;" 
d="M-602 1083l-307 330h260l225 -330h-178zM-213 1083l-266 330h219l225 -330h-178z" />
    <glyph glyph-name="uni0312" unicode="&#x312;" 
d="M-213 1119h-254l248 315h141z" />
    <glyph glyph-name="uni031B" unicode="&#x31b;" 
d="M-410 1159q72 0 101.5 47t29.5 109v98h184v-80q0 -95 -33 -170.5t-103.5 -119.5t-178.5 -44v160z" />
    <glyph glyph-name="uni0326" unicode="&#x326;" 
d="M-283 -106h254l-248 -353h-141z" />
    <glyph glyph-name="uni0327" unicode="&#x327;" 
d="M-439 -482.5q-57 39.5 -73 120.5l133 55q9 -32 29.5 -54t50.5 -22q35 0 57.5 22t22.5 56q0 48 -46.5 79t-121.5 31h-69l123 193h143l-76 -98q32 -3 55 -13q66 -21 101 -68.5t35 -115.5q0 -63 -30 -114.5t-83 -81t-117 -29.5q-77 0 -134 39.5z" />
    <glyph glyph-name="uni0328" unicode="&#x328;" 
d="M-377.5 -425.5q-51.5 25.5 -80.5 72.5t-29 107q0 80 47.5 143.5t116.5 102.5h190q-23 -7 -73 -34.5t-93 -74t-43 -104.5q0 -50 20 -69t54 -19q61 0 103 57l122 -84q-81 -123 -219 -123q-64 0 -115.5 25.5z" />
    <glyph glyph-name="uni0337" unicode="&#x337;" 
d="M-619 508l598 674v-269l-598 -675v270z" />
    <glyph glyph-name="tonos" unicode="&#x384;" horiz-adv-x="442" 
d="M162 1413h198l-122 -289h-117z" />
    <glyph glyph-name="dieresistonos" unicode="&#x385;" horiz-adv-x="702" 
d="M41 1413h205v-225h-205v225zM437 1413h204v-225h-204v225zM324 1827h198l-122 -289h-117z" />
    <glyph glyph-name="uni03BC" unicode="&#x3bc;" horiz-adv-x="1298" 
d="M219 999h242v-569q0 -101 49.5 -163t140.5 -62q107 0 166.5 61t59.5 187v546h241v-999h-241v117q-56 -70 -135.5 -103.5t-159.5 -33.5q-96 0 -166 34v-342h-197v1327z" />
    <glyph glyph-name="pi" unicode="&#x3c0;" horiz-adv-x="1004" 
d="M662.5 50q-62.5 70 -62.5 188v557h-227v-795h-205v795h-82v204h801v-204h-82v-525q0 -110 45 -110q21 0 41 14l65 -160q-51 -34 -122 -34q-109 0 -171.5 70z" />
    <glyph glyph-name="uni0483" unicode="&#x483;" 
d="M-975 1931h604v125h250v-356h-611v-123h-243v354z" />
    <glyph glyph-name="Wgrave" unicode="&#x1e80;" horiz-adv-x="2003" 
d="M25 1413h264l301 -1040l313 958h197l313 -958l301 1040h264l-424 -1413h-245l-308 930l-307 -930h-245zM628 1827h260l226 -309h-178z" />
    <glyph glyph-name="wgrave" unicode="&#x1e81;" horiz-adv-x="1466" 
d="M10 999h260l170 -626l189 626h209l188 -624l172 624h260l-309 -999h-219l-197 655l-196 -655h-220zM362 1413h260l226 -309h-178z" />
    <glyph glyph-name="Wacute" unicode="&#x1e82;" horiz-adv-x="2003" 
d="M25 1413h264l301 -1040l313 958h197l313 -958l301 1040h264l-424 -1413h-245l-308 930l-307 -930h-245zM1108 1827h260l-307 -289h-178z" />
    <glyph glyph-name="wacute" unicode="&#x1e83;" horiz-adv-x="1466" 
d="M10 999h260l170 -626l189 626h209l188 -624l172 624h260l-309 -999h-219l-197 655l-196 -655h-220zM842 1413h260l-307 -289h-178z" />
    <glyph glyph-name="Wdieresis" unicode="&#x1e84;" horiz-adv-x="2003" 
d="M25 1413h264l301 -1040l313 958h197l313 -958l301 1040h264l-424 -1413h-245l-308 930l-307 -930h-245zM700 1827h205v-225h-205v225zM1096 1827h204v-225h-204v225z" />
    <glyph glyph-name="wdieresis" unicode="&#x1e85;" horiz-adv-x="1466" 
d="M10 999h260l170 -626l189 626h209l188 -624l172 624h260l-309 -999h-219l-197 655l-196 -655h-220zM434 1413h205v-225h-205v225zM830 1413h204v-225h-204v225z" />
    <glyph glyph-name="uni1EA4" unicode="&#x1ea4;" horiz-adv-x="1343" 
d="M578 1413h190l563 -1413h-274l-113 307h-541l-114 -307h-277zM864 524l-190 516l-191 -516h381zM670 1864l317 -352h-188l-129 145l-127 -145h-189zM778 2238h260l-307 -289h-178z" />
    <glyph glyph-name="uni1EA5" unicode="&#x1ea5;" horiz-adv-x="1055" 
d="M739.5 968q97.5 -52 149 -146t51.5 -216v-606h-201l-15 134q-46 -74 -133.5 -114t-178.5 -40q-103 0 -185.5 38.5t-130 112.5t-47.5 176q0 153 107.5 221t289.5 68h272q-3 77 -22 122.5t-63 67t-123 21.5q-80 0 -140 -40t-96 -101l-186 135q77 105 178.5 162t241.5 57
q134 0 231.5 -52zM589 217q56 31 89 82.5t41 112.5v8h-258q-79 0 -120.5 -35t-41.5 -86t41.5 -82t120.5 -31q72 0 128 31zM496 1450l317 -352h-188l-129 145l-127 -145h-189zM604 1825h260l-307 -289h-178z" />
    <glyph glyph-name="uni1EA6" unicode="&#x1ea6;" horiz-adv-x="1343" 
d="M578 1413h190l563 -1413h-274l-113 307h-541l-114 -307h-277zM864 524l-190 516l-191 -516h381zM670 1864l317 -352h-188l-129 145l-127 -145h-189zM299 2238h260l226 -309h-178z" />
    <glyph glyph-name="uni1EA7" unicode="&#x1ea7;" horiz-adv-x="1055" 
d="M739.5 968q97.5 -52 149 -146t51.5 -216v-606h-201l-15 134q-46 -74 -133.5 -114t-178.5 -40q-103 0 -185.5 38.5t-130 112.5t-47.5 176q0 153 107.5 221t289.5 68h272q-3 77 -22 122.5t-63 67t-123 21.5q-80 0 -140 -40t-96 -101l-186 135q77 105 178.5 162t241.5 57
q134 0 231.5 -52zM589 217q56 31 89 82.5t41 112.5v8h-258q-79 0 -120.5 -35t-41.5 -86t41.5 -82t120.5 -31q72 0 128 31zM496 1450l317 -352h-188l-129 145l-127 -145h-189zM125 1825h260l226 -309h-178z" />
    <glyph glyph-name="uni1EAA" unicode="&#x1eaa;" horiz-adv-x="1343" 
d="M578 1413h190l563 -1413h-274l-113 307h-541l-114 -307h-277zM864 524l-190 516l-191 -516h381zM670 1864l317 -352h-188l-129 145l-127 -145h-189zM723 1944.5q-33 13.5 -55 31.5t-49 47q-26 27 -43 39.5t-37 12.5q-31 0 -48 -35.5t-17 -101.5h-140q0 137 57 211.5
t156 74.5q56 0 93.5 -23.5t79.5 -65.5q29 -28 45.5 -40t35.5 -12q27 0 44.5 35.5t17.5 99.5h145q0 -137 -55.5 -212t-153.5 -75q-43 0 -76 13.5z" />
    <glyph glyph-name="uni1EAB" unicode="&#x1eab;" horiz-adv-x="1055" 
d="M739.5 968q97.5 -52 149 -146t51.5 -216v-606h-201l-15 134q-46 -74 -133.5 -114t-178.5 -40q-103 0 -185.5 38.5t-130 112.5t-47.5 176q0 153 107.5 221t289.5 68h272q-3 77 -22 122.5t-63 67t-123 21.5q-80 0 -140 -40t-96 -101l-186 135q77 105 178.5 162t241.5 57
q134 0 231.5 -52zM589 217q56 31 89 82.5t41 112.5v8h-258q-79 0 -120.5 -35t-41.5 -86t41.5 -82t120.5 -31q72 0 128 31zM496 1450l317 -352h-188l-129 145l-127 -145h-189zM548 1530.5q-33 13.5 -55 31.5t-49 47q-26 27 -43 39.5t-37 12.5q-31 0 -48 -35.5t-17 -101.5
h-140q0 137 57 211.5t156 74.5q56 0 93.5 -23.5t79.5 -65.5q29 -28 45.5 -40t35.5 -12q27 0 44.5 35.5t17.5 99.5h145q0 -137 -55.5 -212t-153.5 -75q-43 0 -76 13.5z" />
    <glyph glyph-name="uni1EAE" unicode="&#x1eae;" horiz-adv-x="1343" 
d="M578 1413h190l563 -1413h-274l-113 307h-541l-114 -307h-277zM864 524l-190 516l-191 -516h381zM433 1625.5q-77 68.5 -77 201.5h172q0 -63 40 -95t104 -32t103.5 33t39.5 94h172q0 -270 -315 -270q-162 0 -239 68.5zM778 2240h260l-307 -289h-178z" />
    <glyph glyph-name="uni1EAF" unicode="&#x1eaf;" horiz-adv-x="1055" 
d="M739.5 968q97.5 -52 149 -146t51.5 -216v-606h-201l-15 134q-46 -74 -133.5 -114t-178.5 -40q-103 0 -185.5 38.5t-130 112.5t-47.5 176q0 153 107.5 221t289.5 68h272q-3 77 -22 122.5t-63 67t-123 21.5q-80 0 -140 -40t-96 -101l-186 135q77 105 178.5 162t241.5 57
q134 0 231.5 -52zM589 217q56 31 89 82.5t41 112.5v8h-258q-79 0 -120.5 -35t-41.5 -86t41.5 -82t120.5 -31q72 0 128 31zM259 1211.5q-77 68.5 -77 201.5h172q0 -63 40 -95t104 -32t103.5 33t39.5 94h172q0 -270 -315 -270q-162 0 -239 68.5zM604 1827h260l-307 -289h-178z
" />
    <glyph glyph-name="uni1EB0" unicode="&#x1eb0;" horiz-adv-x="1343" 
d="M578 1413h190l563 -1413h-274l-113 307h-541l-114 -307h-277zM864 524l-190 516l-191 -516h381zM433 1625.5q-77 68.5 -77 201.5h172q0 -63 40 -95t104 -32t103.5 33t39.5 94h172q0 -270 -315 -270q-162 0 -239 68.5zM299 2240h260l226 -309h-178z" />
    <glyph glyph-name="uni1EB1" unicode="&#x1eb1;" horiz-adv-x="1055" 
d="M739.5 968q97.5 -52 149 -146t51.5 -216v-606h-201l-15 134q-46 -74 -133.5 -114t-178.5 -40q-103 0 -185.5 38.5t-130 112.5t-47.5 176q0 153 107.5 221t289.5 68h272q-3 77 -22 122.5t-63 67t-123 21.5q-80 0 -140 -40t-96 -101l-186 135q77 105 178.5 162t241.5 57
q134 0 231.5 -52zM589 217q56 31 89 82.5t41 112.5v8h-258q-79 0 -120.5 -35t-41.5 -86t41.5 -82t120.5 -31q72 0 128 31zM259 1211.5q-77 68.5 -77 201.5h172q0 -63 40 -95t104 -32t103.5 33t39.5 94h172q0 -270 -315 -270q-162 0 -239 68.5zM125 1827h260l226 -309h-178z
" />
    <glyph glyph-name="uni1EB4" unicode="&#x1eb4;" horiz-adv-x="1343" 
d="M578 1413h190l563 -1413h-274l-113 307h-541l-114 -307h-277zM864 524l-190 516l-191 -516h381zM433 1625.5q-77 68.5 -77 201.5h172q0 -63 40 -95t104 -32t103.5 33t39.5 94h172q0 -270 -315 -270q-162 0 -239 68.5zM723 1946.5q-33 13.5 -55 31.5t-49 47
q-26 27 -43 39.5t-37 12.5q-31 0 -48 -35.5t-17 -101.5h-140q0 137 57 211.5t156 74.5q56 0 93.5 -23.5t79.5 -65.5q29 -28 45.5 -40t35.5 -12q27 0 44.5 35.5t17.5 99.5h145q0 -137 -55.5 -212t-153.5 -75q-43 0 -76 13.5z" />
    <glyph glyph-name="uni1EB5" unicode="&#x1eb5;" horiz-adv-x="1055" 
d="M739.5 968q97.5 -52 149 -146t51.5 -216v-606h-201l-15 134q-46 -74 -133.5 -114t-178.5 -40q-103 0 -185.5 38.5t-130 112.5t-47.5 176q0 153 107.5 221t289.5 68h272q-3 77 -22 122.5t-63 67t-123 21.5q-80 0 -140 -40t-96 -101l-186 135q77 105 178.5 162t241.5 57
q134 0 231.5 -52zM589 217q56 31 89 82.5t41 112.5v8h-258q-79 0 -120.5 -35t-41.5 -86t41.5 -82t120.5 -31q72 0 128 31zM259 1211.5q-77 68.5 -77 201.5h172q0 -63 40 -95t104 -32t103.5 33t39.5 94h172q0 -270 -315 -270q-162 0 -239 68.5zM548 1532.5q-33 13.5 -55 31.5
t-49 47q-26 27 -43 39.5t-37 12.5q-31 0 -48 -35.5t-17 -101.5h-140q0 137 57 211.5t156 74.5q56 0 93.5 -23.5t79.5 -65.5q29 -28 45.5 -40t35.5 -12q27 0 44.5 35.5t17.5 99.5h145q0 -137 -55.5 -212t-153.5 -75q-43 0 -76 13.5z" />
    <glyph glyph-name="uni1EBC" unicode="&#x1ebc;" horiz-adv-x="1245" 
d="M182 1413h940v-233h-686v-357h639v-233h-639v-350h686v-240h-940v1413zM704 1532.5q-33 13.5 -55 31.5t-49 47q-26 27 -43 39.5t-37 12.5q-31 0 -48 -35.5t-17 -101.5h-140q0 137 57 211.5t156 74.5q56 0 93.5 -23.5t79.5 -65.5q29 -28 45.5 -40t35.5 -12q27 0 44.5 35.5
t17.5 99.5h145q0 -137 -55.5 -212t-153.5 -75q-43 0 -76 13.5z" />
    <glyph glyph-name="uni1EBD" unicode="&#x1ebd;" horiz-adv-x="1069" 
d="M284 51q-114 71 -170.5 188.5t-56.5 256.5q0 136 54 256t164.5 194t271.5 74q164 0 268 -75.5t149.5 -190t45.5 -238.5q0 -30 -2.5 -57.5t-6.5 -38.5h-686q35 -219 250 -219q71 0 130 25t110 81l168 -147q-82 -91 -183 -135.5t-227 -44.5q-165 0 -279 71zM770 596
q0 36 -8 63q-18 75 -76.5 115.5t-140.5 40.5q-190 0 -230 -219h455zM579 1119.5q-33 13.5 -55 31.5t-49 47q-26 27 -43 39.5t-37 12.5q-31 0 -48 -35.5t-17 -101.5h-140q0 137 57 211.5t156 74.5q56 0 93.5 -23.5t79.5 -65.5q29 -28 45.5 -40t35.5 -12q27 0 44.5 35.5
t17.5 99.5h145q0 -137 -55.5 -212t-153.5 -75q-43 0 -76 13.5z" />
    <glyph glyph-name="uni1EBE" unicode="&#x1ebe;" horiz-adv-x="1245" 
d="M182 1413h940v-233h-686v-357h639v-233h-639v-350h686v-240h-940v1413zM652 1864l317 -352h-188l-129 145l-127 -145h-189zM760 2238h260l-307 -289h-178z" />
    <glyph glyph-name="uni1EBF" unicode="&#x1ebf;" horiz-adv-x="1069" 
d="M284 51q-114 71 -170.5 188.5t-56.5 256.5q0 136 54 256t164.5 194t271.5 74q164 0 268 -75.5t149.5 -190t45.5 -238.5q0 -30 -2.5 -57.5t-6.5 -38.5h-686q35 -219 250 -219q71 0 130 25t110 81l168 -147q-82 -91 -183 -135.5t-227 -44.5q-165 0 -279 71zM770 596
q0 36 -8 63q-18 75 -76.5 115.5t-140.5 40.5q-190 0 -230 -219h455zM527 1450l317 -352h-188l-129 145l-127 -145h-189zM635 1825h260l-307 -289h-178z" />
    <glyph glyph-name="uni1EC0" unicode="&#x1ec0;" horiz-adv-x="1245" 
d="M182 1413h940v-233h-686v-357h639v-233h-639v-350h686v-240h-940v1413zM652 1864l317 -352h-188l-129 145l-127 -145h-189zM280 2238h260l226 -309h-178z" />
    <glyph glyph-name="uni1EC1" unicode="&#x1ec1;" horiz-adv-x="1069" 
d="M284 51q-114 71 -170.5 188.5t-56.5 256.5q0 136 54 256t164.5 194t271.5 74q164 0 268 -75.5t149.5 -190t45.5 -238.5q0 -30 -2.5 -57.5t-6.5 -38.5h-686q35 -219 250 -219q71 0 130 25t110 81l168 -147q-82 -91 -183 -135.5t-227 -44.5q-165 0 -279 71zM770 596
q0 36 -8 63q-18 75 -76.5 115.5t-140.5 40.5q-190 0 -230 -219h455zM527 1450l317 -352h-188l-129 145l-127 -145h-189zM155 1825h260l226 -309h-178z" />
    <glyph glyph-name="uni1EC4" unicode="&#x1ec4;" horiz-adv-x="1245" 
d="M182 1413h940v-233h-686v-357h639v-233h-639v-350h686v-240h-940v1413zM652 1864l317 -352h-188l-129 145l-127 -145h-189zM704 1944.5q-33 13.5 -55 31.5t-49 47q-26 27 -43 39.5t-37 12.5q-31 0 -48 -35.5t-17 -101.5h-140q0 137 57 211.5t156 74.5q56 0 93.5 -23.5
t79.5 -65.5q29 -28 45.5 -40t35.5 -12q27 0 44.5 35.5t17.5 99.5h145q0 -137 -55.5 -212t-153.5 -75q-43 0 -76 13.5z" />
    <glyph glyph-name="uni1EC5" unicode="&#x1ec5;" horiz-adv-x="1069" 
d="M284 51q-114 71 -170.5 188.5t-56.5 256.5q0 136 54 256t164.5 194t271.5 74q164 0 268 -75.5t149.5 -190t45.5 -238.5q0 -30 -2.5 -57.5t-6.5 -38.5h-686q35 -219 250 -219q71 0 130 25t110 81l168 -147q-82 -91 -183 -135.5t-227 -44.5q-165 0 -279 71zM770 596
q0 36 -8 63q-18 75 -76.5 115.5t-140.5 40.5q-190 0 -230 -219h455zM527 1450l317 -352h-188l-129 145l-127 -145h-189zM579 1530.5q-33 13.5 -55 31.5t-49 47q-26 27 -43 39.5t-37 12.5q-31 0 -48 -35.5t-17 -101.5h-140q0 137 57 211.5t156 74.5q56 0 93.5 -23.5
t79.5 -65.5q29 -28 45.5 -40t35.5 -12q27 0 44.5 35.5t17.5 99.5h145q0 -137 -55.5 -212t-153.5 -75q-43 0 -76 13.5z" />
    <glyph glyph-name="uni1ED0" unicode="&#x1ed0;" horiz-adv-x="1528" 
d="M386.5 78.5q-153.5 98.5 -229 263.5t-75.5 365t75.5 365t229 263.5t377.5 98.5t377.5 -98.5t229 -263.5t75.5 -365t-75.5 -365t-229 -263.5t-377.5 -98.5t-377.5 98.5zM1001.5 272.5q92.5 67.5 134.5 180.5t42 254t-42 253.5t-134.5 180t-237.5 67.5t-237.5 -67.5
t-134.5 -180t-42 -253.5t42 -254t134.5 -180.5t237.5 -67.5t237.5 67.5zM762 1864l317 -352h-188l-129 145l-127 -145h-189zM870 2238h260l-307 -289h-178z" />
    <glyph glyph-name="uni1ED1" unicode="&#x1ed1;" horiz-adv-x="1130" 
d="M298 50.5q-117 70.5 -181 190t-64 261.5q0 141 64 259.5t181 188.5t267 70t267 -70t181 -188.5t64 -259.5q0 -142 -64 -261.5t-181 -190t-267 -70.5t-267 70.5zM711 232.5q58 42.5 85 113t27 156.5q0 134 -63.5 220.5t-194.5 86.5q-88 0 -146 -41.5t-85 -110.5t-27 -155
t27 -156.5t85 -113t146 -42.5t146 42.5zM564 1450l317 -352h-188l-129 145l-127 -145h-189zM672 1825h260l-307 -289h-178z" />
    <glyph glyph-name="uni1ED2" unicode="&#x1ed2;" horiz-adv-x="1528" 
d="M386.5 78.5q-153.5 98.5 -229 263.5t-75.5 365t75.5 365t229 263.5t377.5 98.5t377.5 -98.5t229 -263.5t75.5 -365t-75.5 -365t-229 -263.5t-377.5 -98.5t-377.5 98.5zM1001.5 272.5q92.5 67.5 134.5 180.5t42 254t-42 253.5t-134.5 180t-237.5 67.5t-237.5 -67.5
t-134.5 -180t-42 -253.5t42 -254t134.5 -180.5t237.5 -67.5t237.5 67.5zM762 1864l317 -352h-188l-129 145l-127 -145h-189zM391 2238h260l226 -309h-178z" />
    <glyph glyph-name="uni1ED3" unicode="&#x1ed3;" horiz-adv-x="1130" 
d="M298 50.5q-117 70.5 -181 190t-64 261.5q0 141 64 259.5t181 188.5t267 70t267 -70t181 -188.5t64 -259.5q0 -142 -64 -261.5t-181 -190t-267 -70.5t-267 70.5zM711 232.5q58 42.5 85 113t27 156.5q0 134 -63.5 220.5t-194.5 86.5q-88 0 -146 -41.5t-85 -110.5t-27 -155
t27 -156.5t85 -113t146 -42.5t146 42.5zM564 1450l317 -352h-188l-129 145l-127 -145h-189zM192 1825h260l226 -309h-178z" />
    <glyph glyph-name="uni1ED6" unicode="&#x1ed6;" horiz-adv-x="1528" 
d="M386.5 78.5q-153.5 98.5 -229 263.5t-75.5 365t75.5 365t229 263.5t377.5 98.5t377.5 -98.5t229 -263.5t75.5 -365t-75.5 -365t-229 -263.5t-377.5 -98.5t-377.5 98.5zM1001.5 272.5q92.5 67.5 134.5 180.5t42 254t-42 253.5t-134.5 180t-237.5 67.5t-237.5 -67.5
t-134.5 -180t-42 -253.5t42 -254t134.5 -180.5t237.5 -67.5t237.5 67.5zM762 1864l317 -352h-188l-129 145l-127 -145h-189zM815 1944.5q-33 13.5 -55 31.5t-49 47q-26 27 -43 39.5t-37 12.5q-31 0 -48 -35.5t-17 -101.5h-140q0 137 57 211.5t156 74.5q56 0 93.5 -23.5
t79.5 -65.5q29 -28 45.5 -40t35.5 -12q27 0 44.5 35.5t17.5 99.5h145q0 -137 -55.5 -212t-153.5 -75q-43 0 -76 13.5z" />
    <glyph glyph-name="uni1ED7" unicode="&#x1ed7;" horiz-adv-x="1130" 
d="M298 50.5q-117 70.5 -181 190t-64 261.5q0 141 64 259.5t181 188.5t267 70t267 -70t181 -188.5t64 -259.5q0 -142 -64 -261.5t-181 -190t-267 -70.5t-267 70.5zM711 232.5q58 42.5 85 113t27 156.5q0 134 -63.5 220.5t-194.5 86.5q-88 0 -146 -41.5t-85 -110.5t-27 -155
t27 -156.5t85 -113t146 -42.5t146 42.5zM564 1450l317 -352h-188l-129 145l-127 -145h-189zM616 1530.5q-33 13.5 -55 31.5t-49 47q-26 27 -43 39.5t-37 12.5q-31 0 -48 -35.5t-17 -101.5h-140q0 137 57 211.5t156 74.5q56 0 93.5 -23.5t79.5 -65.5q29 -28 45.5 -40
t35.5 -12q27 0 44.5 35.5t17.5 99.5h145q0 -137 -55.5 -212t-153.5 -75q-43 0 -76 13.5z" />
    <glyph glyph-name="Ygrave" unicode="&#x1ef2;" horiz-adv-x="1319" 
d="M528 551l-530 862h307l352 -618l355 618h309l-528 -862v-551h-265v551zM284 1827h260l226 -309h-178z" />
    <glyph glyph-name="ygrave" unicode="&#x1ef3;" horiz-adv-x="1032" 
d="M385 27l-391 972h268l252 -694l256 694h268l-571 -1429h-266zM143 1413h260l226 -309h-178z" />
    <glyph glyph-name="uni1EF8" unicode="&#x1ef8;" horiz-adv-x="1319" 
d="M528 551l-530 862h307l352 -618l355 618h309l-528 -862v-551h-265v551zM708 1532.5q-33 13.5 -55 31.5t-49 47q-26 27 -43 39.5t-37 12.5q-31 0 -48 -35.5t-17 -101.5h-140q0 137 57 211.5t156 74.5q56 0 93.5 -23.5t79.5 -65.5q29 -28 45.5 -40t35.5 -12q27 0 44.5 35.5
t17.5 99.5h145q0 -137 -55.5 -212t-153.5 -75q-43 0 -76 13.5z" />
    <glyph glyph-name="uni1EF9" unicode="&#x1ef9;" horiz-adv-x="1032" 
d="M385 27l-391 972h268l252 -694l256 694h268l-571 -1429h-266zM567 1119.5q-33 13.5 -55 31.5t-49 47q-26 27 -43 39.5t-37 12.5q-31 0 -48 -35.5t-17 -101.5h-140q0 137 57 211.5t156 74.5q56 0 93.5 -23.5t79.5 -65.5q29 -28 45.5 -40t35.5 -12q27 0 44.5 35.5
t17.5 99.5h145q0 -137 -55.5 -212t-153.5 -75q-43 0 -76 13.5z" />
    <glyph glyph-name="endash" unicode="&#x2013;" horiz-adv-x="1051" 
d="M141 692h768v-184h-768v184z" />
    <glyph glyph-name="emdash" unicode="&#x2014;" horiz-adv-x="2048" 
d="M0 692h2048v-184h-2048v184z" />
    <glyph glyph-name="uni2015" unicode="&#x2015;" horiz-adv-x="1542" 
d="M141 692h1260v-184h-1260v184z" />
    <glyph glyph-name="quoteleft" unicode="&#x2018;" horiz-adv-x="578" 
d="M310 846l-254 567h281l135 -567h-162z" />
    <glyph glyph-name="quoteright" unicode="&#x2019;" horiz-adv-x="578" 
d="M241 1413h281l-254 -567h-162z" />
    <glyph glyph-name="quotesinglbase" unicode="&#x201a;" horiz-adv-x="578" 
d="M241 264h281l-254 -567h-162z" />
    <glyph glyph-name="quotedblleft" unicode="&#x201c;" horiz-adv-x="967" 
d="M310 846l-254 567h281l135 -567h-162zM699 846l-254 567h281l135 -567h-162z" />
    <glyph glyph-name="quotedblright" unicode="&#x201d;" horiz-adv-x="967" 
d="M241 1413h281l-254 -567h-162zM630 1413h281l-254 -567h-162z" />
    <glyph glyph-name="quotedblbase" unicode="&#x201e;" horiz-adv-x="987" 
d="M241 264h281l-254 -567h-162zM651 264h281l-254 -567h-162z" />
    <glyph glyph-name="dagger" unicode="&#x2020;" horiz-adv-x="778" 
d="M279 809h-222v221h222v383h221v-383h221v-221h-221v-1014h-221v1014z" />
    <glyph glyph-name="daggerdbl" unicode="&#x2021;" horiz-adv-x="893" 
d="M336 178h-221v221h221v410h-221v221h221v383h221v-383h221v-221h-221v-410h221v-221h-221v-383h-221v383z" />
    <glyph glyph-name="bullet" unicode="&#x2022;" horiz-adv-x="758" 
d="M260 276q-55 32 -87 86.5t-32 118.5t32 119t87 87t119 32t118.5 -32t86.5 -87t32 -119t-32 -118.5t-86.5 -86.5t-118.5 -32t-119 32z" />
    <glyph glyph-name="uni2023" unicode="&#x2023;" horiz-adv-x="915" 
d="M205 922l665 -390l-665 -389v779z" />
    <glyph glyph-name="twodotenleader" unicode="&#x2025;" horiz-adv-x="1061" 
d="M201 264h245v-264h-245v264zM614 264h246v-264h-246v264z" />
    <glyph glyph-name="ellipsis" unicode="&#x2026;" horiz-adv-x="1475" 
d="M201 264h245v-264h-245v264zM614 264h246v-264h-246v264zM1028 264h246v-264h-246v264z" />
    <glyph glyph-name="perthousand" unicode="&#x2030;" horiz-adv-x="2079" 
d="M222.5 822q-66.5 42 -103.5 117t-37 169q0 93 36.5 167.5t101.5 116.5t149 42q83 0 149 -43t103.5 -118t37.5 -167q0 -91 -37 -165.5t-101.5 -117.5t-145.5 -43q-86 0 -152.5 42zM1055 1413h172l-852 -1413h-172zM436.5 965q27.5 21 43.5 58t16 83q0 73 -35.5 118.5
t-91.5 45.5q-57 0 -90 -44t-33 -118q0 -75 34.5 -119.5t94.5 -44.5q34 0 61.5 21zM908.5 22q-66.5 42 -103.5 116.5t-37 168.5t36.5 168t101.5 116t149 42q83 0 149.5 -43t104 -118t37.5 -167q0 -91 -37 -165.5t-102 -117t-146 -42.5q-86 0 -152.5 42zM1559.5 22
q-66.5 42 -103.5 116.5t-37 168.5t36.5 168t101.5 116t149 42q83 0 149.5 -43t104 -118t37.5 -167q0 -91 -37 -165.5t-102 -117t-146 -42.5q-86 0 -152.5 42zM1122.5 164q27.5 21 43.5 58t16 83q0 73 -35.5 118.5t-91.5 45.5q-57 0 -90 -44t-33 -118q0 -75 34.5 -119.5
t94.5 -44.5q34 0 61.5 21zM1799 189q34 46 34 116q0 74 -35 119t-92 45t-90 -44t-33 -118q0 -75 34.5 -119.5t94.5 -44.5q53 0 87 46z" />
    <glyph glyph-name="uni2031" unicode="&#x2031;" horiz-adv-x="2730" 
d="M222.5 822q-66.5 42 -103.5 117t-37 169q0 93 36.5 167.5t101.5 116.5t149 42q83 0 149 -43t103.5 -118t37.5 -167q0 -91 -37 -165.5t-101.5 -117.5t-145.5 -43q-86 0 -152.5 42zM1055 1413h172l-852 -1413h-172zM436.5 965q27.5 21 43.5 58t16 83q0 73 -35.5 118.5
t-91.5 45.5q-57 0 -90 -44t-33 -118q0 -75 34.5 -119.5t94.5 -44.5q34 0 61.5 21zM908.5 22q-66.5 42 -103.5 116.5t-37 168.5t36.5 168t101.5 116t149 42q83 0 149.5 -43t104 -118t37.5 -167q0 -91 -37 -165.5t-102 -117t-146 -42.5q-86 0 -152.5 42zM1559.5 22
q-66.5 42 -103.5 116.5t-37 168.5t36.5 168t101.5 116t149 42q83 0 149.5 -43t104 -118t37.5 -167q0 -91 -37 -165.5t-102 -117t-146 -42.5q-86 0 -152.5 42zM2211 22q-66 42 -103 116.5t-37 168.5t36 168t101 116t149 42q83 0 149.5 -43t104 -118t37.5 -167
q0 -91 -37 -165.5t-102 -117t-146 -42.5q-86 0 -152 42zM1122.5 164q27.5 21 43.5 58t16 83q0 73 -35.5 118.5t-91.5 45.5q-57 0 -90 -44t-33 -118q0 -75 34.5 -119.5t94.5 -44.5q34 0 61.5 21zM1799 189q34 46 34 116q0 74 -35 119t-92 45t-90 -44t-33 -118
q0 -75 34.5 -119.5t94.5 -44.5q53 0 87 46zM2450 189q34 46 34 116q0 74 -35 119t-92 45t-90 -44t-33 -118q0 -75 35 -119.5t94 -44.5q53 0 87 46z" />
    <glyph glyph-name="guilsinglleft" unicode="&#x2039;" horiz-adv-x="594" 
d="M21 510l428 356v-211l-181 -145l181 -143v-211z" />
    <glyph glyph-name="guilsinglright" unicode="&#x203a;" horiz-adv-x="594" 
d="M145 367l181 143l-181 145v211l428 -356l-428 -354v211z" />
    <glyph glyph-name="fraction" unicode="&#x2044;" horiz-adv-x="328" 
d="M504 1413h172l-852 -1413h-172z" />
    <glyph glyph-name="Euro" unicode="&#x20ac;" horiz-adv-x="1282" 
d="M544.5 43q-108.5 63 -176.5 169t-98 241h-174l78 180h72q-2 26 -2 74l1 45q1 15 1 41h-150l78 186h98q32 130 99 233t174.5 163.5t251.5 60.5q257 0 405 -205l-155 -123q-42 70 -104 102.5t-144 32.5q-125 0 -202 -69.5t-105 -194.5h516l-78 -182h-471q-4 -54 -4 -74
q0 -32 4 -82h549l-78 -180h-438q27 -126 106 -204.5t201 -78.5q78 0 137 34.5t106 98.5l148 -145q-148 -186 -391 -186q-146 0 -254.5 63z" />
    <glyph glyph-name="uni20B1" unicode="&#x20b1;" horiz-adv-x="1350" 
d="M1284 950h-92q-11 -115 -77.5 -197t-175 -124.5t-244.5 -42.5h-191v-586h-252v950h-119v103h119v360h443q134 0 241 -42t174 -123.5t81 -194.5h93v-103zM504 1053h430q-36 123 -239 123h-191v-123zM864 855q59 32 73 95h-433v-127h191q110 0 169 32z" />
    <glyph glyph-name="uni20B3" unicode="&#x20b3;" horiz-adv-x="1651" 
d="M264 246h-119v217h205l53 133h-258v217h347l239 600h191l239 -600h344v-217h-258l53 -133h205v-217h-119l99 -246h-275l-90 246h-588l-90 -246h-276zM911 813l-84 227l-84 -227h168zM1040 463l-49 133h-327l-50 -133h426z" />
    <glyph glyph-name="uni20B4" unicode="&#x20b4;" horiz-adv-x="1454" 
d="M1327 983v-176h-1198v176h762q22 33 22 74q0 44 -23.5 78.5t-64 53.5t-90.5 19q-71 0 -130.5 -39.5t-96.5 -111.5l-211 129q70 125 182 186.5t248 61.5q121 0 221.5 -46t159.5 -134.5t59 -209.5q0 -36 -4 -61h164zM129 698h1198v-176h-777q-67 -57 -67 -143
q0 -81 67.5 -125.5t178.5 -44.5q101 0 172.5 49.5t97.5 144.5l250 -57q-31 -119 -111 -200.5t-190.5 -121.5t-234.5 -40q-133 0 -243.5 45t-175.5 128t-65 191q0 98 58 174h-158v176z" />
    <glyph glyph-name="uni20B8" unicode="&#x20b8;" horiz-adv-x="1376" 
d="M119 1413h1138v-207h-1138v207zM561 854h-442v207h1138v-207h-442v-854h-254v854z" />
    <glyph glyph-name="uni20BD" unicode="&#x20bd;" horiz-adv-x="1354" 
d="M317 262h-178v197h178v147h-178v217h178v590h443q145 0 258.5 -49.5t177.5 -143.5t64 -225q0 -128 -63.5 -215.5t-176 -130.5t-260.5 -43h-191v-147h334v-197h-334v-262h-252v262zM760 823q128 0 188 43t60 129q0 181 -248 181h-191v-353h191z" />
    <glyph glyph-name="uni2116" unicode="&#x2116;" horiz-adv-x="2376" 
d="M1028 1413h244v-1413h-254l-592 995v-995h-244v1413h252l594 -986v986zM1652.5 390q-95.5 58 -148 156.5t-52.5 215.5q0 116 52.5 213.5t148 155t219.5 57.5t220 -57.5t149 -155t53 -213.5q0 -117 -53 -215.5t-149 -156.5t-220 -58t-219.5 58zM1713 942.5
q-52 -71.5 -52 -180.5q0 -111 52 -183.5t159 -72.5t160 73t53 183q0 109 -53 180.5t-160 71.5t-159 -71.5zM1452 184h827v-184h-827v184z" />
    <glyph glyph-name="trademark" unicode="&#x2122;" horiz-adv-x="1292" 
d="M197 1274h-146v139h443v-139h-146v-397h-151v397zM600 1413h248l74 -317l73 317h244v-536h-152v380l-116 -380h-97l-122 380v-380h-152v536z" />
    <glyph glyph-name="uni2126" unicode="&#x2126;" horiz-adv-x="1673" 
d="M1528 195v-195h-580v188q110 16 192 86t126.5 183.5t44.5 255.5q0 99 -30.5 187.5t-82.5 141.5q-69 74 -167 117t-195 43q-96 0 -194 -43.5t-169 -116.5q-52 -53 -82.5 -141.5t-30.5 -187.5q0 -143 44.5 -256.5t126.5 -183.5t192 -85v-188h-580v203h272
q-123 99 -195.5 239t-72.5 279q0 129 49 256t132 213q97 100 234 158.5t274 58.5q136 0 273 -59.5t234 -159.5q83 -86 132 -213.5t49 -259.5q0 -145 -67 -285t-181 -235h252z" />
    <glyph glyph-name="arrowleft" unicode="&#x2190;" horiz-adv-x="2308" 
d="M39 639l1087 602l82 -162l-624 -348l1652 -2v-184l-1654 2l626 -352l-82 -162z" />
    <glyph glyph-name="arrowright" unicode="&#x2192;" horiz-adv-x="2308" 
d="M1100 195l626 352l-1654 -2v184l1652 2l-624 348l82 162l1087 -602l-1087 -606z" />
    <glyph glyph-name="partialdiff" unicode="&#x2202;" horiz-adv-x="1282" 
d="M313 47q-105 59 -160 164t-55 240q0 159 75 286t198 198t260 71q149 0 280 -88q0 86 -20 145q-28 93 -96.5 140.5t-159.5 47.5q-72 0 -136 -33.5t-102 -123.5l-178 55q54 134 169 207.5t269 73.5q170 0 281.5 -87t164 -236.5t52.5 -342.5q0 -228 -71 -404t-205 -274
t-318 -98q-143 0 -248 59zM756 249q77 52 118 134t41 168q0 70 -28 128t-85 93t-140 35q-108 0 -184.5 -52t-115 -133.5t-38.5 -168.5q0 -83 34.5 -141t91.5 -86.5t125 -28.5q104 0 181 52z" />
    <glyph glyph-name="uni2206" unicode="&#x2206;" horiz-adv-x="1288" 
d="M643 1491l600 -1491h-1198zM944 205l-301 788l-299 -788h600z" />
    <glyph glyph-name="product" unicode="&#x220f;" horiz-adv-x="1343" 
d="M236 1208h-82v205h1036v-205h-82v-1208h-205v1208h-463v-1208h-204v1208z" />
    <glyph glyph-name="summation" unicode="&#x2211;" horiz-adv-x="1288" 
d="M1176 1182h-676l477 -475l-477 -476h676v-231h-1094v113l565 594l-565 593v113h1094v-231z" />
    <glyph glyph-name="minus" unicode="&#x2212;" horiz-adv-x="1262" 
d="M215 721h832v-184h-832v184z" />
    <glyph glyph-name="radical" unicode="&#x221a;" horiz-adv-x="1202" 
d="M211 541h-158v204h305l146 -460l436 1128h219l-667 -1655z" />
    <glyph glyph-name="infinity" unicode="&#x221e;" horiz-adv-x="1880" 
d="M322 402.5q-90 48.5 -137.5 134.5t-47.5 198t47.5 198t137.5 134.5t213 48.5q107 0 214.5 -55.5t190.5 -159.5q84 104 191.5 159.5t214.5 55.5q122 0 212 -48.5t137.5 -134.5t47.5 -198t-47.5 -198t-137.5 -134.5t-212 -48.5q-107 0 -215 55.5t-191 159.5
q-84 -104 -191.5 -159.5t-213.5 -55.5q-123 0 -213 48.5zM653.5 571.5q47.5 20.5 94.5 62t83 101.5q-54 90 -128 137.5t-138 47.5q-98 0 -154.5 -48.5t-56.5 -136.5t56.5 -136t154.5 -48q41 0 88.5 20.5zM1469.5 599q56.5 48 56.5 136t-56.5 136.5t-154.5 48.5
q-41 0 -88.5 -21t-94.5 -62.5t-83 -101.5q54 -90 128 -137t138 -47q98 0 154.5 48z" />
    <glyph glyph-name="integral" unicode="&#x222b;" horiz-adv-x="899" 
d="M41 -252q114 0 180.5 26.5t96.5 85.5t30 160v1117q0 88 40.5 159t109.5 111.5t151 40.5q59 0 117 -22t106 -64l-131 -156q-43 37 -92 37q-40 0 -68 -27.5t-28 -87.5v-1114q0 -151 -63 -257t-178.5 -160t-270.5 -54v205z" />
    <glyph glyph-name="approxequal" unicode="&#x2248;" horiz-adv-x="1225" 
d="M680 722q-44 20 -70 48t-57 72q-23 32 -38 49.5t-35.5 29t-47.5 11.5q-42 0 -66 -46.5t-24 -125.5h-184q0 100 34 176t96 118t144 42q67 0 113 -21t73.5 -49.5t58.5 -73.5q30 -44 53.5 -65t57.5 -21q42 0 68.5 55t26.5 140h184q0 -105 -35 -186.5t-98 -127t-146 -45.5
q-64 0 -108 20zM680 229q-44 20 -70 47.5t-57 71.5q-23 32 -38 49.5t-35.5 29t-47.5 11.5q-42 0 -66 -46.5t-24 -125.5h-184q0 100 34 176t96 118t144 42q67 0 113 -21t73.5 -49.5t58.5 -73.5q30 -44 53.5 -64.5t57.5 -20.5q42 0 68.5 55t26.5 139h184q0 -105 -35 -186
t-98 -126.5t-146 -45.5q-64 0 -108 20z" />
    <glyph glyph-name="notequal" unicode="&#x2260;" horiz-adv-x="1194" 
d="M295 344h-117v207h242l145 242h-387v206h512l250 414h172l-250 -414h146v-206h-271l-145 -242h416v-207h-541l-207 -344h-172z" />
    <glyph glyph-name="lessequal" unicode="&#x2264;" horiz-adv-x="1356" 
d="M64 776l1087 620l93 -159l-807 -461l807 -461l-93 -160zM1301 0v-184h-1135v184h1135z" />
    <glyph glyph-name="greaterequal" unicode="&#x2265;" horiz-adv-x="1356" 
d="M112 315l807 461l-807 461l93 159l1087 -620l-1087 -621zM1190 -184h-1135v184h1135v-184z" />
    <glyph glyph-name="lozenge" unicode="&#x25ca;" horiz-adv-x="1208" 
d="M61 707l381 706h324l381 -706l-381 -707h-324zM616 127l291 580l-291 579h-24l-291 -579l291 -580h24z" />
    <glyph glyph-name="uniF8FF" unicode="&#xf8ff;" horiz-adv-x="1712" 
d="M467.5 43q-177.5 104 -281.5 281.5t-104 388.5t104 388.5t281.5 281.5t388.5 104t388.5 -104t281.5 -281.5t104 -388.5t-104 -388.5t-281.5 -281.5t-388.5 -104t-388.5 104zM1208.5 104.5q161.5 94.5 256 256t94.5 352.5t-94.5 352.5t-256 255.5t-352.5 94t-352.5 -94
t-255.5 -255.5t-94 -352.5t94 -352.5t255.5 -256t352.5 -94.5t352.5 94.5zM428 419.5q-10 9.5 -10 24.5v537q0 15 10.5 26t24.5 11q15 0 25.5 -11t10.5 -26v-537q0 -15 -10.5 -24.5t-25.5 -9.5t-25 9.5zM831 419.5q-10 9.5 -10 24.5v537q0 15 10 26t25 11t25 -11t10 -26
v-537q0 -15 -9.5 -24.5t-25.5 -9.5q-15 0 -25 9.5zM1235 420l-270 268q-9 10 -9 25q0 16 9 24l270 269q9 12 22 12q14 0 25.5 -11.5t11.5 -25.5t-10 -25l-244 -243l244 -244q10 -10 10 -25q0 -13 -11.5 -23.5t-25.5 -10.5t-22 10zM562.5 687.5q-9.5 9.5 -9.5 25.5
q0 15 9.5 25t25.5 10h133q15 0 26 -10t11 -25t-11 -25t-26 -10h-133q-16 0 -25.5 9.5z" />
    <glyph glyph-name="i.loclTRK" horiz-adv-x="535" 
d="M145 999h244v-999h-244v999zM139 1413h256v-225h-256v225z" />
    <glyph glyph-name="g.ss01" horiz-adv-x="1157" 
d="M98 -264l187 135q32 -58 99.5 -97.5t162.5 -39.5q109 0 164 61.5t55 204.5v121q-50 -62 -123 -91.5t-158 -29.5q-135 0 -233 70t-148.5 186.5t-50.5 253.5q0 136 50.5 252.5t147.5 187t230 70.5q84 0 159.5 -30t125.5 -91v100h246v-999q0 -233 -122 -356t-347 -123
q-291 0 -445 215zM725.5 304q60.5 79 60.5 206t-60.5 208t-180.5 81q-81 0 -136 -38.5t-81.5 -104t-26.5 -146.5q0 -126 62 -205.5t182 -79.5t180.5 79z" />
    <glyph glyph-name="gbreve.ss01" horiz-adv-x="1157" 
d="M98 -264l187 135q32 -58 99.5 -97.5t162.5 -39.5q109 0 164 61.5t55 204.5v121q-50 -62 -123 -91.5t-158 -29.5q-135 0 -233 70t-148.5 186.5t-50.5 253.5q0 136 50.5 252.5t147.5 187t230 70.5q84 0 159.5 -30t125.5 -91v100h246v-999q0 -233 -122 -356t-347 -123
q-291 0 -445 215zM725.5 304q60.5 79 60.5 206t-60.5 208t-180.5 81q-81 0 -136 -38.5t-81.5 -104t-26.5 -146.5q0 -126 62 -205.5t182 -79.5t180.5 79zM341 1211.5q-77 68.5 -77 201.5h172q0 -63 40 -95t104 -32t103.5 33t39.5 94h172q0 -270 -315 -270q-162 0 -239 68.5z
" />
    <glyph glyph-name="uni0123.ss01" horiz-adv-x="1157" 
d="M686 1094h-254l248 315h141zM98 -264l187 135q32 -58 99.5 -97.5t162.5 -39.5q109 0 164 61.5t55 204.5v121q-50 -62 -123 -91.5t-158 -29.5q-135 0 -233 70t-148.5 186.5t-50.5 253.5q0 136 50.5 252.5t147.5 187t230 70.5q84 0 159.5 -30t125.5 -91v100h246v-999
q0 -233 -122 -356t-347 -123q-291 0 -445 215zM725.5 304q60.5 79 60.5 206t-60.5 208t-180.5 81q-81 0 -136 -38.5t-81.5 -104t-26.5 -146.5q0 -126 62 -205.5t182 -79.5t180.5 79z" />
    <glyph glyph-name="gdotaccent.ss01" horiz-adv-x="1157" 
d="M98 -264l187 135q32 -58 99.5 -97.5t162.5 -39.5q109 0 164 61.5t55 204.5v121q-50 -62 -123 -91.5t-158 -29.5q-135 0 -233 70t-148.5 186.5t-50.5 253.5q0 136 50.5 252.5t147.5 187t230 70.5q84 0 159.5 -30t125.5 -91v100h246v-999q0 -233 -122 -356t-347 -123
q-291 0 -445 215zM725.5 304q60.5 79 60.5 206t-60.5 208t-180.5 81q-81 0 -136 -38.5t-81.5 -104t-26.5 -146.5q0 -126 62 -205.5t182 -79.5t180.5 79zM450 1413h256v-225h-256v225z" />
    <glyph glyph-name="g.ss02" horiz-adv-x="1071" 
d="M823.5 146q80.5 -26 134.5 -92t54 -177q0 -102 -50 -177.5t-152.5 -117t-254.5 -41.5q-138 0 -253.5 35.5t-185 108.5t-69.5 182q0 52 16 92l137 54q-57 36 -94.5 91.5t-37.5 131.5q0 63 30.5 119.5t92.5 95.5q-60 90 -60 202q0 106 53.5 190t147 130.5t207.5 46.5
q129 0 232 -61l153 131l125 -156l-146 -117q41 -79 41 -172q0 -108 -54 -190t-146.5 -127t-204.5 -45q-115 0 -209 47q-35 -25 -35 -70q0 -57 44 -72.5t103 -15.5h211q90 0 170.5 -26zM419.5 776.5q-44.5 -50.5 -44.5 -127.5q0 -76 44.5 -124t123.5 -48q78 0 122 48t44 124
q0 77 -44.5 127.5t-121.5 50.5q-79 0 -123.5 -50.5zM717 -241.5q61 30.5 61 98.5q0 51 -32.5 75t-77 29.5t-113.5 5.5h-195l-86 -73v-23q0 -31 14 -61t72.5 -56t178.5 -26q117 0 178 30.5z" />
    <glyph glyph-name="gbreve.ss02" horiz-adv-x="1071" 
d="M823.5 146q80.5 -26 134.5 -92t54 -177q0 -102 -50 -177.5t-152.5 -117t-254.5 -41.5q-138 0 -253.5 35.5t-185 108.5t-69.5 182q0 52 16 92l137 54q-57 36 -94.5 91.5t-37.5 131.5q0 63 30.5 119.5t92.5 95.5q-60 90 -60 202q0 106 53.5 190t147 130.5t207.5 46.5
q129 0 232 -61l153 131l125 -156l-146 -117q41 -79 41 -172q0 -108 -54 -190t-146.5 -127t-204.5 -45q-115 0 -209 47q-35 -25 -35 -70q0 -57 44 -72.5t103 -15.5h211q90 0 170.5 -26zM419.5 776.5q-44.5 -50.5 -44.5 -127.5q0 -76 44.5 -124t123.5 -48q78 0 122 48t44 124
q0 77 -44.5 127.5t-121.5 50.5q-79 0 -123.5 -50.5zM717 -241.5q61 30.5 61 98.5q0 51 -32.5 75t-77 29.5t-113.5 5.5h-195l-86 -73v-23q0 -31 14 -61t72.5 -56t178.5 -26q117 0 178 30.5zM298 1211.5q-77 68.5 -77 201.5h172q0 -63 40 -95t104 -32t103.5 33t39.5 94h172
q0 -270 -315 -270q-162 0 -239 68.5z" />
    <glyph glyph-name="uni0123.ss02" horiz-adv-x="1071" 
d="M823.5 146q80.5 -26 134.5 -92t54 -177q0 -102 -50 -177.5t-152.5 -117t-254.5 -41.5q-138 0 -253.5 35.5t-185 108.5t-69.5 182q0 52 16 92l137 54q-57 36 -94.5 91.5t-37.5 131.5q0 63 30.5 119.5t92.5 95.5q-60 90 -60 202q0 106 53.5 190t147 130.5t207.5 46.5
q129 0 232 -61l153 131l125 -156l-146 -117q41 -79 41 -172q0 -108 -54 -190t-146.5 -127t-204.5 -45q-115 0 -209 47q-35 -25 -35 -70q0 -57 44 -72.5t103 -15.5h211q90 0 170.5 -26zM419.5 776.5q-44.5 -50.5 -44.5 -127.5q0 -76 44.5 -124t123.5 -48q78 0 122 48t44 124
q0 77 -44.5 127.5t-121.5 50.5q-79 0 -123.5 -50.5zM717 -241.5q61 30.5 61 98.5q0 51 -32.5 75t-77 29.5t-113.5 5.5h-195l-86 -73v-23q0 -31 14 -61t72.5 -56t178.5 -26q117 0 178 30.5zM615 1119h-254l248 315h141z" />
    <glyph glyph-name="gdotaccent.ss02" horiz-adv-x="1071" 
d="M823.5 146q80.5 -26 134.5 -92t54 -177q0 -102 -50 -177.5t-152.5 -117t-254.5 -41.5q-138 0 -253.5 35.5t-185 108.5t-69.5 182q0 52 16 92l137 54q-57 36 -94.5 91.5t-37.5 131.5q0 63 30.5 119.5t92.5 95.5q-60 90 -60 202q0 106 53.5 190t147 130.5t207.5 46.5
q129 0 232 -61l153 131l125 -156l-146 -117q41 -79 41 -172q0 -108 -54 -190t-146.5 -127t-204.5 -45q-115 0 -209 47q-35 -25 -35 -70q0 -57 44 -72.5t103 -15.5h211q90 0 170.5 -26zM419.5 776.5q-44.5 -50.5 -44.5 -127.5q0 -76 44.5 -124t123.5 -48q78 0 122 48t44 124
q0 77 -44.5 127.5t-121.5 50.5q-79 0 -123.5 -50.5zM717 -241.5q61 30.5 61 98.5q0 51 -32.5 75t-77 29.5t-113.5 5.5h-195l-86 -73v-23q0 -31 14 -61t72.5 -56t178.5 -26q117 0 178 30.5zM407 1413h256v-225h-256v225z" />
    <glyph glyph-name="T_h" horiz-adv-x="2128" 
d="M463 1186h-443v227h1334v-530q57 70 133 103.5t155 33.5q125 0 208 -59t122 -154.5t39 -206.5v-600h-248v569q0 106 -39 168t-141 62q-112 0 -170.5 -81t-58.5 -212v-506h-248v1186h-389v-1186h-254v1186z" />
    <glyph glyph-name="f_t" horiz-adv-x="1309" 
d="M886.5 16q-70.5 36 -108 102.5t-37.5 157.5v519h-313v-795h-244v795h-164v204h164v72q0 111 57.5 193.5t154 126t210.5 43.5q229 0 377 -74v-361h252v-204h-252v-476q0 -68 30 -96t83 -28q35 0 72 10.5t67 25.5v-221q-31 -12 -81.5 -21t-98.5 -9q-98 0 -168.5 36z
M745 999v222q-45 16 -127 16q-95 0 -142.5 -46t-47.5 -124v-68h317z" />
    <glyph glyph-name="t_t" horiz-adv-x="1405" 
d="M331.5 16q-70.5 36 -108 102.5t-37.5 157.5v519h-161v204h165v248l238 174v-422h414v248l237 174v-422h252v-204h-252v-476q0 -68 30 -96t83 -28q35 0 72 10.5t67 25.5v-221q-31 -12 -81 -21t-99 -9q-97 0 -168 36t-108 102.5t-37 157.5v519h-410v-476q0 -68 30 -96
t83 -28q35 0 72 10.5t67 25.5v-221q-31 -12 -81.5 -21t-98.5 -9q-98 0 -168.5 36z" />
    <glyph glyph-name="zero.lf" horiz-adv-x="1167" 
d="M203 192q-100 212 -100 515q0 189 34 347.5t139.5 270t303.5 111.5q266 0 377.5 -209.5t111.5 -521.5q0 -311 -107.5 -518t-367.5 -207q-291 0 -391 212zM736 290q48 71 59.5 170.5t11.5 248.5t-12.5 247.5t-62 167t-152.5 68.5t-153 -69t-62.5 -168t-12.5 -248t13 -249
t65 -169.5t158 -69.5q100 0 148 71z" />
    <glyph glyph-name="one.lf" horiz-adv-x="774" 
d="M598 1413v-1413h-250v999h-330v193h189q151 0 151 135v86h240z" />
    <glyph glyph-name="two.lf" horiz-adv-x="1147" 
d="M1084 229v-229h-1010v201q265 158 475.5 365.5t210.5 432.5q0 91 -49.5 148t-148.5 57q-127 0 -184 -88t-62 -217l-248 16q0 134 59 253t171 191.5t262 72.5q131 0 234 -51.5t161.5 -150.5t58.5 -237q0 -144 -82.5 -295.5t-204.5 -276t-236 -192.5h593z" />
    <glyph glyph-name="three.lf" horiz-adv-x="1167" 
d="M308 32.5q-119 52.5 -190 157.5t-71 256l242 15q0 -77 37 -133t102 -85.5t148 -29.5q75 0 138.5 25t101.5 75.5t38 122.5q0 93 -49.5 138.5t-120.5 57t-176 11.5v193q114 0 172 21.5t77 59t19 99.5q0 89 -57 135.5t-147 46.5q-97 0 -156.5 -54t-60.5 -147l-240 17
q0 129 61 224t164.5 145.5t227.5 50.5q119 0 223 -47t166.5 -135t62.5 -205q0 -92 -43 -168.5t-141 -122.5q134 -36 197 -126.5t63 -213.5q0 -138 -71.5 -236.5t-191 -149t-261.5 -50.5q-145 0 -264 52.5z" />
    <glyph glyph-name="four.lf" horiz-adv-x="1167" 
d="M1145 563v-231h-225v-332h-250v332h-653v147l690 934h213v-850h225zM670 563v462l-328 -462h328z" />
    <glyph glyph-name="five.lf" horiz-adv-x="1174" 
d="M855.5 904.5q110.5 -66.5 175.5 -179t65 -244.5t-70.5 -247.5t-190 -184.5t-257.5 -69q-124 0 -231.5 57t-180 155.5t-98.5 217.5l235 65q24 -113 90.5 -189.5t184.5 -76.5q74 0 133.5 39t93 102.5t33.5 132.5q0 71 -31 130.5t-90 94.5t-139 35q-70 0 -136 -35.5
t-104 -95.5l-229 58l137 743h786v-233h-585l-51 -264q55 30 108.5 42.5t110.5 12.5q130 0 240.5 -66.5z" />
    <glyph glyph-name="six.lf" horiz-adv-x="1116" 
d="M818 900.5q118 -66.5 187.5 -180t69.5 -247.5t-69.5 -247t-187.5 -179.5t-257 -66.5q-140 0 -258.5 66.5t-188 179.5t-69.5 247q0 73 21.5 141.5t61.5 126.5l417 672h290l-282 -446h8q139 0 257 -66.5zM694 250q61 35 97 94.5t36 128.5t-36 128.5t-97 94.5t-133 35
q-74 0 -135.5 -35t-97 -94t-35.5 -129t35.5 -129t97 -94t135.5 -35q72 0 133 35z" />
    <glyph glyph-name="seven.lf" horiz-adv-x="1059" 
d="M1043 1413v-129l-627 -1284h-280l599 1182h-712v231h1020z" />
    <glyph glyph-name="eight.lf" horiz-adv-x="1196" 
d="M339.5 28.5q-119.5 48.5 -191.5 144.5t-72 233q0 116 54 208.5t150 149.5q-65 55 -99 128t-34 157q0 118 62.5 205.5t166 133.5t222.5 46q118 0 221.5 -46.5t166 -133.5t62.5 -203q0 -86 -35 -159.5t-98 -127.5q100 -59 152.5 -150t52.5 -206q0 -138 -72.5 -235
t-191.5 -145t-258 -48t-258.5 48.5zM750.5 889q56.5 51 56.5 141t-57.5 141.5t-147.5 51.5q-88 0 -146.5 -49t-58.5 -140q0 -89 55.5 -142.5t149.5 -53.5q92 0 148.5 51zM734.5 223q61.5 26 97.5 79t36 130q0 75 -35 129.5t-97 82.5t-140 28q-80 0 -141.5 -28t-96.5 -82
t-35 -128q0 -78 36.5 -131.5t98.5 -79.5t138 -26q77 0 138.5 26z" />
    <glyph glyph-name="nine.lf" horiz-adv-x="1116" 
d="M1049.5 798.5q-21.5 -68.5 -61.5 -126.5l-417 -672h-290l282 446h-8q-139 0 -257 66.5t-187.5 180t-69.5 247.5t69.5 247t187.5 179.5t257 66.5q140 0 258.5 -66.5t188 -179.5t69.5 -247q0 -73 -21.5 -141.5zM325 811.5q36 -59.5 97 -94.5t133 -35q74 0 135.5 35t97 94
t35.5 129t-35.5 129t-97 94t-135.5 35q-72 0 -133 -35t-97 -94.5t-36 -128.5t36 -128.5z" />
    <glyph glyph-name="zero.dnom" horiz-adv-x="729" 
d="M175.5 55.5q-71.5 67.5 -99 165t-27.5 203.5q0 107 26.5 205t95.5 165.5t189 67.5q112 0 184 -63t104 -163t32 -214q0 -113 -31 -211.5t-100.5 -160.5t-177.5 -62q-124 0 -195.5 67.5zM480.5 223.5q31.5 82.5 31.5 202.5q0 279 -152 279q-149 0 -149 -281
q0 -283 156 -283q82 0 113.5 82.5z" />
    <glyph glyph-name="one.dnom" horiz-adv-x="463" 
d="M346 848v-848h-162v592h-194v125h108q95 0 95 84v47h153z" />
    <glyph glyph-name="two.dnom" horiz-adv-x="713" 
d="M670 147v-147h-647v127q175 104 308.5 222t133.5 249q0 50 -27.5 82.5t-83.5 32.5q-72 0 -103.5 -52t-35.5 -126l-160 12q0 79 36 151.5t104 117t159 44.5q79 0 141.5 -31t98 -91t35.5 -144q0 -85 -49.5 -172t-127 -159t-158.5 -116h376z" />
    <glyph glyph-name="three.dnom" horiz-adv-x="700" 
d="M181 19.5q-72 31.5 -115 95.5t-43 155l155 11q0 -68 46 -106t118 -38q67 0 113.5 32.5t46.5 98.5q0 75 -55.5 99t-143.5 24v107q64 0 97 12.5t44 32.5t11 49q0 63 -31.5 90t-81.5 27q-56 0 -90 -30.5t-35 -82.5l-154 10q0 78 37 136t100 88t138 30q72 0 135 -28t101 -81
t38 -124q0 -52 -21.5 -94t-78.5 -72q77 -22 111 -79t34 -130q0 -85 -43.5 -144.5t-115.5 -89.5t-158 -30q-87 0 -159 31.5z" />
    <glyph glyph-name="four.dnom" horiz-adv-x="686" 
d="M664 348v-149h-134v-199h-161v199h-387v94l411 555h137v-500h134zM369 348v249l-176 -249h176z" />
    <glyph glyph-name="five.dnom" horiz-adv-x="717" 
d="M520.5 545.5q66.5 -40.5 106 -108.5t39.5 -148q0 -79 -43 -148.5t-115.5 -111t-155.5 -41.5q-75 0 -140 34.5t-109.5 94t-59.5 131.5l152 43q13 -66 50 -111t107 -45q42 0 76 22.5t53 59t19 74.5q0 40 -18 73.5t-52 53.5t-80 20q-39 0 -77 -20t-58 -53l-147 34l82 449
h479v-152h-348l-27 -138q59 28 121 28q79 0 145.5 -40.5z" />
    <glyph glyph-name="six.dnom" horiz-adv-x="641" 
d="M507.5 520q57.5 -41 91.5 -103t34 -130q0 -79 -40.5 -147.5t-112.5 -110t-161 -41.5q-85 0 -156 39.5t-113 107t-42 148.5q0 40 11.5 75t35.5 74l254 416h187l-191 -280q21 3 42 3q12 0 36 -2q67 -8 124.5 -49zM398 160.5q35 19.5 55 53t20 73.5q0 39 -20 72.5t-55 53
t-76 19.5t-76.5 -19.5t-56.5 -53t-21 -72.5q0 -40 21 -73.5t56.5 -53t76.5 -19.5t76 19.5z" />
    <glyph glyph-name="seven.dnom" horiz-adv-x="598" 
d="M616 848v-82l-372 -766h-183l356 698h-415v150h614z" />
    <glyph glyph-name="eight.dnom" horiz-adv-x="727" 
d="M205.5 17q-72.5 29 -116.5 87t-44 140q0 69 31 124t86 91q-36 33 -55 76.5t-19 91.5q0 72 38 124.5t100.5 80.5t135.5 28t136.5 -27.5t102 -80t38.5 -123.5q0 -50 -19.5 -93.5t-54.5 -76.5q57 -37 87 -91.5t30 -121.5q0 -83 -44.5 -141.5t-117.5 -87.5t-158 -29
q-84 0 -156.5 29zM451 545.5q32 27.5 32 77.5q0 47 -33 74.5t-83 27.5q-52 0 -85.5 -26t-33.5 -74t32.5 -77.5t86.5 -29.5q52 0 84 27.5zM474.5 159q43.5 32 43.5 93t-43.5 95t-112.5 34q-70 0 -113.5 -33.5t-43.5 -93.5q0 -62 44.5 -94.5t112.5 -32.5q69 0 112.5 32z" />
    <glyph glyph-name="nine.dnom" horiz-adv-x="645" 
d="M582 395l-246 -395h-189l168 264q-82 2 -152.5 42.5t-111.5 108t-41 146.5q0 81 42.5 150t114 109t155.5 40q86 0 157.5 -40t113.5 -108.5t42 -150.5q0 -91 -53 -166zM190.5 488.5q20.5 -33.5 55.5 -53t76 -19.5q42 0 77 19.5t55.5 53t20.5 72.5q0 40 -20.5 74t-55.5 54
t-77 20q-41 0 -76 -20t-55.5 -54t-20.5 -74q0 -39 20.5 -72.5z" />
    <glyph glyph-name="zero.numr" horiz-adv-x="729" 
d="M175.5 628.5q-71.5 67.5 -99 165t-27.5 203.5q0 107 26.5 205t95.5 165.5t189 67.5q112 0 184 -63t104 -163t32 -214q0 -113 -31 -211.5t-100.5 -160.5t-177.5 -62q-124 0 -195.5 67.5zM480.5 796.5q31.5 82.5 31.5 202.5q0 279 -152 279q-149 0 -149 -281
q0 -283 156 -283q82 0 113.5 82.5z" />
    <glyph glyph-name="one.numr" horiz-adv-x="463" 
d="M346 1421v-848h-162v592h-194v125h108q95 0 95 84v47h153z" />
    <glyph glyph-name="two.numr" horiz-adv-x="713" 
d="M670 720v-147h-647v127q175 104 308.5 222t133.5 249q0 50 -27.5 82.5t-83.5 32.5q-72 0 -103.5 -52t-35.5 -126l-160 12q0 79 36 151.5t104 117t159 44.5q79 0 141.5 -31t98 -91t35.5 -144q0 -85 -49.5 -172t-127 -159t-158.5 -116h376z" />
    <glyph glyph-name="three.numr" horiz-adv-x="700" 
d="M181 592.5q-72 31.5 -115 95.5t-43 155l155 11q0 -68 46 -106t118 -38q67 0 113.5 32.5t46.5 98.5q0 75 -55.5 99t-143.5 24v107q64 0 97 12.5t44 32.5t11 49q0 63 -31.5 90t-81.5 27q-56 0 -90 -30.5t-35 -82.5l-154 10q0 78 37 136t100 88t138 30q72 0 135 -28t101 -81
t38 -124q0 -52 -21.5 -94t-78.5 -72q77 -22 111 -79t34 -130q0 -85 -43.5 -144.5t-115.5 -89.5t-158 -30q-87 0 -159 31.5z" />
    <glyph glyph-name="four.numr" horiz-adv-x="686" 
d="M664 913v-149h-134v-199h-161v199h-387v94l411 555h137v-500h134zM369 913v249l-176 -249h176z" />
    <glyph glyph-name="five.numr" horiz-adv-x="717" 
d="M520.5 1110.5q66.5 -40.5 106 -108.5t39.5 -148q0 -79 -43 -148.5t-115.5 -111t-155.5 -41.5q-75 0 -140 34.5t-109.5 94t-59.5 131.5l152 43q13 -66 50 -111t107 -45q42 0 76 22.5t53 59t19 74.5q0 40 -18 73.5t-52 53.5t-80 20q-39 0 -77 -20t-58 -53l-147 34l82 449
h479v-152h-348l-27 -138q59 28 121 28q79 0 145.5 -40.5z" />
    <glyph glyph-name="six.numr" horiz-adv-x="641" 
d="M507.5 1085.5q57.5 -41.5 91.5 -103.5t34 -130q0 -79 -40.5 -147.5t-112.5 -110t-161 -41.5q-85 0 -156 39.5t-113 107t-42 148.5q0 40 11.5 75t35.5 74l254 416h187l-190 -279q21 3 41 3q12 0 36 -2q67 -8 124.5 -49.5zM398 726q35 19 55 52.5t20 73.5q0 39 -20 72.5
t-55 53t-76 19.5t-76.5 -19.5t-56.5 -53t-21 -72.5q0 -40 21 -73.5t56 -52.5t77 -19q41 0 76 19z" />
    <glyph glyph-name="seven.numr" horiz-adv-x="598" 
d="M616 1413v-82l-372 -766h-183l356 698h-415v150h614z" />
    <glyph glyph-name="eight.numr" horiz-adv-x="727" 
d="M205.5 590q-72.5 29 -116.5 87t-44 140q0 69 31 124t86 91q-36 33 -55 76.5t-19 91.5q0 72 38 124.5t100.5 80.5t135.5 28t136.5 -27.5t102 -80t38.5 -123.5q0 -50 -19.5 -93.5t-54.5 -76.5q57 -37 87 -91.5t30 -121.5q0 -83 -44.5 -141.5t-117.5 -87.5t-158 -29
q-84 0 -156.5 29zM451 1118.5q32 27.5 32 77.5q0 47 -33 74.5t-83 27.5q-52 0 -85.5 -26t-33.5 -74t32.5 -77.5t86.5 -29.5q52 0 84 27.5zM474.5 732q43.5 32 43.5 93t-43.5 95t-112.5 34q-70 0 -113.5 -33.5t-43.5 -93.5q0 -62 44.5 -94.5t112.5 -32.5q69 0 112.5 32z" />
    <glyph glyph-name="nine.numr" horiz-adv-x="645" 
d="M590 981l-254 -408h-189l168 265q-82 2 -152.5 42.5t-111.5 108t-41 146.5q0 81 42.5 149.5t114 109t155.5 40.5q86 0 157.5 -40t113.5 -109t42 -150q0 -84 -45 -154zM190.5 1062.5q20.5 -33.5 55.5 -53.5t76 -20q42 0 77 19.5t55.5 53.5t20.5 73q0 40 -20.5 74
t-55.5 53.5t-77 19.5q-41 0 -76 -19.5t-55.5 -53.5t-20.5 -74q0 -39 20.5 -72.5z" />
    <glyph glyph-name="caroncomb.alt" 
d="M-293 1413h256l-228 -455h-143z" />
    </font>
</defs>
</svg>
