<svg xmlns="http://www.w3.org/2000/svg" width="60" height="54" viewBox="0 0 60 54">
  <metadata><?xpacket begin="﻿" id="W5M0MpCehiHzreSzNTczkc9d"?>
<x:xmpmeta xmlns:x="adobe:ns:meta/" x:xmptk="Adobe XMP Core 5.6-c138 79.159824, 2016/09/14-01:09:01        ">
   <rdf:RDF xmlns:rdf="http://www.w3.org/1999/02/22-rdf-syntax-ns#">
      <rdf:Description rdf:about=""/>
   </rdf:RDF>
</x:xmpmeta>
                                                                                                    
                                                                                                    
                                                                                                    
                                                                                                    
                                                                                                    
                                                                                                    
                                                                                                    
                                                                                                    
                                                                                                    
                                                                                                    
                                                                                                    
                                                                                                    
                                                                                                    
                                                                                                    
                                                                                                    
                                                                                                    
                                                                                                    
                                                                                                    
                                                                                                    
                                                                                                    
                           
<?xpacket end="w"?></metadata>
<defs>
    <style>
      .cls-1 {
        fill: #979c6d;
        fill-rule: evenodd;
      }
    </style>
  </defs>
  <path id="camping-infobox-1" class="cls-1" d="M785,2211a7.006,7.006,0,0,1-6.925-6.03A7,7,0,0,0,783,2207a1,1,0,0,0,0-2,5,5,0,0,1-5-5v-0.03a4.92,4.92,0,0,0,3,1.03,1,1,0,0,0,0-2,3.006,3.006,0,0,1-3-3,1,1,0,0,0-2,0,3.006,3.006,0,0,1-3,3,1,1,0,0,0,0,2,4.92,4.92,0,0,0,3-1.03V2200a5,5,0,0,1-5,5,1,1,0,0,0,0,2,7,7,0,0,0,4.925-2.03A7.006,7.006,0,0,1,769,2211a1,1,0,0,0,0,2,8.968,8.968,0,0,0,7-3.36V2214a1,1,0,0,0,2,0v-4.36a8.968,8.968,0,0,0,7,3.36A1,1,0,0,0,785,2211Zm-51-1.36V2214a1,1,0,0,0,2,0v-4.36a8.968,8.968,0,0,0,7,3.36,1,1,0,0,0,0-2,7.006,7.006,0,0,1-6.925-6.03A7,7,0,0,0,741,2207a1,1,0,0,0,0-2,5,5,0,0,1-5-5v-0.03a4.92,4.92,0,0,0,3,1.03,1,1,0,0,0,0-2,3.006,3.006,0,0,1-3-3,1,1,0,0,0-2,0,3.006,3.006,0,0,1-3,3,1,1,0,0,0,0,2,4.92,4.92,0,0,0,3-1.03V2200a5,5,0,0,1-5,5,1,1,0,0,0,0,2,7,7,0,0,0,4.925-2.03A7.006,7.006,0,0,1,727,2211a1,1,0,0,0,0,2A8.968,8.968,0,0,0,734,2209.64Zm14-1.64a8.968,8.968,0,0,0,7-3.36V2209a1,1,0,0,0,2,0v-4.36a8.968,8.968,0,0,0,7,3.36,1,1,0,0,0,0-2,7.006,7.006,0,0,1-6.925-6.03A7,7,0,0,0,762,2202a1,1,0,0,0,0-2,5,5,0,0,1-5-5v-0.03a4.92,4.92,0,0,0,3,1.03,1,1,0,0,0,0-2,3.006,3.006,0,0,1-3-3,1,1,0,0,0-2,0,3.006,3.006,0,0,1-3,3,1,1,0,0,0,0,2,4.92,4.92,0,0,0,3-1.03V2195a5,5,0,0,1-5,5,1,1,0,0,0,0,2,7,7,0,0,0,4.925-2.03A7.006,7.006,0,0,1,748,2206,1,1,0,0,0,748,2208Zm33.674,22h-8.762l-5.09-8h5.852a2.334,2.334,0,0,0,2.326-2.33v-2.35a2.326,2.326,0,0,0-2.326-2.32H739.326a2.326,2.326,0,0,0-2.326,2.32v2.35a2.334,2.334,0,0,0,2.326,2.33h5.852l-5.09,8h-9.762a2.326,2.326,0,0,0-2.326,2.32v2.35a2.334,2.334,0,0,0,2.326,2.33h5.306l-2.725,4.28A1.771,1.771,0,0,0,734.4,2244h4.18a1.772,1.772,0,0,0,1.492-.82L744,2237H769l3.934,6.18a1.768,1.768,0,0,0,1.491.82h4.18a1.771,1.771,0,0,0,1.491-2.72l-2.725-4.28h4.306a2.334,2.334,0,0,0,2.326-2.33v-2.35A2.326,2.326,0,0,0,781.674,2230Zm-11.132,0h-3.63l-5.091-8h3.63Zm-6,0H748.458l5.09-8h5.9Zm-25.216-10a0.329,0.329,0,0,1-.326-0.33v-2.35a0.321,0.321,0,0,1,.326-0.32h34.348a0.321,0.321,0,0,1,.326.32v2.35a0.329,0.329,0,0,1-.326.33H739.326Zm8.223,2h3.63l-5.091,8h-3.63Zm-9.1,20h-3.63l3.182-5h3.63Zm39.728,0h-3.63l-3.182-5H775Zm3.821-7.33a0.329,0.329,0,0,1-.326.33H730.326a0.329,0.329,0,0,1-.326-0.33v-2.35a0.321,0.321,0,0,1,.326-0.32h51.347a0.321,0.321,0,0,1,.327.32v2.35Z" transform="translate(-726 -2190)"/>
</svg>
