<?xml version="1.0" encoding="UTF-8"?> <svg xmlns="http://www.w3.org/2000/svg" width="28" height="28" viewBox="0 0 28 28" fill="none"><circle cx="14" cy="14" r="14" fill="#FF5E2B"></circle><path d="M14 8.97879C13.1138 8.97879 12.3593 9.30766 11.7365 9.9654C11.1138 10.6231 10.8024 11.4137 10.8024 12.3371C10.8024 13.2731 11.1138 14.0699 11.7365 14.7277C12.3593 15.3854 13.1138 15.7143 14 15.7143C14.8862 15.7143 15.6407 15.3854 16.2635 14.7277C16.8862 14.0699 17.1976 13.2731 17.1976 12.3371C17.1976 11.4137 16.8862 10.6231 16.2635 9.9654C15.6407 9.30766 14.8862 8.97879 14 8.97879ZM14 14.3672C13.4731 14.3672 13.018 14.1711 12.6347 13.779C12.2635 13.3869 12.0778 12.9062 12.0778 12.3371C12.0778 11.7805 12.2635 11.3062 12.6347 10.9141C13.018 10.5219 13.4731 10.3259 14 10.3259C14.5269 10.3259 14.976 10.5219 15.3473 10.9141C15.7305 11.3062 15.9222 11.7805 15.9222 12.3371C15.9222 12.8936 15.7305 13.3743 15.3473 13.779C14.976 14.1711 14.5269 14.3672 14 14.3672ZM14 6C13.1737 6 12.3952 6.16443 11.6647 6.4933C10.9341 6.83482 10.2934 7.29018 9.74251 7.85938C9.20359 8.42857 8.77844 9.09896 8.46707 9.87054C8.15569 10.6421 8 11.4643 8 12.3371C8 13.1592 8.25749 14.1332 8.77246 15.2589C9.2994 16.372 9.88623 17.4535 10.5329 18.5033C11.1916 19.5532 11.8144 20.4829 12.4012 21.2924C13 22.0893 13.3713 22.5763 13.515 22.7533C13.5629 22.8292 13.6287 22.8862 13.7126 22.9241C13.8084 22.9747 13.9042 23 14 23C14.0958 23 14.1856 22.9747 14.2695 22.9241C14.3533 22.8862 14.4251 22.8292 14.485 22.7533C14.6287 22.5763 15 22.0893 15.5988 21.2924C16.1856 20.4829 16.8024 19.5532 17.4491 18.5033C18.1078 17.4535 18.7006 16.372 19.2275 15.2589C19.7425 14.1332 20 13.1592 20 12.3371C20 11.4643 19.8443 10.6421 19.5329 9.87054C19.2216 9.09896 18.7904 8.42857 18.2395 7.85938C17.7006 7.29018 17.0659 6.83482 16.3353 6.4933C15.6048 6.16443 14.8263 6 14 6ZM14 21.2545C13.5808 20.6979 13.1018 20.0212 12.5629 19.2243C12.012 18.4148 11.491 17.5926 11 16.7578C10.521 15.923 10.1138 15.1135 9.77844 14.3292C9.44311 13.5324 9.27545 12.8683 9.27545 12.3371C9.27545 11.654 9.4012 11.0089 9.65269 10.4018C9.89222 9.79464 10.2275 9.26972 10.6587 8.82701C11.0898 8.37165 11.5928 8.01116 12.1677 7.74554C12.7425 7.47991 13.3533 7.3471 14 7.3471C14.6467 7.3471 15.2575 7.47991 15.8323 7.74554C16.4072 8.01116 16.9102 8.37165 17.3413 8.82701C17.7725 9.26972 18.1078 9.79464 18.3473 10.4018C18.5988 11.0089 18.7246 11.654 18.7246 12.3371C18.7246 12.8683 18.5569 13.5324 18.2216 14.3292C17.8862 15.1135 17.4731 15.923 16.982 16.7578C16.503 17.5926 15.988 18.4148 15.4371 19.2243C14.8982 20.0212 14.4192 20.6979 14 21.2545Z" fill="white"></path></svg> 