<?xml version="1.0" encoding="UTF-8"?> <svg xmlns="http://www.w3.org/2000/svg" width="28" height="28" viewBox="0 0 28 28" fill="none"><circle cx="14" cy="14" r="14" fill="#FF5E2B"></circle><path d="M10.9249 21C10.9249 21 10.9198 21 10.9095 21C10.6004 21 10.3017 20.9382 10.0132 20.8146C9.7351 20.6909 9.49301 20.5261 9.28698 20.3201L7.41722 18.4503C7.2936 18.3267 7.19058 18.1773 7.10817 18.0022C7.03606 17.8271 7 17.6416 7 17.4459C7 17.2502 7.03606 17.0648 7.10817 16.8896C7.19058 16.7145 7.2936 16.5651 7.41722 16.4415L8.88521 14.9735C9.01913 14.8396 9.16851 14.7366 9.33333 14.6645C9.50846 14.5923 9.69904 14.5563 9.90508 14.5563C10.1832 14.5563 10.4356 14.6284 10.6623 14.7726C10.8889 14.9169 11.0589 15.1023 11.1722 15.3289V15.3444L11.4812 15.947C11.5018 15.9882 11.5276 16.0243 11.5585 16.0552C11.5997 16.0861 11.6461 16.1067 11.6976 16.117C11.7079 16.117 11.7182 16.1221 11.7285 16.1325C11.7388 16.1325 11.7491 16.1325 11.7594 16.1325C11.8006 16.1325 11.8366 16.1273 11.8675 16.117C11.9088 16.0964 11.9448 16.0758 11.9757 16.0552C12.3672 15.7255 12.738 15.401 13.0883 15.0817C13.4386 14.752 13.7682 14.4327 14.0773 14.1236C14.376 13.8249 14.6902 13.4952 15.0199 13.1347C15.3495 12.7741 15.6843 12.3929 16.0243 11.9912C16.0552 11.9603 16.0758 11.9294 16.0861 11.8985C16.0964 11.8572 16.1015 11.816 16.1015 11.7748C16.1015 11.7645 16.1015 11.7542 16.1015 11.7439C16.1015 11.7336 16.1015 11.7233 16.1015 11.713C16.0912 11.6615 16.0706 11.6203 16.0397 11.5894C16.0088 11.5482 15.9728 11.5173 15.9316 11.4967H15.9161L15.3289 11.1876C15.092 11.0743 14.9014 10.9043 14.7572 10.6777C14.613 10.4511 14.5408 10.1987 14.5408 9.92053C14.5408 9.7145 14.5769 9.52391 14.649 9.34879C14.7314 9.17366 14.8396 9.01913 14.9735 8.88521L16.4415 7.41722C16.5651 7.2936 16.7145 7.19573 16.8896 7.12362C17.0648 7.04121 17.2502 7 17.4459 7C17.6416 7 17.8271 7.04121 18.0022 7.12362C18.1773 7.19573 18.3267 7.2936 18.4503 7.41722L20.3201 9.28698C20.5261 9.50331 20.6909 9.75055 20.8146 10.0287C20.9382 10.3068 21 10.6056 21 10.9249C21 11.1619 20.9639 11.3885 20.8918 11.6049C20.83 11.8212 20.7373 12.0221 20.6137 12.2075V12.1921C20.4695 12.4187 20.284 12.6865 20.0574 12.9956C19.8308 13.2943 19.5578 13.6343 19.2384 14.0155C18.9294 14.3966 18.5688 14.8138 18.1567 15.2671C17.7447 15.7204 17.2759 16.2149 16.7506 16.7506C16.2149 17.2759 15.7204 17.7447 15.2671 18.1567C14.8138 18.5791 14.3966 18.9448 14.0155 19.2539C13.6343 19.5629 13.2943 19.8308 12.9956 20.0574C12.6865 20.284 12.4187 20.4695 12.1921 20.6137C12.0169 20.7373 11.8212 20.83 11.6049 20.8918C11.3885 20.9639 11.1619 21 10.9249 21ZM9.88962 15.6534C9.84842 15.6534 9.80721 15.6637 9.766 15.6843C9.7351 15.6946 9.70419 15.7152 9.67329 15.7461L8.2053 17.2141C8.17439 17.245 8.14864 17.2811 8.12804 17.3223C8.10743 17.3635 8.09713 17.4047 8.09713 17.4459C8.09713 17.4871 8.10743 17.5283 8.12804 17.5695C8.14864 17.6107 8.17439 17.6468 8.2053 17.6777L10.0596 19.5475C10.1729 19.6505 10.3017 19.738 10.4459 19.8102C10.6004 19.872 10.7601 19.9029 10.9249 19.9029C11.0486 19.9029 11.167 19.8874 11.2804 19.8565C11.3937 19.8153 11.4967 19.7638 11.5894 19.702C11.8057 19.5578 12.0581 19.3775 12.3466 19.1611C12.6453 18.9448 12.975 18.6873 13.3355 18.3885C13.7064 18.0898 14.1082 17.7395 14.5408 17.3377C14.9838 16.9463 15.4628 16.493 15.9779 15.9779C16.493 15.4731 16.9514 14.9993 17.3532 14.5563C17.7447 14.1133 18.0898 13.7116 18.3885 13.351C18.6976 12.9801 18.9551 12.6505 19.1611 12.362C19.3775 12.0633 19.5578 11.8057 19.702 11.5894C19.7638 11.4967 19.8102 11.3937 19.8411 11.2804C19.8823 11.167 19.9029 11.0434 19.9029 10.9095C19.9029 10.7447 19.8668 10.5901 19.7947 10.4459C19.7329 10.3017 19.6505 10.1729 19.5475 10.0596L17.6777 8.18985C17.6468 8.15894 17.6107 8.13834 17.5695 8.12804C17.5283 8.10743 17.4871 8.09713 17.4459 8.09713C17.3944 8.09713 17.3481 8.10743 17.3068 8.12804C17.2759 8.13834 17.245 8.15894 17.2141 8.18985L15.7461 9.65784C15.7152 9.68874 15.6895 9.7248 15.6689 9.766C15.6586 9.80721 15.6534 9.84842 15.6534 9.88962C15.6534 9.89993 15.6534 9.91023 15.6534 9.92053C15.6534 9.93083 15.6534 9.94113 15.6534 9.95143C15.6637 10.0029 15.6843 10.0493 15.7152 10.0905C15.7461 10.1317 15.7822 10.1626 15.8234 10.1832L16.426 10.4923C16.663 10.6056 16.8536 10.7756 16.9978 11.0022C17.142 11.2288 17.2141 11.4812 17.2141 11.7594C17.2141 11.9345 17.1832 12.1045 17.1214 12.2693C17.0596 12.4238 16.9772 12.5629 16.8742 12.6865C16.5239 13.0986 16.1788 13.4901 15.8389 13.8609C15.5092 14.2215 15.1847 14.5614 14.8653 14.8808C14.546 15.2001 14.206 15.5247 13.8455 15.8543C13.4849 16.184 13.1038 16.5188 12.702 16.8587C12.5784 16.9617 12.4341 17.0441 12.2693 17.106C12.1148 17.1678 11.95 17.1987 11.7748 17.1987C11.4967 17.1987 11.2443 17.1266 11.0177 16.9823C10.791 16.8381 10.621 16.6527 10.5077 16.426V16.4106L10.1987 15.8079C10.1781 15.7564 10.1472 15.7152 10.106 15.6843C10.0648 15.6534 10.0184 15.6328 9.96689 15.6225H9.95143L9.88962 15.6534Z" fill="white"></path></svg> 