<?xml version="1.0" encoding="utf-8"?><svg id="chair" xmlns="http://www.w3.org/2000/svg" viewBox="0 0 493 493"><style>.st0{fill:#558063}</style><path class="st0" d="M414.1 173.4c0-36.8-36.6-120.8-78.2-147.4a167.49 167.49 0 0 0-179.1 0c-41.6 26.6-78.2 110.7-78.2 147.4 0 45.2 24.3 69.4 59.5 82.2L86.6 483.3a8.06 8.06 0 0 0 7.8 9.7h16c3.6 0 6.7-2.3 7.7-5.8L151.3 373c.5 0 1-.1 1.5-.2l93.5-29.7 93.5 29.7c.5.1 1 .2 1.5.2v.1l33.2 114.2c1 3.4 4.1 5.7 7.7 5.8h16c2.4 0 4.7-1.1 6.2-3s2.1-4.4 1.6-6.7l-51.4-227.7c35.2-12.9 59.5-37.2 59.5-82.3zM104.5 476.8l48.9-216.5c4.2 1.1 8.6 2.1 13.1 3l-62 213.5zm216.3-174.3l-74.5 23.7-74.5-23.7 10.7-36.7c21.2 2.5 42.5 3.6 63.8 3.4 21.3.2 42.7-.9 63.8-3.4l10.7 36.7zm-164.2 52.3l10.7-36.9 52.7 16.8-63.4 20.1zm168.7-36.9l10.7 36.9-63.4-20.2 52.7-16.7zM388 476.8l-62-213.5c4.5-.9 8.9-1.8 13.1-3L388 476.8zm-82.3-226.3c-19.8 2-39.6 3-59.4 2.8-19.9.2-39.7-.8-59.4-2.8-5.5-.6-40.4-8.2-45.4-10.1-29.8-11.3-47-31.6-47-67 0-32.6 35-111.1 70.9-133.9a151.3 151.3 0 0 1 161.9 0c35.9 22.9 70.9 101.3 70.9 133.9 0 35.3-17.2 55.6-47 67-5 1.9-39.9 9.4-45.5 10.1z"/><path class="st0" d="M357.4 183.7c-14.7 14.6-51.1 21.7-111.2 21.7s-96.4-7.1-111.2-21.7a7.94 7.94 0 0 0-11.3.1c-3.1 3.1-3.1 8.2.1 11.3 18.1 17.9 57 26.3 122.4 26.3S350.6 213 368.7 195c3.1-3.1 3.2-8.2.1-11.3a8.15 8.15 0 0 0-11.4 0z"/></svg>