<?xml version="1.0" encoding="UTF-8"?> <svg xmlns="http://www.w3.org/2000/svg" width="64" height="64" viewBox="0 0 64 64" fill="#29C093"><path d="M60.8524 9.7816H49.6739V2.69545C49.6739 1.20684 48.467 0 46.9784 0H16.5695C15.0809 0 13.874 1.20684 13.874 2.69545V9.7816H2.69545C1.20684 9.7816 0 10.9884 0 12.477V61.3046C0 62.7932 1.20684 64 2.69545 64H60.8524C62.341 64 63.5479 62.7932 63.5479 61.3046V12.477C63.5479 10.9884 62.341 9.7816 60.8524 9.7816ZM19.2649 5.3909H44.2826V9.7816H19.2649V5.3909ZM58.157 58.6091H5.3909V15.1725H58.157V58.6091Z"></path><path d="M16.5695 44.6546H24.01V52.0951C24.01 53.5837 25.2168 54.7906 26.7054 54.7906H36.8417C38.3303 54.7906 39.5372 53.5837 39.5372 52.0951V44.6546H46.9781C48.4667 44.6546 49.6735 43.4477 49.6735 41.9591V31.8228C49.6735 30.3342 48.4667 29.1274 46.9781 29.1274H39.5372V21.6865C39.5372 20.1979 38.3303 18.991 36.8417 18.991H26.7058C25.2172 18.991 24.0103 20.1979 24.0103 21.6865V29.1274H16.5695C15.0809 29.1274 13.874 30.3342 13.874 31.8228V41.9591C13.874 43.4477 15.0809 44.6546 16.5695 44.6546ZM19.2649 34.5183H26.7054C28.194 34.5183 29.4009 33.3114 29.4009 31.8228V24.3819H34.1463V31.8228C34.1463 33.3114 35.3531 34.5183 36.8417 34.5183H44.2826V39.2637H36.8417C35.3531 39.2637 34.1463 40.4705 34.1463 41.9591V49.3997H29.4012V41.9591C29.4012 40.4705 28.1944 39.2637 26.7058 39.2637H19.2649V34.5183Z"></path></svg> 