<svg id="ico-4-category-row" xmlns="http://www.w3.org/2000/svg" width="64" height="64" viewBox="0 0 64 64" fill="#4876ca">
  <defs>
  </defs>
  <path class="cls-1" d="M57.043,5H6.956A7.052,7.052,0,0,0,0,12.1v39.79A7.053,7.053,0,0,0,6.956,59H57.043A7.053,7.053,0,0,0,64,51.894V12.1A7.052,7.052,0,0,0,57.043,5Zm4.174,27.284-6.609-6.75a2.651,2.651,0,0,0-3.9,0l-15.93,16.2-0.07-.071-8.07-8.242a2.773,2.773,0,0,0-3.9,0L15.93,40.383a1.394,1.394,0,0,0,0,1.989,1.325,1.325,0,0,0,1.948,0L24.7,35.409l8.07,8.243,0.069,0.071L27.2,49.478a1.393,1.393,0,0,0,0,1.989,1.325,1.325,0,0,0,1.948,0L52.661,27.523l8.278,8.455c0.07,0.071.209,0.142,0.278,0.213v15.7a4.232,4.232,0,0,1-4.174,4.263H6.956a4.232,4.232,0,0,1-4.174-4.263V12.1A4.232,4.232,0,0,1,6.956,7.841H57.043A4.232,4.232,0,0,1,61.217,12.1V32.283ZM12.591,43.794L11.2,45.215a1.394,1.394,0,0,0,0,1.99,1.325,1.325,0,0,0,1.948,0l1.391-1.422a1.393,1.393,0,0,0,0-1.988A1.325,1.325,0,0,0,12.591,43.794ZM15.3,13.525a7.107,7.107,0,0,0,0,14.21A7.107,7.107,0,0,0,15.3,13.525Zm0,11.368a4.264,4.264,0,1,1,4.174-4.263A4.231,4.231,0,0,1,15.3,24.893Z"/>
</svg>
