<svg xmlns="http://www.w3.org/2000/svg" width="90" height="90" viewBox="0 0 90 90">
  <metadata><?xpacket begin="﻿" id="W5M0MpCehiHzreSzNTczkc9d"?>
<x:xmpmeta xmlns:x="adobe:ns:meta/" x:xmptk="Adobe XMP Core 5.6-c138 79.159824, 2016/09/14-01:09:01        ">
   <rdf:RDF xmlns:rdf="http://www.w3.org/1999/02/22-rdf-syntax-ns#">
      <rdf:Description rdf:about=""/>
   </rdf:RDF>
</x:xmpmeta>
                                                                                                    
                                                                                                    
                                                                                                    
                                                                                                    
                                                                                                    
                                                                                                    
                                                                                                    
                                                                                                    
                                                                                                    
                                                                                                    
                                                                                                    
                                                                                                    
                                                                                                    
                                                                                                    
                                                                                                    
                                                                                                    
                                                                                                    
                                                                                                    
                                                                                                    
                                                                                                    
                           
<?xpacket end="w"?></metadata>
<defs>
    <style>
      .cls-1 {
        fill: #e92d74;
        fill-rule: evenodd;
      }
    </style>
  </defs>
  <path id="_24-hours" data-name="24-hours" class="cls-1" d="M1444.37,784.869a1.273,1.273,0,0,0-1.5,1,29.463,29.463,0,1,1-8.39-27.03h-3.3a1.275,1.275,0,0,0,0,2.549h6.41a1.273,1.273,0,0,0,1.27-1.275v-6.4a1.275,1.275,0,1,0-2.55,0v3.355a31.971,31.971,0,1,0,9.06,29.308A1.284,1.284,0,0,0,1444.37,784.869Zm0.36-6.145a1.276,1.276,0,0,0-1.28,1.275c0,0.285,0,.573-0.01.856a1.273,1.273,0,0,0,1.24,1.311h0.03a1.278,1.278,0,0,0,1.28-1.238c0.01-.307.01-0.62,0.01-0.929A1.274,1.274,0,0,0,1444.73,778.724ZM1413.11,791.8h-12.96v-2.518c0-5.4,13.65-8.161,13.65-16.891a7.765,7.765,0,0,0-8.08-7.8c-4.31,0-7.64,2.842-7.64,6.74,0,1.219.41,1.665,1.22,1.665a1.243,1.243,0,0,0,1.42-1.1c0-3.207,2.11-4.791,4.92-4.791a5.224,5.224,0,0,1,5.48,5.361c0,7.1-13.73,10.069-13.73,16.81v3.939a1.232,1.232,0,0,0,1.26,1.055h14.46a1.178,1.178,0,0,0,.97-1.258A1.136,1.136,0,0,0,1413.11,791.8Zm17.46-7.065h-2.24V776.9a1.175,1.175,0,0,0-1.34-1.016,1.153,1.153,0,0,0-1.34,1.016v7.837h-7.95l9.38-18.516a1.422,1.422,0,0,0,.12-0.528,1.307,1.307,0,0,0-1.3-1.1,1.371,1.371,0,0,0-1.26.812l-10.19,20.1a1.362,1.362,0,0,0-.17.691,1.015,1.015,0,0,0,1.06,1.1h10.31v5.929a1.18,1.18,0,0,0,1.34,1.055,1.2,1.2,0,0,0,1.34-1.055v-5.929h2.24a1.188,1.188,0,0,0,1.01-1.3A1.116,1.116,0,0,0,1430.57,784.736Z" transform="translate(-1369 -735)"/>
</svg>
